<?xml version="1.0" encoding="UTF-8"?>
<!DOCTYPE svg PUBLIC "-//W3C//DTD SVG 1.1//EN" "http://www.w3.org/Graphics/SVG/1.1/DTD/svg11.dtd">
<svg xmlns="http://www.w3.org/2000/svg" version="1.1" width="626px" height="443px" style="shape-rendering:geometricPrecision; text-rendering:geometricPrecision; image-rendering:optimizeQuality; fill-rule:evenodd; clip-rule:evenodd" xmlns:xlink="http://www.w3.org/1999/xlink">
<g><path style="opacity:1" fill="#fdfdfd" d="M -0.5,-0.5 C 208.167,-0.5 416.833,-0.5 625.5,-0.5C 625.5,147.167 625.5,294.833 625.5,442.5C 416.833,442.5 208.167,442.5 -0.5,442.5C -0.5,294.833 -0.5,147.167 -0.5,-0.5 Z"/></g>
<g><path style="opacity:1" fill="#915352" d="M 450.5,65.5 C 449.883,65.6107 449.383,65.944 449,66.5C 448.735,64.3485 447.735,62.6819 446,61.5C 443.23,62.3479 440.397,62.6813 437.5,62.5C 437.715,64.1788 437.048,65.1788 435.5,65.5C 434.821,57.3441 438.488,53.8441 446.5,55C 450.048,57.5907 451.382,61.0907 450.5,65.5 Z"/></g>
<g><path style="opacity:1" fill="#6b69ac" d="M 255.5,66.5 C 307.833,65.1667 360.167,65.1667 412.5,66.5C 375.074,65.8845 337.74,66.5512 300.5,68.5C 300.762,69.9778 300.429,71.3112 299.5,72.5C 296.477,70.7885 293.81,68.7885 291.5,66.5C 279.576,66.6125 267.576,66.6125 255.5,66.5 Z"/></g>
<g><path style="opacity:1" fill="#41419f" d="M 255.5,66.5 C 267.576,66.6125 279.576,66.6125 291.5,66.5C 293.81,68.7885 296.477,70.7885 299.5,72.5C 300.429,71.3112 300.762,69.9778 300.5,68.5C 337.74,66.5512 375.074,65.8845 412.5,66.5C 412.5,69.5 412.5,72.5 412.5,75.5C 412.167,75.5 411.833,75.5 411.5,75.5C 371.499,75.6667 331.499,75.5 291.5,75C 289.229,72.0005 286.896,71.8338 284.5,74.5C 274.856,75.4984 265.19,75.8318 255.5,75.5C 255.5,72.5 255.5,69.5 255.5,66.5 Z"/></g>
<g><path style="opacity:1" fill="#b84989" d="M 264.5,68.5 C 265.833,68.5 267.167,68.5 268.5,68.5C 268.778,70.3464 268.111,71.6798 266.5,72.5C 264.889,71.6798 264.222,70.3464 264.5,68.5 Z"/></g>
<g><path style="opacity:1" fill="#b68567" d="M 279.5,67.5 C 280.833,67.5 282.167,67.5 283.5,67.5C 283.5,69.1667 283.5,70.8333 283.5,72.5C 282.167,72.5 280.833,72.5 279.5,72.5C 279.5,70.8333 279.5,69.1667 279.5,67.5 Z"/></g>
<g><path style="opacity:1" fill="#f3a425" d="M 280.5,68.5 C 282.465,68.9483 282.798,69.9483 281.5,71.5C 280.614,70.675 280.281,69.675 280.5,68.5 Z"/></g>
<g><path style="opacity:1" fill="#66b6f6" d="M 271.5,68.5 C 272.833,68.5 274.167,68.5 275.5,68.5C 275.5,69.8333 275.5,71.1667 275.5,72.5C 272.5,72.8333 271.167,71.5 271.5,68.5 Z"/></g>
<g><path style="opacity:1" fill="#f7bdaa" d="M 450.5,65.5 C 449.945,69.5599 447.945,72.7266 444.5,75C 445.252,75.6708 445.586,76.5041 445.5,77.5C 445.167,78.1667 444.833,78.8333 444.5,79.5C 441.892,79.5997 439.558,78.9331 437.5,77.5C 438.278,76.8444 438.944,76.0111 439.5,75C 436.92,72.3423 435.587,69.1756 435.5,65.5C 437.048,65.1788 437.715,64.1788 437.5,62.5C 440.397,62.6813 443.23,62.3479 446,61.5C 447.735,62.6819 448.735,64.3485 449,66.5C 449.383,65.944 449.883,65.6107 450.5,65.5 Z"/></g>
<g><path style="opacity:1" fill="#666fd5" d="M 411.5,75.5 C 372.337,76.4986 333.004,76.8319 293.5,76.5C 292.5,76.5 291.5,76.5 290.5,76.5C 290.5,77.5 290.5,78.5 290.5,79.5C 288.833,79.5 287.167,79.5 285.5,79.5C 285.5,78.5 285.5,77.5 285.5,76.5C 284.167,76.5 282.833,76.5 281.5,76.5C 272.833,76.5 264.167,76.5 255.5,76.5C 255.5,76.1667 255.5,75.8333 255.5,75.5C 265.19,75.8318 274.856,75.4984 284.5,74.5C 286.896,71.8338 289.229,72.0005 291.5,75C 331.499,75.5 371.499,75.6667 411.5,75.5 Z"/></g>
<g><path style="opacity:1" fill="#8b88ee" d="M 255.5,76.5 C 264.167,76.5 272.833,76.5 281.5,76.5C 281.5,77.8333 281.5,79.1667 281.5,80.5C 279.169,80.4977 277.169,81.331 275.5,83C 280.155,83.4992 284.821,83.6658 289.5,83.5C 330.5,83.5 371.5,83.5 412.5,83.5C 412.5,83.8333 412.5,84.1667 412.5,84.5C 360.167,84.5 307.833,84.5 255.5,84.5C 255.5,81.8333 255.5,79.1667 255.5,76.5 Z"/></g>
<g><path style="opacity:1" fill="#794268" d="M 437.5,77.5 C 439.558,78.9331 441.892,79.5997 444.5,79.5C 441.598,81.1154 439.265,80.4488 437.5,77.5 Z"/></g>
<g><path style="opacity:1" fill="#94a3f8" d="M 281.5,76.5 C 282.833,76.5 284.167,76.5 285.5,76.5C 285.5,77.5 285.5,78.5 285.5,79.5C 287.167,79.5 288.833,79.5 290.5,79.5C 290.5,78.5 290.5,77.5 290.5,76.5C 291.5,76.5 292.5,76.5 293.5,76.5C 293.649,77.552 293.483,78.552 293,79.5C 291.373,80.5323 290.207,81.8656 289.5,83.5C 284.821,83.6658 280.155,83.4992 275.5,83C 277.169,81.331 279.169,80.4977 281.5,80.5C 281.5,79.1667 281.5,77.8333 281.5,76.5 Z"/></g>
<g><path style="opacity:1" fill="#798efc" d="M 411.5,75.5 C 411.833,75.5 412.167,75.5 412.5,75.5C 412.5,78.1667 412.5,80.8333 412.5,83.5C 371.5,83.5 330.5,83.5 289.5,83.5C 290.207,81.8656 291.373,80.5323 293,79.5C 293.483,78.552 293.649,77.552 293.5,76.5C 333.004,76.8319 372.337,76.4986 411.5,75.5 Z"/></g>
<g><path style="opacity:1" fill="#f65892" d="M 431.5,77.5 C 433.5,77.5 435.5,77.5 437.5,77.5C 439.265,80.4488 441.598,81.1154 444.5,79.5C 446.806,79.0074 449.139,78.6741 451.5,78.5C 451.322,82.1224 451.989,85.4557 453.5,88.5C 453.5,88.8333 453.5,89.1667 453.5,89.5C 453.5,90.8333 453.5,92.1667 453.5,93.5C 445.833,93.5 438.167,93.5 430.5,93.5C 430.629,91.7839 430.962,90.1172 431.5,88.5C 431.5,84.8333 431.5,81.1667 431.5,77.5 Z"/></g>
<g><path style="opacity:1" fill="#d34477" d="M 255.5,85.5 C 262.2,85.17 268.866,85.5033 275.5,86.5C 271.113,86.887 268.779,89.2204 268.5,93.5C 264.167,93.5 259.833,93.5 255.5,93.5C 255.5,90.8333 255.5,88.1667 255.5,85.5 Z"/></g>
<g><path style="opacity:1" fill="#a0567d" d="M 445.5,77.5 C 448.713,77.19 451.713,77.5233 454.5,78.5C 453.351,78.7911 452.684,79.6244 452.5,81C 453.159,83.4621 453.493,85.9621 453.5,88.5C 451.989,85.4557 451.322,82.1224 451.5,78.5C 449.139,78.6741 446.806,79.0074 444.5,79.5C 444.833,78.8333 445.167,78.1667 445.5,77.5 Z"/></g>
<g><path style="opacity:1" fill="#c86092" d="M 255.5,85.5 C 255.5,85.1667 255.5,84.8333 255.5,84.5C 307.833,84.5 360.167,84.5 412.5,84.5C 412.5,84.8333 412.5,85.1667 412.5,85.5C 370.161,85.1667 327.828,85.5001 285.5,86.5C 284.04,90.4677 281.374,91.4677 277.5,89.5C 276.713,90.2421 276.047,91.0754 275.5,92C 278.834,93.0844 282.168,93.9177 285.5,94.5C 285.167,94.5 284.833,94.5 284.5,94.5C 274.833,94.5 265.167,94.5 255.5,94.5C 255.5,94.1667 255.5,93.8333 255.5,93.5C 259.833,93.5 264.167,93.5 268.5,93.5C 268.779,89.2204 271.113,86.887 275.5,86.5C 268.866,85.5033 262.2,85.17 255.5,85.5 Z"/></g>
<g><path style="opacity:1" fill="#d44376" d="M 412.5,85.5 C 412.5,88.5 412.5,91.5 412.5,94.5C 403.833,94.5 395.167,94.5 386.5,94.5C 352.833,94.5 319.167,94.5 285.5,94.5C 282.168,93.9177 278.834,93.0844 275.5,92C 276.047,91.0754 276.713,90.2421 277.5,89.5C 281.374,91.4677 284.04,90.4677 285.5,86.5C 327.828,85.5001 370.161,85.1667 412.5,85.5 Z"/></g>
<g><path style="opacity:1" fill="#48476d" d="M 454.5,78.5 C 459.238,84.9652 463.738,91.6319 468,98.5C 469.087,104.927 466.253,108.26 459.5,108.5C 457.775,108.157 457.275,107.157 458,105.5C 460.137,104.521 461.971,103.188 463.5,101.5C 460.491,97.1637 457.157,93.1637 453.5,89.5C 453.5,89.1667 453.5,88.8333 453.5,88.5C 453.493,85.9621 453.159,83.4621 452.5,81C 452.684,79.6244 453.351,78.7911 454.5,78.5 Z"/></g>
<g><path style="opacity:1" fill="#4a486e" d="M 431.5,77.5 C 431.5,81.1667 431.5,84.8333 431.5,88.5C 426.597,91.9778 424.097,96.6445 424,102.5C 427.175,104.256 428.008,106.589 426.5,109.5C 419.151,108.137 416.317,103.804 418,96.5C 420.667,91.8333 423.333,87.1667 426,82.5C 427.704,80.6266 429.537,78.9599 431.5,77.5 Z"/></g>
<g><path style="opacity:1" fill="#d0e6f2" d="M 163.5,77.5 C 173.104,76.7169 182.437,77.8836 191.5,81C 202.788,88.591 205.121,98.4244 198.5,110.5C 193.344,115.825 188.344,121.325 183.5,127C 182.552,127.483 181.552,127.649 180.5,127.5C 180.5,126.167 180.5,124.833 180.5,123.5C 165.266,126.457 152.932,121.957 143.5,110C 139.065,98.1518 142.399,88.8185 153.5,82C 157.025,80.5624 160.358,79.0624 163.5,77.5 Z"/></g>
<g><path style="opacity:1" fill="#fd7eae" d="M 285.5,94.5 C 319.167,94.5 352.833,94.5 386.5,94.5C 386.5,108.833 386.5,123.167 386.5,137.5C 352.833,137.5 319.167,137.5 285.5,137.5C 285.5,123.167 285.5,108.833 285.5,94.5 Z"/></g>
<g><path style="opacity:1" fill="#d0e1ee" d="M 431.5,88.5 C 430.962,90.1172 430.629,91.7839 430.5,93.5C 438.167,93.5 445.833,93.5 453.5,93.5C 453.5,92.1667 453.5,90.8333 453.5,89.5C 457.157,93.1637 460.491,97.1637 463.5,101.5C 461.971,103.188 460.137,104.521 458,105.5C 457.275,107.157 457.775,108.157 459.5,108.5C 459.5,108.833 459.5,109.167 459.5,109.5C 458.333,111.041 457,112.375 455.5,113.5C 453.5,113.5 451.5,113.5 449.5,113.5C 444.167,113.5 438.833,113.5 433.5,113.5C 431.5,113.5 429.5,113.5 427.5,113.5C 427.672,112.508 427.338,111.842 426.5,111.5C 426.5,110.833 426.5,110.167 426.5,109.5C 428.008,106.589 427.175,104.256 424,102.5C 424.097,96.6445 426.597,91.9778 431.5,88.5 Z"/></g>
<g><path style="opacity:1" fill="#72c0f1" d="M 439.5,100.5 C 441.167,100.5 442.833,100.5 444.5,100.5C 444.5,101.833 444.5,103.167 444.5,104.5C 442.833,104.5 441.167,104.5 439.5,104.5C 439.5,103.167 439.5,101.833 439.5,100.5 Z"/></g>
<g><path style="opacity:1" fill="#f3c3e1" d="M 386.5,94.5 C 395.167,94.5 403.833,94.5 412.5,94.5C 412.5,94.8333 412.5,95.1667 412.5,95.5C 404.167,95.5 395.833,95.5 387.5,95.5C 387.829,109.677 387.496,123.677 386.5,137.5C 386.5,123.167 386.5,108.833 386.5,94.5 Z"/></g>
<g><path style="opacity:1" fill="#f3d1e9" d="M 255.5,95.5 C 255.5,95.1667 255.5,94.8333 255.5,94.5C 265.167,94.5 274.833,94.5 284.5,94.5C 284.5,108.833 284.5,123.167 284.5,137.5C 283.504,123.677 283.171,109.677 283.5,95.5C 274.167,95.5 264.833,95.5 255.5,95.5 Z"/></g>
<g><path style="opacity:1" fill="#ba9272" d="M 427.5,113.5 C 429.5,113.5 431.5,113.5 433.5,113.5C 436.479,119.343 441.146,121.843 447.5,121C 449.543,119.292 451.21,117.292 452.5,115C 451.263,114.768 450.263,114.268 449.5,113.5C 451.5,113.5 453.5,113.5 455.5,113.5C 455.982,114.416 456.315,115.416 456.5,116.5C 455.703,119.82 455.036,123.154 454.5,126.5C 446.555,125.563 438.555,125.23 430.5,125.5C 430.966,121.012 429.966,117.012 427.5,113.5 Z"/></g>
<g><path style="opacity:1" fill="#a4745d" d="M 433.5,113.5 C 438.833,113.5 444.167,113.5 449.5,113.5C 450.263,114.268 451.263,114.768 452.5,115C 451.21,117.292 449.543,119.292 447.5,121C 441.146,121.843 436.479,119.343 433.5,113.5 Z"/></g>
<g><path style="opacity:1" fill="#cdab8a" d="M 426.5,111.5 C 427.338,111.842 427.672,112.508 427.5,113.5C 429.966,117.012 430.966,121.012 430.5,125.5C 428.836,126.949 428.002,128.949 428,131.5C 427.417,129.998 426.584,128.665 425.5,127.5C 424.461,130.047 425.295,132.047 428,133.5C 428.49,134.793 428.657,136.127 428.5,137.5C 427.5,137.5 426.5,137.5 425.5,137.5C 425.649,138.552 425.483,139.552 425,140.5C 424.892,136.535 424.059,132.868 422.5,129.5C 422.672,128.508 422.338,127.842 421.5,127.5C 421.5,127.167 421.5,126.833 421.5,126.5C 421.305,122.085 421.805,117.751 423,113.5C 423.816,112.177 424.983,111.511 426.5,111.5 Z"/></g>
<g><path style="opacity:1" fill="#2e4482" d="M 413.5,127.5 C 416.167,127.5 418.833,127.5 421.5,127.5C 422.338,127.842 422.672,128.508 422.5,129.5C 422.5,131.833 422.5,134.167 422.5,136.5C 419.713,137.477 416.713,137.81 413.5,137.5C 413.5,134.167 413.5,130.833 413.5,127.5 Z"/></g>
<g><path style="opacity:1" fill="#bd9e8d" d="M 430.5,125.5 C 438.555,125.23 446.555,125.563 454.5,126.5C 454.5,126.833 454.5,127.167 454.5,127.5C 446.833,127.5 439.167,127.5 431.5,127.5C 431.5,130.833 431.5,134.167 431.5,137.5C 431.5,145.833 431.5,154.167 431.5,162.5C 430.167,162.5 428.833,162.5 427.5,162.5C 427.737,161.209 427.404,160.209 426.5,159.5C 425.654,151.62 424.321,143.953 422.5,136.5C 422.5,134.167 422.5,131.833 422.5,129.5C 424.059,132.868 424.892,136.535 425,140.5C 425.483,139.552 425.649,138.552 425.5,137.5C 426.5,137.5 427.5,137.5 428.5,137.5C 428.657,136.127 428.49,134.793 428,133.5C 425.295,132.047 424.461,130.047 425.5,127.5C 426.584,128.665 427.417,129.998 428,131.5C 428.002,128.949 428.836,126.949 430.5,125.5 Z"/></g>
<g><path style="opacity:1" fill="#cba98c" d="M 459.5,109.5 C 461.722,109.178 463.556,109.845 465,111.5C 465.667,115.5 465.667,119.5 465,123.5C 463.846,127.447 463.013,131.447 462.5,135.5C 461.566,136.568 461.232,137.901 461.5,139.5C 458.768,146.893 456.768,154.56 455.5,162.5C 454.292,161.766 452.959,161.433 451.5,161.5C 452.167,154.167 452.833,146.833 453.5,139.5C 453.505,135.466 453.838,131.466 454.5,127.5C 454.5,127.167 454.5,126.833 454.5,126.5C 455.036,123.154 455.703,119.82 456.5,116.5C 456.315,115.416 455.982,114.416 455.5,113.5C 457,112.375 458.333,111.041 459.5,109.5 Z"/></g>
<g><path style="opacity:1" fill="#2d4481" d="M 454.5,127.5 C 453.838,131.466 453.505,135.466 453.5,139.5C 452.833,141.5 452.167,143.5 451.5,145.5C 451.84,142.856 451.173,140.523 449.5,138.5C 443.537,137.504 437.537,137.171 431.5,137.5C 431.5,134.167 431.5,130.833 431.5,127.5C 439.167,127.5 446.833,127.5 454.5,127.5 Z"/></g>
<g><path style="opacity:1" fill="#dfa5c5" d="M 284.5,94.5 C 284.833,94.5 285.167,94.5 285.5,94.5C 285.5,108.833 285.5,123.167 285.5,137.5C 319.167,137.5 352.833,137.5 386.5,137.5C 352.5,138.833 318.5,138.833 284.5,137.5C 284.5,123.167 284.5,108.833 284.5,94.5 Z"/></g>
<g><path style="opacity:1" fill="#466bcd" d="M 255.5,137.5 C 255.5,145.167 255.5,152.833 255.5,160.5C 241.99,160.171 228.656,160.504 215.5,161.5C 214.336,197.331 214.169,233.331 215,269.5C 228.421,270.49 241.921,270.823 255.5,270.5C 255.5,271.167 255.833,271.5 256.5,271.5C 257.5,271.833 258.167,272.5 258.5,273.5C 258.5,274.167 258.5,274.833 258.5,275.5C 242.163,275.667 225.83,275.5 209.5,275C 208.23,274.1 207.23,272.934 206.5,271.5C 206.167,250.167 205.833,228.833 205.5,207.5C 205.349,185.105 205.849,162.772 207,140.5C 207.5,139.333 208.333,138.5 209.5,138C 224.83,137.5 240.163,137.333 255.5,137.5 Z"/></g>
<g><path style="opacity:1" fill="#466ccf" d="M 431.5,137.5 C 437.537,137.171 443.537,137.504 449.5,138.5C 451.173,140.523 451.84,142.856 451.5,145.5C 450.968,151.152 450.635,156.819 450.5,162.5C 449.167,162.5 447.833,162.5 446.5,162.5C 446.413,159.402 446.913,159.068 448,161.5C 448.667,159.5 448.667,157.5 448,155.5C 444.648,160.203 441.815,165.203 439.5,170.5C 438.707,170.931 437.873,171.265 437,171.5C 434.921,169.633 433.087,167.633 431.5,165.5C 431.5,164.5 431.5,163.5 431.5,162.5C 431.5,154.167 431.5,145.833 431.5,137.5 Z"/></g>
<g><path style="opacity:1" fill="#414b5c" d="M 98.5,144.5 C 97.1667,144.5 95.8333,144.5 94.5,144.5C 95.5112,140.777 96.8445,140.777 98.5,144.5 Z"/></g>
<g><path style="opacity:1" fill="#2d4581" d="M 198.5,127.5 C 217.5,127.5 236.5,127.5 255.5,127.5C 255.5,130.833 255.5,134.167 255.5,137.5C 240.163,137.333 224.83,137.5 209.5,138C 208.333,138.5 207.5,139.333 207,140.5C 205.849,162.772 205.349,185.105 205.5,207.5C 205.833,228.833 206.167,250.167 206.5,271.5C 207.23,272.934 208.23,274.1 209.5,275C 225.83,275.5 242.163,275.667 258.5,275.5C 256.96,276.6 254.96,277.934 252.5,279.5C 251.761,279.369 251.094,279.536 250.5,280C 248.361,282.478 246.361,284.978 244.5,287.5C 228.422,287.817 212.422,287.484 196.5,286.5C 196.333,233.832 196.5,181.166 197,128.5C 197.383,127.944 197.883,127.611 198.5,127.5 Z"/></g>
<g><path style="opacity:1" fill="#f5d171" d="M 159.5,146.5 C 159.167,147.167 158.833,147.833 158.5,148.5C 155.445,150.41 152.111,151.743 148.5,152.5C 152.122,150.507 155.789,148.507 159.5,146.5 Z"/></g>
<g><path style="opacity:1" fill="#d2e6f3" d="M 94.5,144.5 C 95.8333,144.5 97.1667,144.5 98.5,144.5C 99.6376,147.913 100.971,151.246 102.5,154.5C 98.5,154.5 94.5,154.5 90.5,154.5C 91.2824,150.937 92.6157,147.603 94.5,144.5 Z"/></g>
<g><path style="opacity:1" fill="#7d7b9e" d="M 453.5,139.5 C 452.833,146.833 452.167,154.167 451.5,161.5C 451.672,162.492 451.338,163.158 450.5,163.5C 450.5,163.167 450.5,162.833 450.5,162.5C 450.635,156.819 450.968,151.152 451.5,145.5C 452.167,143.5 452.833,141.5 453.5,139.5 Z"/></g>
<g><path style="opacity:1" fill="#f5982c" d="M 159.5,146.5 C 161.124,150.18 162.791,154.014 164.5,158C 163.216,158.684 162.049,158.517 161,157.5C 160.159,154.372 159.325,151.372 158.5,148.5C 158.833,147.833 159.167,147.167 159.5,146.5 Z"/></g>
<g><path style="opacity:1" fill="#f6bb38" d="M 159.5,160.5 C 156.272,159.586 152.939,159.253 149.5,159.5C 147.473,159.662 145.473,159.495 143.5,159C 142.027,158.29 141.36,157.124 141.5,155.5C 144.038,154.957 146.372,153.957 148.5,152.5C 152.111,151.743 155.445,150.41 158.5,148.5C 159.325,151.372 160.159,154.372 161,157.5C 162.049,158.517 163.216,158.684 164.5,158C 162.791,154.014 161.124,150.18 159.5,146.5C 161.386,143.901 164.052,142.901 167.5,143.5C 169.72,148.525 170.72,153.858 170.5,159.5C 166.629,159.185 162.962,159.518 159.5,160.5 Z"/></g>
<g><path style="opacity:1" fill="#f2bba9" d="M 136.5,151.5 C 136.963,154.482 137.296,157.482 137.5,160.5C 135.304,160.59 133.137,160.923 131,161.5C 129.289,161.561 127.956,160.894 127,159.5C 126.667,160.167 126.333,160.833 126,161.5C 125.362,160.391 124.862,159.225 124.5,158C 125.983,157.151 127.316,155.485 128.5,153C 131.254,152.728 133.921,152.228 136.5,151.5 Z"/></g>
<g><path style="opacity:1" fill="#fcfdfd" d="M 255.5,160.5 C 281.167,160.5 306.833,160.5 332.5,160.5C 332.5,188.167 332.5,215.833 332.5,243.5C 332.5,251.833 332.5,260.167 332.5,268.5C 311.833,268.5 291.167,268.5 270.5,268.5C 272.236,259.439 268.569,255.272 259.5,256C 256.511,258.483 255.178,261.65 255.5,265.5C 255.5,266.5 255.5,267.5 255.5,268.5C 242.5,268.5 229.5,268.5 216.5,268.5C 216.5,232.833 216.5,197.167 216.5,161.5C 229.677,161.829 242.677,161.495 255.5,160.5 Z"/></g>
<g><path style="opacity:1" fill="#f3b98f" d="M 149.5,159.5 C 152.939,159.253 156.272,159.586 159.5,160.5C 157.401,161.815 157.067,163.482 158.5,165.5C 157.5,165.5 156.5,165.5 155.5,165.5C 154.118,164.199 152.452,163.366 150.5,163C 149.663,161.989 149.33,160.822 149.5,159.5 Z"/></g>
<g><path style="opacity:1" fill="#503020" d="M 136.5,151.5 C 133.921,152.228 131.254,152.728 128.5,153C 127.316,155.485 125.983,157.151 124.5,158C 124.862,159.225 125.362,160.391 126,161.5C 126.333,160.833 126.667,160.167 127,159.5C 127.956,160.894 129.289,161.561 131,161.5C 133.137,160.923 135.304,160.59 137.5,160.5C 138.244,163.95 136.91,165.616 133.5,165.5C 131.278,165.822 129.444,165.155 128,163.5C 127.536,164.094 127.369,164.761 127.5,165.5C 121.045,159.222 121.045,153.055 127.5,147C 130.865,144.843 134.032,145.009 137,147.5C 137.765,149.066 137.598,150.399 136.5,151.5 Z"/></g>
<g><path style="opacity:1" fill="#885257" d="M 451.5,161.5 C 452.959,161.433 454.292,161.766 455.5,162.5C 455.5,164.833 455.5,167.167 455.5,169.5C 453.5,169.5 451.5,169.5 449.5,169.5C 449.205,167.265 449.539,165.265 450.5,163.5C 451.338,163.158 451.672,162.492 451.5,161.5 Z"/></g>
<g><path style="opacity:1" fill="#e5e5e5" d="M 266.5,170.5 C 284.833,170.5 303.167,170.5 321.5,170.5C 321.5,171.5 321.5,172.5 321.5,173.5C 303.167,173.5 284.833,173.5 266.5,173.5C 266.5,172.5 266.5,171.5 266.5,170.5 Z"/></g>
<g><path style="opacity:1" fill="#3b65c2" d="M 413.5,127.5 C 413.5,130.833 413.5,134.167 413.5,137.5C 414.288,169.151 414.788,200.817 415,232.5C 415.168,222.816 415.668,213.149 416.5,203.5C 417.36,201.069 419.027,199.736 421.5,199.5C 423.117,194.932 425.284,190.599 428,186.5C 430.089,183.514 432.423,180.847 435,178.5C 435.808,176.421 435.641,174.421 434.5,172.5C 431.916,171.607 429.249,171.274 426.5,171.5C 426.5,167.5 426.5,163.5 426.5,159.5C 427.404,160.209 427.737,161.209 427.5,162.5C 427.5,165.167 427.5,167.833 427.5,170.5C 431.935,171.078 433.268,169.411 431.5,165.5C 433.087,167.633 434.921,169.633 437,171.5C 437.873,171.265 438.707,170.931 439.5,170.5C 441.815,165.203 444.648,160.203 448,155.5C 448.667,157.5 448.667,159.5 448,161.5C 446.913,159.068 446.413,159.402 446.5,162.5C 447.833,162.5 449.167,162.5 450.5,162.5C 450.5,162.833 450.5,163.167 450.5,163.5C 449.539,165.265 449.205,167.265 449.5,169.5C 450.172,170.267 451.005,170.934 452,171.5C 452.833,204.838 452.667,238.172 451.5,271.5C 450.717,273.288 449.384,274.288 447.5,274.5C 411.5,274.5 375.5,274.5 339.5,274.5C 345.175,269.473 351.509,265.139 358.5,261.5C 363.995,256.509 369.661,251.675 375.5,247C 383.521,246.832 391.521,246.332 399.5,245.5C 377.51,244.5 355.51,244.167 333.5,244.5C 333.826,252.684 333.492,260.684 332.5,268.5C 332.5,260.167 332.5,251.833 332.5,243.5C 359.167,243.5 385.833,243.5 412.5,243.5C 412.168,204.663 412.501,165.996 413.5,127.5 Z"/></g>
<g><path style="opacity:1" fill="#885053" d="M 427.5,162.5 C 428.833,162.5 430.167,162.5 431.5,162.5C 431.5,163.5 431.5,164.5 431.5,165.5C 433.268,169.411 431.935,171.078 427.5,170.5C 427.5,167.833 427.5,165.167 427.5,162.5 Z"/></g>
<g><path style="opacity:1" fill="#7991c8" d="M 255.5,160.5 C 242.677,161.495 229.677,161.829 216.5,161.5C 216.5,197.167 216.5,232.833 216.5,268.5C 215.502,233.004 215.168,197.337 215.5,161.5C 228.656,160.504 241.99,160.171 255.5,160.5 Z"/></g>
<g><path style="opacity:1" fill="#cfe5f2" d="M 255.5,95.5 C 264.833,95.5 274.167,95.5 283.5,95.5C 283.171,109.677 283.504,123.677 284.5,137.5C 318.5,138.833 352.5,138.833 386.5,137.5C 387.496,123.677 387.829,109.677 387.5,95.5C 395.833,95.5 404.167,95.5 412.5,95.5C 412.5,105.833 412.5,116.167 412.5,126.5C 415.5,126.5 418.5,126.5 421.5,126.5C 421.5,126.833 421.5,127.167 421.5,127.5C 418.833,127.5 416.167,127.5 413.5,127.5C 412.501,165.996 412.168,204.663 412.5,243.5C 385.833,243.5 359.167,243.5 332.5,243.5C 332.5,215.833 332.5,188.167 332.5,160.5C 306.833,160.5 281.167,160.5 255.5,160.5C 255.5,152.833 255.5,145.167 255.5,137.5C 255.5,134.167 255.5,130.833 255.5,127.5C 236.5,127.5 217.5,127.5 198.5,127.5C 217.326,126.503 236.326,126.17 255.5,126.5C 255.5,116.167 255.5,105.833 255.5,95.5 Z"/></g>
<g><path style="opacity:1" fill="#ac8591" d="M 346.5,166.5 C 350.226,166.177 353.893,166.511 357.5,167.5C 355.667,167.833 353.833,168.167 352,168.5C 349.705,168.453 347.871,167.787 346.5,166.5 Z"/></g>
<g><path style="opacity:1" fill="#b4dbf2" d="M 380.5,153.5 C 369.248,151.852 357.915,151.185 346.5,151.5C 346.5,152.833 346.5,154.167 346.5,155.5C 353.838,156.049 361.005,155.382 368,153.5C 372.488,155.676 376.988,156.009 381.5,154.5C 384.95,153.756 386.616,155.09 386.5,158.5C 378.186,156.88 369.852,156.213 361.5,156.5C 361.5,157.5 361.5,158.5 361.5,159.5C 362.677,160.691 366.677,161.024 373.5,160.5C 374.068,165.948 371.568,167.948 366,166.5C 359.5,166 353,165.5 346.5,165C 347.833,164 347.833,163 346.5,162C 349.5,161.667 352.5,161.333 355.5,161C 352.381,159.595 349.048,159.095 345.5,159.5C 345.197,154.57 345.531,149.737 346.5,145C 354.833,144.333 363.167,144.333 371.5,145C 376.321,146.279 381.321,146.946 386.5,147C 387.167,147.667 387.833,148.333 388.5,149C 386.038,150.216 383.371,150.882 380.5,151C 379.402,151.77 379.402,152.603 380.5,153.5 Z"/></g>
<g><path style="opacity:1" fill="#9ad4f2" d="M 380.5,153.5 C 380.5,154.167 380.833,154.5 381.5,154.5C 376.988,156.009 372.488,155.676 368,153.5C 361.005,155.382 353.838,156.049 346.5,155.5C 346.5,154.167 346.5,152.833 346.5,151.5C 357.915,151.185 369.248,151.852 380.5,153.5 Z"/></g>
<g><path style="opacity:1" fill="#aec0f3" d="M 284.5,151.5 C 295.112,150.956 305.612,151.623 316,153.5C 319.339,151.956 322.839,151.29 326.5,151.5C 326.5,152.833 326.5,154.167 326.5,155.5C 320.824,155.666 315.157,155.499 309.5,155C 309.833,154.667 310.167,154.333 310.5,154C 308.333,153.833 306.167,153.667 304,153.5C 297.559,154.825 291.059,155.491 284.5,155.5C 284.5,154.167 284.5,152.833 284.5,151.5 Z"/></g>
<g><path style="opacity:1" fill="#7d98af" d="M 284.5,144.5 C 293.525,144.168 302.525,144.502 311.5,145.5C 307,145.833 302.5,146.167 298,146.5C 293.114,146.493 288.614,145.826 284.5,144.5 Z"/></g>
<g><path style="opacity:1" fill="#ffe3f2" d="M 289.5,111.5 C 289.5,119.167 289.5,126.833 289.5,134.5C 299.5,134.5 309.5,134.5 319.5,134.5C 319.5,126.833 319.5,119.167 319.5,111.5C 320.492,119.316 320.826,127.316 320.5,135.5C 309.833,135.5 299.167,135.5 288.5,135.5C 288.174,127.316 288.508,119.316 289.5,111.5 Z"/></g>
<g><path style="opacity:1" fill="#f1fbfc" d="M 289.5,111.5 C 299.5,111.5 309.5,111.5 319.5,111.5C 319.5,119.167 319.5,126.833 319.5,134.5C 309.5,134.5 299.5,134.5 289.5,134.5C 289.5,126.833 289.5,119.167 289.5,111.5 Z"/></g>
<g><path style="opacity:1" fill="#95b3d9" d="M 290.5,113.5 C 299.5,113.5 308.5,113.5 317.5,113.5C 317.5,120.167 317.5,126.833 317.5,133.5C 308.827,133.666 300.16,133.5 291.5,133C 290.522,126.59 290.189,120.09 290.5,113.5 Z"/></g>
<g><path style="opacity:1" fill="#f6fafb" d="M 305.5,120.5 C 310.036,121.861 313.036,124.861 314.5,129.5C 307.532,130.497 300.532,130.83 293.5,130.5C 293.297,128.61 293.963,127.11 295.5,126C 297.557,125.695 299.557,125.695 301.5,126C 302.965,124.226 304.298,122.392 305.5,120.5 Z"/></g>
<g><path style="opacity:1" fill="#f1f9fb" d="M 296.5,118.5 C 299.5,118.167 300.833,119.5 300.5,122.5C 296.56,123.234 295.227,121.901 296.5,118.5 Z"/></g>
<g><path style="opacity:1" fill="#f5abcb" d="M 319.5,111.5 C 309.5,111.5 299.5,111.5 289.5,111.5C 288.508,119.316 288.174,127.316 288.5,135.5C 287.507,127.35 287.174,119.017 287.5,110.5C 298.346,110.172 309.013,110.506 319.5,111.5 Z"/></g>
<g><path style="opacity:1" fill="#9a9ab0" d="M 90.5,154.5 C 94.5,154.5 98.5,154.5 102.5,154.5C 103.496,168.323 103.829,182.323 103.5,196.5C 103.167,196.5 102.833,196.5 102.5,196.5C 102.5,182.833 102.5,169.167 102.5,155.5C 101.167,155.5 99.8333,155.5 98.5,155.5C 95.8333,155.5 93.1667,155.5 90.5,155.5C 90.1858,168.913 90.5192,182.246 91.5,195.5C 90.8333,195.5 90.1667,195.5 89.5,195.5C 89.171,181.656 89.5043,167.99 90.5,154.5 Z"/></g>
<g><path style="opacity:1" fill="#ed497c" d="M 133.5,165.5 C 133.5,166.5 133.5,167.5 133.5,168.5C 136.912,169.042 139.912,170.375 142.5,172.5C 143.159,175.455 143.492,178.455 143.5,181.5C 144.207,184.786 144.54,188.119 144.5,191.5C 145.182,196.886 145.182,202.219 144.5,207.5C 146.086,209.173 146.753,211.173 146.5,213.5C 145.5,213.5 144.5,213.5 143.5,213.5C 143.5,214.5 143.5,215.5 143.5,216.5C 140.15,216.665 136.817,216.498 133.5,216C 130.572,214.662 127.572,213.495 124.5,212.5C 124.5,211.5 124.5,210.5 124.5,209.5C 125.675,209.719 126.675,209.386 127.5,208.5C 126.456,207.377 125.79,206.044 125.5,204.5C 126.363,198.52 126.363,192.52 125.5,186.5C 124.5,186.5 123.5,186.5 122.5,186.5C 122.834,189.188 122.168,191.521 120.5,193.5C 117.438,201.197 111.771,204.197 103.5,202.5C 103.5,201.833 103.167,201.5 102.5,201.5C 102.5,199.833 102.5,198.167 102.5,196.5C 102.833,196.5 103.167,196.5 103.5,196.5C 106.4,196.72 109.067,196.054 111.5,194.5C 114.941,187.403 117.774,180.069 120,172.5C 122.025,170.307 124.525,169.307 127.5,169.5C 127.5,168.167 127.5,166.833 127.5,165.5C 127.369,164.761 127.536,164.094 128,163.5C 129.444,165.155 131.278,165.822 133.5,165.5 Z"/></g>
<g><path style="opacity:1" fill="#d44778" d="M 155.5,165.5 C 156.5,165.5 157.5,165.5 158.5,165.5C 171.24,186.286 166.24,191.62 143.5,181.5C 143.492,178.455 143.159,175.455 142.5,172.5C 148.009,174.447 153.342,176.78 158.5,179.5C 158.833,179 159.167,178.5 159.5,178C 158.06,173.846 156.726,169.68 155.5,165.5 Z"/></g>
<g><path style="opacity:1" fill="#7a9bb3" d="M 346.5,175.5 C 355.192,175.169 363.859,175.502 372.5,176.5C 369.232,177.487 365.898,177.82 362.5,177.5C 356.729,178.113 351.396,177.446 346.5,175.5 Z"/></g>
<g><path style="opacity:1" fill="#476dcf" d="M 422.5,136.5 C 424.321,143.953 425.654,151.62 426.5,159.5C 426.5,163.5 426.5,167.5 426.5,171.5C 429.249,171.274 431.916,171.607 434.5,172.5C 435.641,174.421 435.808,176.421 435,178.5C 432.423,180.847 430.089,183.514 428,186.5C 425.284,190.599 423.117,194.932 421.5,199.5C 419.027,199.736 417.36,201.069 416.5,203.5C 415.668,213.149 415.168,222.816 415,232.5C 414.788,200.817 414.288,169.151 413.5,137.5C 416.713,137.81 419.713,137.477 422.5,136.5 Z"/></g>
<g><path style="opacity:1" fill="#e7e7e7" d="M 266.5,178.5 C 284.833,178.5 303.167,178.5 321.5,178.5C 321.5,179.833 321.5,181.167 321.5,182.5C 303.167,182.5 284.833,182.5 266.5,182.5C 266.5,181.167 266.5,179.833 266.5,178.5 Z"/></g>
<g><path style="opacity:1" fill="#868686" d="M 247.5,192.5 C 247.759,194.989 246.759,196.656 244.5,197.5C 244.586,196.504 244.252,195.671 243.5,195C 240.183,194.502 236.85,194.335 233.5,194.5C 233.007,196.806 232.674,199.139 232.5,201.5C 233.5,201.5 234.5,201.5 235.5,201.5C 235.5,202.5 235.5,203.5 235.5,204.5C 232.5,204.5 229.5,204.5 226.5,204.5C 230.13,194.664 233.464,184.664 236.5,174.5C 238.396,173.534 240.396,173.201 242.5,173.5C 244.011,179.876 245.677,186.209 247.5,192.5 Z"/></g>
<g><path style="opacity:1" fill="#f3f3f3" d="M 238.5,177.5 C 240.744,181.793 242.077,186.46 242.5,191.5C 240.167,191.5 237.833,191.5 235.5,191.5C 235.869,186.691 236.869,182.024 238.5,177.5 Z"/></g>
<g><path style="opacity:1" fill="#b0c5ed" d="M 346.5,175.5 C 351.396,177.446 356.729,178.113 362.5,177.5C 362.611,178.117 362.944,178.617 363.5,179C 368.864,179.171 374.198,179.671 379.5,180.5C 378.372,181.262 377.205,181.929 376,182.5C 375.568,183.6 376.068,184.267 377.5,184.5C 380.651,182.711 383.984,182.211 387.5,183C 386.359,183.741 386.359,184.575 387.5,185.5C 379.959,186.622 372.459,186.288 365,184.5C 358.559,185.825 352.059,186.491 345.5,186.5C 345.185,182.629 345.518,178.962 346.5,175.5 Z"/></g>
<g><path style="opacity:1" fill="#e5e5e5" d="M 266.5,187.5 C 284.833,187.5 303.167,187.5 321.5,187.5C 321.5,188.5 321.5,189.5 321.5,190.5C 303.167,190.5 284.833,190.5 266.5,190.5C 266.5,189.5 266.5,188.5 266.5,187.5 Z"/></g>
<g><path style="opacity:1" fill="#c3c3c3" d="M 249.5,198.5 C 248.167,198.5 246.833,198.5 245.5,198.5C 244.833,198.5 244.5,198.167 244.5,197.5C 246.759,196.656 247.759,194.989 247.5,192.5C 249.749,188.544 251.249,184.211 252,179.5C 253.011,178.663 254.178,178.33 255.5,178.5C 256.852,185.226 259.185,191.559 262.5,197.5C 260.5,198.833 258.5,198.833 256.5,197.5C 257.309,195.929 257.643,194.262 257.5,192.5C 255.143,192.337 252.81,192.503 250.5,193C 249.191,194.751 249.525,196.251 251.5,197.5C 251.043,198.298 250.376,198.631 249.5,198.5 Z"/></g>
<g><path style="opacity:1" fill="#4a6ec6" d="M 215.5,161.5 C 215.168,197.337 215.502,233.004 216.5,268.5C 229.5,269.167 242.5,269.833 255.5,270.5C 241.921,270.823 228.421,270.49 215,269.5C 214.169,233.331 214.336,197.331 215.5,161.5 Z"/></g>
<g><path style="opacity:1" fill="#bdc8e4" d="M 388.5,195.5 C 376.167,195.5 363.833,195.5 351.5,195.5C 351.5,194.167 351.5,192.833 351.5,191.5C 349.5,191.5 347.5,191.5 345.5,191.5C 345.5,190.5 345.5,189.5 345.5,188.5C 356.853,188.168 368.186,188.501 379.5,189.5C 379.291,190.086 378.957,190.586 378.5,191C 381.482,191.498 384.482,191.665 387.5,191.5C 387.433,192.959 387.766,194.292 388.5,195.5 Z"/></g>
<g><path style="opacity:1" fill="#efae90" d="M 89.5,195.5 C 90.1667,195.5 90.8333,195.5 91.5,195.5C 91.7845,197.415 91.4511,199.081 90.5,200.5C 90.1667,200.5 89.8333,200.5 89.5,200.5C 86.9521,198.704 86.9521,197.038 89.5,195.5 Z"/></g>
<g><path style="opacity:1" fill="#e5e5e5" d="M 266.5,196.5 C 284.833,196.5 303.167,196.5 321.5,196.5C 321.5,197.5 321.5,198.5 321.5,199.5C 303.167,199.5 284.833,199.5 266.5,199.5C 266.5,198.5 266.5,197.5 266.5,196.5 Z"/></g>
<g><path style="opacity:1" fill="#afc1f3" d="M 351.5,195.5 C 363.833,195.5 376.167,195.5 388.5,195.5C 388.389,196.117 388.056,196.617 387.5,197C 373.488,197.833 359.488,197.666 345.5,196.5C 347.396,195.534 349.396,195.201 351.5,195.5 Z"/></g>
<g><path style="opacity:1" fill="#8a8a8a" d="M 245.5,198.5 C 246.833,198.5 248.167,198.5 249.5,198.5C 250.794,200.328 251.794,202.328 252.5,204.5C 249.167,204.5 245.833,204.5 242.5,204.5C 242.5,203.5 242.5,202.5 242.5,201.5C 243.5,201.5 244.5,201.5 245.5,201.5C 245.5,200.5 245.5,199.5 245.5,198.5 Z"/></g>
<g><path style="opacity:1" fill="#d9517c" d="M 144.5,191.5 C 146.965,199.85 148.298,208.517 148.5,217.5C 143.172,217.832 137.838,218.166 132.5,218.5C 127.999,218.619 123.665,217.952 119.5,216.5C 119.473,210.574 120.14,204.74 121.5,199C 121.494,196.967 121.161,195.134 120.5,193.5C 122.168,191.521 122.834,189.188 122.5,186.5C 123.5,186.5 124.5,186.5 125.5,186.5C 126.363,192.52 126.363,198.52 125.5,204.5C 125.79,206.044 126.456,207.377 127.5,208.5C 126.675,209.386 125.675,209.719 124.5,209.5C 124.5,210.5 124.5,211.5 124.5,212.5C 127.572,213.495 130.572,214.662 133.5,216C 136.817,216.498 140.15,216.665 143.5,216.5C 143.5,215.5 143.5,214.5 143.5,213.5C 144.5,213.5 145.5,213.5 146.5,213.5C 146.753,211.173 146.086,209.173 144.5,207.5C 145.182,202.219 145.182,196.886 144.5,191.5 Z"/></g>
<g><path style="opacity:1" fill="#e8e8e8" d="M 266.5,204.5 C 284.833,204.5 303.167,204.5 321.5,204.5C 321.5,205.833 321.5,207.167 321.5,208.5C 303.167,208.5 284.833,208.5 266.5,208.5C 266.5,207.167 266.5,205.833 266.5,204.5 Z"/></g>
<g><path style="opacity:1" fill="#2c2b55" d="M 98.5,155.5 C 99.8333,155.5 101.167,155.5 102.5,155.5C 102.5,169.167 102.5,182.833 102.5,196.5C 102.5,198.167 102.5,199.833 102.5,201.5C 102.5,217.167 102.5,232.833 102.5,248.5C 101.178,248.33 100.011,248.663 99,249.5C 98.5,218.168 98.3334,186.835 98.5,155.5 Z"/></g>
<g><path style="opacity:1" fill="#aec5e2" d="M 344.5,203.5 C 358.833,203.5 373.167,203.5 387.5,203.5C 387.5,211.167 387.5,218.833 387.5,226.5C 373.167,226.5 358.833,226.5 344.5,226.5C 344.868,218.925 344.868,211.259 344.5,203.5 Z"/></g>
<g><path style="opacity:1" fill="#a4aec9" d="M 462.5,135.5 C 462.168,173.337 462.502,211.004 463.5,248.5C 463.715,250.179 463.048,251.179 461.5,251.5C 461.5,214.167 461.5,176.833 461.5,139.5C 461.232,137.901 461.566,136.568 462.5,135.5 Z"/></g>
<g><path style="opacity:1" fill="#f682af" d="M 359.5,207.5 C 364.179,207.334 368.845,207.501 373.5,208C 374,208.5 374.5,209 375,209.5C 378.184,218.802 375.017,222.802 365.5,221.5C 362.41,221.478 359.743,220.812 357.5,219.5C 356.99,215.187 357.657,211.187 359.5,207.5 Z"/></g>
<g><path style="opacity:1" fill="#e5e5e6" d="M 226.5,213.5 C 258.167,213.5 289.833,213.5 321.5,213.5C 321.5,214.5 321.5,215.5 321.5,216.5C 289.833,216.5 258.167,216.5 226.5,216.5C 226.5,215.5 226.5,214.5 226.5,213.5 Z"/></g>
<g><path style="opacity:1" fill="#f4e7ee" d="M 362.5,210.5 C 363.802,211.807 365.135,211.807 366.5,210.5C 371.611,215.499 370.278,218.165 362.5,218.5C 362.5,215.833 362.5,213.167 362.5,210.5 Z"/></g>
<g><path style="opacity:1" fill="#d89bc1" d="M 359.5,207.5 C 357.657,211.187 356.99,215.187 357.5,219.5C 356.883,219.389 356.383,219.056 356,218.5C 355.333,215.833 355.333,213.167 356,210.5C 356.422,208.574 357.589,207.574 359.5,207.5 Z"/></g>
<g><path style="opacity:1" fill="#e4e4e5" d="M 226.5,222.5 C 258.167,222.5 289.833,222.5 321.5,222.5C 321.5,223.5 321.5,224.5 321.5,225.5C 289.833,225.5 258.167,225.5 226.5,225.5C 226.5,224.5 226.5,223.5 226.5,222.5 Z"/></g>
<g><path style="opacity:1" fill="#e7e7e7" d="M 226.5,230.5 C 258.167,230.5 289.833,230.5 321.5,230.5C 321.5,231.833 321.5,233.167 321.5,234.5C 289.833,234.5 258.167,234.5 226.5,234.5C 226.5,233.167 226.5,231.833 226.5,230.5 Z"/></g>
<g><path style="opacity:1" fill="#4d4b73" d="M 98.5,155.5 C 98.3334,186.835 98.5,218.168 99,249.5C 100.011,248.663 101.178,248.33 102.5,248.5C 102.5,253.5 102.5,258.5 102.5,263.5C 101.292,262.766 99.9587,262.433 98.5,262.5C 98.5,270.5 98.5,278.5 98.5,286.5C 95.8333,286.5 93.1667,286.5 90.5,286.5C 90.5,257.833 90.5,229.167 90.5,200.5C 91.4511,199.081 91.7845,197.415 91.5,195.5C 90.5192,182.246 90.1858,168.913 90.5,155.5C 93.1667,155.5 95.8333,155.5 98.5,155.5 Z"/></g>
<g><path style="opacity:1" fill="#814647" d="M 485.5,246.5 C 482.127,248.963 478.461,249.963 474.5,249.5C 473.676,252.785 473.176,256.118 473,259.5C 472.617,260.056 472.117,260.389 471.5,260.5C 470.292,261.234 468.959,261.567 467.5,261.5C 465.5,260.167 463.5,258.833 461.5,257.5C 460.167,255.5 460.167,253.5 461.5,251.5C 463.048,251.179 463.715,250.179 463.5,248.5C 464.99,246.72 466.99,246.054 469.5,246.5C 469.965,242.371 472.299,240.371 476.5,240.5C 481.08,240.281 484.08,242.281 485.5,246.5 Z"/></g>
<g><path style="opacity:1" fill="#cdac8f" d="M 119.5,216.5 C 123.665,217.952 127.999,218.619 132.5,218.5C 137.838,218.166 143.172,217.832 148.5,217.5C 147.978,224.988 147.311,232.322 146.5,239.5C 146.828,234.125 146.495,228.792 145.5,223.5C 144.808,226.145 143.808,228.645 142.5,231C 139.905,231.226 137.405,231.726 135,232.5C 134.386,234.313 134.719,234.647 136,233.5C 136.167,234 136.333,234.5 136.5,235C 135.375,236.963 134.041,238.796 132.5,240.5C 133.309,242.071 133.643,243.738 133.5,245.5C 130.857,254.89 129.023,264.556 128,274.5C 126.631,286.635 125.464,298.635 124.5,310.5C 122.393,309.532 120.059,309.198 117.5,309.5C 117.811,308.522 118.478,307.855 119.5,307.5C 119.833,300.667 120.167,293.833 120.5,287C 119.773,263.505 119.44,240.005 119.5,216.5 Z"/></g>
<g><path style="opacity:1" fill="#b78f6e" d="M 146.5,239.5 C 144.708,261.793 143.708,284.127 143.5,306.5C 148.101,306.401 152.435,307.401 156.5,309.5C 150.537,310.496 144.537,310.829 138.5,310.5C 137.771,288.755 136.105,267.089 133.5,245.5C 133.643,243.738 133.309,242.071 132.5,240.5C 134.041,238.796 135.375,236.963 136.5,235C 136.333,234.5 136.167,234 136,233.5C 134.719,234.647 134.386,234.313 135,232.5C 137.405,231.726 139.905,231.226 142.5,231C 143.808,228.645 144.808,226.145 145.5,223.5C 146.495,228.792 146.828,234.125 146.5,239.5 Z"/></g>
<g><path style="opacity:1" fill="#476dd0" d="M 339.5,274.5 C 315.831,274.667 292.164,274.5 268.5,274C 269.252,273.329 269.586,272.496 269.5,271.5C 269.5,271.167 269.5,270.833 269.5,270.5C 290.598,269.844 311.598,269.177 332.5,268.5C 333.492,260.684 333.826,252.684 333.5,244.5C 355.51,244.167 377.51,244.5 399.5,245.5C 391.521,246.332 383.521,246.832 375.5,247C 369.661,251.675 363.995,256.509 358.5,261.5C 351.509,265.139 345.175,269.473 339.5,274.5 Z"/></g>
<g><path style="opacity:1" fill="#f8beaf" d="M 485.5,246.5 C 485.017,253.393 481.684,258.227 475.5,261C 476.056,261.383 476.389,261.883 476.5,262.5C 474.557,264.448 472.89,263.782 471.5,260.5C 472.117,260.389 472.617,260.056 473,259.5C 473.176,256.118 473.676,252.785 474.5,249.5C 478.461,249.963 482.127,248.963 485.5,246.5 Z"/></g>
<g><path style="opacity:1" fill="#905352" d="M 270.5,268.5 C 270.167,268.5 269.833,268.5 269.5,268.5C 265.939,266.952 262.606,264.952 259.5,262.5C 257.931,263.714 257.098,265.381 257,267.5C 256.722,266.584 256.222,265.918 255.5,265.5C 255.178,261.65 256.511,258.483 259.5,256C 268.569,255.272 272.236,259.439 270.5,268.5 Z"/></g>
<g><path style="opacity:1" fill="#9897af" d="M 89.5,200.5 C 89.8333,200.5 90.1667,200.5 90.5,200.5C 90.5,229.167 90.5,257.833 90.5,286.5C 93.1667,286.5 95.8333,286.5 98.5,286.5C 99.8333,286.5 101.167,286.5 102.5,286.5C 102.5,278.833 102.5,271.167 102.5,263.5C 102.5,258.5 102.5,253.5 102.5,248.5C 102.5,232.833 102.5,217.167 102.5,201.5C 103.167,201.5 103.5,201.833 103.5,202.5C 103.5,230.833 103.5,259.167 103.5,287.5C 98.8333,287.5 94.1667,287.5 89.5,287.5C 89.5,258.5 89.5,229.5 89.5,200.5 Z"/></g>
<g><path style="opacity:1" fill="#6e80ba" d="M 216.5,268.5 C 229.5,268.5 242.5,268.5 255.5,268.5C 256.404,269.209 256.737,270.209 256.5,271.5C 255.833,271.5 255.5,271.167 255.5,270.5C 242.5,269.833 229.5,269.167 216.5,268.5 Z"/></g>
<g><path style="opacity:1" fill="#f4bbaa" d="M 269.5,268.5 C 269.5,269.167 269.5,269.833 269.5,270.5C 269.5,270.833 269.5,271.167 269.5,271.5C 268.094,271.973 267.427,272.973 267.5,274.5C 266.022,275.97 264.689,277.637 263.5,279.5C 261.483,277.716 259.816,275.716 258.5,273.5C 258.167,272.5 257.5,271.833 256.5,271.5C 256.737,270.209 256.404,269.209 255.5,268.5C 255.5,267.5 255.5,266.5 255.5,265.5C 256.222,265.918 256.722,266.584 257,267.5C 257.098,265.381 257.931,263.714 259.5,262.5C 262.606,264.952 265.939,266.952 269.5,268.5 Z"/></g>
<g><path style="opacity:1" fill="#7082bc" d="M 269.5,268.5 C 269.833,268.5 270.167,268.5 270.5,268.5C 291.167,268.5 311.833,268.5 332.5,268.5C 311.598,269.177 290.598,269.844 269.5,270.5C 269.5,269.833 269.5,269.167 269.5,268.5 Z"/></g>
<g><path style="opacity:1" fill="#f46798" d="M 471.5,260.5 C 472.89,263.782 474.557,264.448 476.5,262.5C 477.309,264.292 477.809,266.292 478,268.5C 480.892,270.769 481.725,273.436 480.5,276.5C 479.853,277.274 479.52,278.274 479.5,279.5C 480.478,281.777 481.145,284.11 481.5,286.5C 478.881,286.768 476.381,286.435 474,285.5C 470.733,277.738 468.567,269.738 467.5,261.5C 468.959,261.567 470.292,261.234 471.5,260.5 Z"/></g>
<g><path style="opacity:1" fill="#2d2b55" d="M 102.5,263.5 C 102.5,271.167 102.5,278.833 102.5,286.5C 101.167,286.5 99.8333,286.5 98.5,286.5C 98.5,278.5 98.5,270.5 98.5,262.5C 99.9587,262.433 101.292,262.766 102.5,263.5 Z"/></g>
<g><path style="opacity:1" fill="#3656a4" d="M 269.5,271.5 C 269.586,272.496 269.252,273.329 268.5,274C 292.164,274.5 315.831,274.667 339.5,274.5C 375.5,274.5 411.5,274.5 447.5,274.5C 387.669,275.499 327.669,275.832 267.5,275.5C 267.5,275.167 267.5,274.833 267.5,274.5C 267.427,272.973 268.094,271.973 269.5,271.5 Z"/></g>
<g><path style="opacity:1" fill="#f6c0b0" d="M 537.5,302.5 C 536.432,303.434 535.099,303.768 533.5,303.5C 532.167,303.5 530.833,303.5 529.5,303.5C 528.164,298.523 525.498,294.189 521.5,290.5C 520.253,287.671 518.753,285.005 517,282.5C 515.989,281.663 514.822,281.33 513.5,281.5C 513.5,282.5 513.5,283.5 513.5,284.5C 512.262,283.588 510.928,283.421 509.5,284C 508.393,286.928 506.726,289.428 504.5,291.5C 501.381,289.39 499.048,286.723 497.5,283.5C 495.053,283.615 493.053,284.615 491.5,286.5C 491.737,285.209 491.404,284.209 490.5,283.5C 490.5,282.833 490.5,282.167 490.5,281.5C 492.175,279.998 494.008,278.665 496,277.5C 498.647,278.464 501.147,277.964 503.5,276C 504.977,273.555 506.81,271.388 509,269.5C 509.617,270.449 509.451,271.282 508.5,272C 512.425,272.063 515.925,273.229 519,275.5C 524.722,284.899 530.888,293.899 537.5,302.5 Z"/></g>
<g><path style="opacity:1" fill="#a1b4cc" d="M 480.5,276.5 C 481.663,282.268 484.996,283.934 490.5,281.5C 490.5,282.167 490.5,282.833 490.5,283.5C 487.452,284.346 484.452,285.346 481.5,286.5C 481.145,284.11 480.478,281.777 479.5,279.5C 479.52,278.274 479.853,277.274 480.5,276.5 Z"/></g>
<g><path style="opacity:1" fill="#2c4380" d="M 461.5,139.5 C 461.5,176.833 461.5,214.167 461.5,251.5C 460.167,253.5 460.167,255.5 461.5,257.5C 461.5,262.833 461.5,268.167 461.5,273.5C 461.5,277.5 461.5,281.5 461.5,285.5C 461.5,286.167 461.167,286.5 460.5,286.5C 400.999,286.483 341.332,286.483 281.5,286.5C 279.452,283.785 277.118,281.452 274.5,279.5C 274.5,278.5 274.5,277.5 274.5,276.5C 271.941,276.802 269.607,276.468 267.5,275.5C 327.669,275.832 387.669,275.499 447.5,274.5C 449.384,274.288 450.717,273.288 451.5,271.5C 452.667,238.172 452.833,204.838 452,171.5C 451.005,170.934 450.172,170.267 449.5,169.5C 451.5,169.5 453.5,169.5 455.5,169.5C 455.5,167.167 455.5,164.833 455.5,162.5C 456.768,154.56 458.768,146.893 461.5,139.5 Z"/></g>
<g><path style="opacity:1" fill="#425895" d="M 460.5,286.5 C 401.336,287.499 342.002,287.832 282.5,287.5C 282.167,287.5 281.833,287.5 281.5,287.5C 281.5,287.167 281.5,286.833 281.5,286.5C 341.332,286.483 400.999,286.483 460.5,286.5 Z"/></g>
<g><path style="opacity:1" fill="#c2d3e9" d="M 461.5,285.5 C 461.833,285.5 462.167,285.5 462.5,285.5C 462.683,292.868 462.35,300.201 461.5,307.5C 406.542,308.492 351.542,308.825 296.5,308.5C 295.942,307.21 294.942,306.377 293.5,306C 290.183,305.502 286.85,305.335 283.5,305.5C 283.697,299.455 283.363,293.455 282.5,287.5C 342.002,287.832 401.336,287.499 460.5,286.5C 461.167,286.5 461.5,286.167 461.5,285.5 Z"/></g>
<g><path style="opacity:1" fill="#e5dde0" d="M 461.5,257.5 C 463.5,258.833 465.5,260.167 467.5,261.5C 468.567,269.738 470.733,277.738 474,285.5C 476.381,286.435 478.881,286.768 481.5,286.5C 484.452,285.346 487.452,284.346 490.5,283.5C 491.404,284.209 491.737,285.209 491.5,286.5C 488.304,287.929 485.304,289.595 482.5,291.5C 476.56,293.874 471.727,292.541 468,287.5C 466.075,282.653 463.908,277.987 461.5,273.5C 461.5,268.167 461.5,262.833 461.5,257.5 Z"/></g>
<g><path style="opacity:1" fill="#524f79" d="M 258.5,273.5 C 259.816,275.716 261.483,277.716 263.5,279.5C 264.689,277.637 266.022,275.97 267.5,274.5C 267.5,274.833 267.5,275.167 267.5,275.5C 269.607,276.468 271.941,276.802 274.5,276.5C 274.5,277.5 274.5,278.5 274.5,279.5C 273.503,279.47 272.836,279.97 272.5,281C 273.062,284.654 273.729,288.154 274.5,291.5C 274.5,293.167 274.5,294.833 274.5,296.5C 266.833,296.5 259.167,296.5 251.5,296.5C 251.5,295.5 251.5,294.5 251.5,293.5C 252.816,288.717 253.149,284.051 252.5,279.5C 254.96,277.934 256.96,276.6 258.5,275.5C 258.5,274.833 258.5,274.167 258.5,273.5 Z"/></g>
<g><path style="opacity:1" fill="#f25d97" d="M 274.5,279.5 C 277.118,281.452 279.452,283.785 281.5,286.5C 281.5,286.833 281.5,287.167 281.5,287.5C 281.833,291.833 279.833,293.833 275.5,293.5C 275.672,292.508 275.338,291.842 274.5,291.5C 273.729,288.154 273.062,284.654 272.5,281C 272.836,279.97 273.503,279.47 274.5,279.5 Z"/></g>
<g><path style="opacity:1" fill="#f26098" d="M 252.5,279.5 C 253.149,284.051 252.816,288.717 251.5,293.5C 250.833,293.5 250.167,293.5 249.5,293.5C 247.589,292.925 245.922,291.925 244.5,290.5C 244.5,289.5 244.5,288.5 244.5,287.5C 246.361,284.978 248.361,282.478 250.5,280C 251.094,279.536 251.761,279.369 252.5,279.5 Z"/></g>
<g><path style="opacity:1" fill="#f8ab85" d="M 529.5,303.5 C 528.167,303.5 526.833,303.5 525.5,303.5C 525.66,301.801 525.494,300.134 525,298.5C 521.68,293.353 517.847,288.686 513.5,284.5C 513.5,283.5 513.5,282.5 513.5,281.5C 514.822,281.33 515.989,281.663 517,282.5C 518.753,285.005 520.253,287.671 521.5,290.5C 525.498,294.189 528.164,298.523 529.5,303.5 Z"/></g>
<g><path style="opacity:1" fill="#e3668e" d="M 461.5,273.5 C 463.908,277.987 466.075,282.653 468,287.5C 471.727,292.541 476.56,293.874 482.5,291.5C 480.162,296.163 476.495,299.163 471.5,300.5C 468.185,295.204 465.352,289.538 463,283.5C 462.536,284.094 462.369,284.761 462.5,285.5C 462.167,285.5 461.833,285.5 461.5,285.5C 461.5,281.5 461.5,277.5 461.5,273.5 Z"/></g>
<g><path style="opacity:1" fill="#fba3bf" d="M 90.5,290.5 C 94.6344,289.515 98.9677,289.182 103.5,289.5C 103.824,296.354 103.491,303.021 102.5,309.5C 102.5,303.167 102.5,296.833 102.5,290.5C 98.5,290.5 94.5,290.5 90.5,290.5 Z"/></g>
<g><path style="opacity:1" fill="#2e2c57" d="M 504.5,291.5 C 499.827,302.029 491.827,307.529 480.5,308C 476.725,306.389 473.725,303.889 471.5,300.5C 476.495,299.163 480.162,296.163 482.5,291.5C 485.304,289.595 488.304,287.929 491.5,286.5C 493.053,284.615 495.053,283.615 497.5,283.5C 499.048,286.723 501.381,289.39 504.5,291.5 Z"/></g>
<g><path style="opacity:1" fill="#a4a5bb" d="M 274.5,291.5 C 275.338,291.842 275.672,292.508 275.5,293.5C 275.5,293.833 275.5,294.167 275.5,294.5C 275.508,297.545 275.841,300.545 276.5,303.5C 275.833,304.833 275.167,306.167 274.5,307.5C 274.5,306.167 274.5,304.833 274.5,303.5C 274.5,301.5 274.5,299.5 274.5,297.5C 267.167,297.5 259.833,297.5 252.5,297.5C 252.5,299.833 252.5,302.167 252.5,304.5C 251.504,304.586 250.671,304.252 250,303.5C 249.502,300.183 249.335,296.85 249.5,293.5C 250.167,293.5 250.833,293.5 251.5,293.5C 251.5,294.5 251.5,295.5 251.5,296.5C 259.167,296.5 266.833,296.5 274.5,296.5C 274.5,294.833 274.5,293.167 274.5,291.5 Z"/></g>
<g><path style="opacity:1" fill="#f8bba7" d="M 281.5,287.5 C 281.833,287.5 282.167,287.5 282.5,287.5C 283.363,293.455 283.697,299.455 283.5,305.5C 281.883,306.038 280.216,306.371 278.5,306.5C 278.511,304.453 278.844,302.453 279.5,300.5C 278.421,298.214 277.087,296.214 275.5,294.5C 275.5,294.167 275.5,293.833 275.5,293.5C 279.833,293.833 281.833,291.833 281.5,287.5 Z"/></g>
<g><path style="opacity:1" fill="#f6c0af" d="M 244.5,290.5 C 245.922,291.925 247.589,292.925 249.5,293.5C 249.335,296.85 249.502,300.183 250,303.5C 250.671,304.252 251.504,304.586 252.5,304.5C 252.5,305.833 252.5,307.167 252.5,308.5C 249.993,307.108 247.327,306.108 244.5,305.5C 243.249,300.369 243.249,295.369 244.5,290.5 Z"/></g>
<g><path style="opacity:1" fill="#f0f0f0" d="M 274.5,303.5 C 270.154,303.334 265.821,303.501 261.5,304C 259.425,305.568 257.425,307.068 255.5,308.5C 254.5,308.5 253.5,308.5 252.5,308.5C 252.5,307.167 252.5,305.833 252.5,304.5C 252.5,302.167 252.5,299.833 252.5,297.5C 259.833,297.5 267.167,297.5 274.5,297.5C 274.5,299.5 274.5,301.5 274.5,303.5 Z"/></g>
<g><path style="opacity:1" fill="#ad9faf" d="M 537.5,302.5 C 539.099,302.232 540.432,302.566 541.5,303.5C 538.672,304.497 536.005,304.497 533.5,303.5C 535.099,303.768 536.432,303.434 537.5,302.5 Z"/></g>
<g><path style="opacity:1" fill="#ee5080" d="M 90.5,290.5 C 94.5,290.5 98.5,290.5 102.5,290.5C 102.5,296.833 102.5,303.167 102.5,309.5C 102.389,310.117 102.056,310.617 101.5,311C 99.8333,311.167 98.1667,311.333 96.5,311.5C 93.9886,311.712 91.8219,311.045 90,309.5C 89.18,302.986 89.3467,296.653 90.5,290.5 Z"/></g>
<g><path style="opacity:1" fill="#e1c3c6" d="M 275.5,294.5 C 277.087,296.214 278.421,298.214 279.5,300.5C 278.844,302.453 278.511,304.453 278.5,306.5C 278.44,307.043 278.107,307.376 277.5,307.5C 276.571,306.311 276.238,304.978 276.5,303.5C 275.841,300.545 275.508,297.545 275.5,294.5 Z"/></g>
<g><path style="opacity:1" fill="#3d3a70" d="M 525.5,303.5 C 526.833,303.5 528.167,303.5 529.5,303.5C 530.833,303.5 532.167,303.5 533.5,303.5C 536.005,304.497 538.672,304.497 541.5,303.5C 544.707,304.179 547.707,305.346 550.5,307C 542.173,307.5 533.84,307.666 525.5,307.5C 525.5,306.167 525.5,304.833 525.5,303.5 Z"/></g>
<g><path style="opacity:1" fill="#d1e2eb" d="M 274.5,303.5 C 274.5,304.833 274.5,306.167 274.5,307.5C 270.939,309.3 267.106,310.633 263,311.5C 260.133,311.161 257.633,310.161 255.5,308.5C 257.425,307.068 259.425,305.568 261.5,304C 265.821,303.501 270.154,303.334 274.5,303.5 Z"/></g>
<g><path style="opacity:1" fill="#634539" d="M 244.5,305.5 C 247.327,306.108 249.993,307.108 252.5,308.5C 253.263,310.567 254.596,312.234 256.5,313.5C 253.225,315.826 249.559,317.159 245.5,317.5C 243.302,317.125 241.302,316.458 239.5,315.5C 243.194,313.981 246.86,313.314 250.5,313.5C 247.696,310.448 244.363,308.115 240.5,306.5C 239.833,307.167 239.167,307.833 238.5,308.5C 237.304,308.154 237.304,307.654 238.5,307C 233.662,305.672 231.329,307.506 231.5,312.5C 230.058,310.183 230.392,308.016 232.5,306C 236.486,305.501 240.486,305.334 244.5,305.5 Z"/></g>
<g><path style="opacity:1" fill="#4a2918" d="M 239.5,315.5 C 236.284,315.655 233.617,314.655 231.5,312.5C 231.329,307.506 233.662,305.672 238.5,307C 237.304,307.654 237.304,308.154 238.5,308.5C 239.167,307.833 239.833,307.167 240.5,306.5C 244.363,308.115 247.696,310.448 250.5,313.5C 246.86,313.314 243.194,313.981 239.5,315.5 Z"/></g>
<g><path style="opacity:1" fill="#905454" d="M 276.5,303.5 C 276.238,304.978 276.571,306.311 277.5,307.5C 278.107,307.376 278.44,307.043 278.5,306.5C 280.216,306.371 281.883,306.038 283.5,305.5C 286.85,305.335 290.183,305.502 293.5,306C 294.942,306.377 295.942,307.21 296.5,308.5C 296.5,309.5 296.5,310.5 296.5,311.5C 292.786,314.071 288.786,316.071 284.5,317.5C 283.828,318.267 282.995,318.934 282,319.5C 281.196,318.196 280.029,317.529 278.5,317.5C 273.696,318.51 269.029,319.51 264.5,320.5C 258.171,320.9 251.838,321.233 245.5,321.5C 245.5,320.167 245.5,318.833 245.5,317.5C 249.559,317.159 253.225,315.826 256.5,313.5C 254.596,312.234 253.263,310.567 252.5,308.5C 253.5,308.5 254.5,308.5 255.5,308.5C 257.633,310.161 260.133,311.161 263,311.5C 267.106,310.633 270.939,309.3 274.5,307.5C 275.167,306.167 275.833,304.833 276.5,303.5 Z"/></g>
<g><path style="opacity:1" fill="#5f493c" d="M 117.5,309.5 C 120.059,309.198 122.393,309.532 124.5,310.5C 121.976,311.8 119.309,311.8 116.5,310.5C 116.624,309.893 116.957,309.56 117.5,309.5 Z"/></g>
<g><path style="opacity:1" fill="#c7d6e9" d="M 196.5,286.5 C 212.422,287.484 228.422,287.817 244.5,287.5C 244.5,288.5 244.5,289.5 244.5,290.5C 243.249,295.369 243.249,300.369 244.5,305.5C 240.486,305.334 236.486,305.501 232.5,306C 230.392,308.016 230.058,310.183 231.5,312.5C 233.617,314.655 236.284,315.655 239.5,315.5C 241.302,316.458 243.302,317.125 245.5,317.5C 245.5,318.833 245.5,320.167 245.5,321.5C 251.838,321.233 258.171,320.9 264.5,320.5C 274.494,321.428 284.494,321.928 294.5,322C 296.957,320.846 296.957,319.512 294.5,318C 291.183,317.502 287.85,317.335 284.5,317.5C 288.786,316.071 292.786,314.071 296.5,311.5C 302.067,310.954 307.4,311.621 312.5,313.5C 315.131,312.276 317.965,311.609 321,311.5C 324.035,311.609 326.869,312.276 329.5,313.5C 332.131,312.276 334.965,311.609 338,311.5C 341.154,311.651 344.154,312.317 347,313.5C 349.846,312.317 352.846,311.651 356,311.5C 359.035,311.609 361.869,312.276 364.5,313.5C 367.131,312.276 369.965,311.609 373,311.5C 376.035,311.609 378.869,312.276 381.5,313.5C 384.131,312.276 386.965,311.609 390,311.5C 393.035,311.609 395.869,312.276 398.5,313.5C 401.131,312.276 403.965,311.609 407,311.5C 410.154,311.651 413.154,312.317 416,313.5C 417.722,313.389 417.888,312.889 416.5,312C 425.053,311.975 433.553,311.808 442,311.5C 445.629,311.781 449.129,312.447 452.5,313.5C 452.5,314.833 452.5,316.167 452.5,317.5C 454.783,317.608 456.783,318.441 458.5,320C 461.317,323.318 464.317,326.485 467.5,329.5C 461.872,330.495 456.206,330.829 450.5,330.5C 450.325,333.329 451.658,334.996 454.5,335.5C 448.863,336.663 443.196,336.83 437.5,336C 436.956,335.283 436.289,334.783 435.5,334.5C 434.859,333.518 434.193,332.518 433.5,331.5C 429.217,330.508 424.884,330.174 420.5,330.5C 421.108,325.056 420.442,320.056 418.5,315.5C 398.167,315.5 377.833,315.5 357.5,315.5C 356.5,315.5 355.5,315.5 354.5,315.5C 353.833,315.5 353.5,315.833 353.5,316.5C 352.127,316.343 350.793,316.51 349.5,317C 348.154,318.669 346.487,319.836 344.5,320.5C 341.833,321.5 341.833,322.5 344.5,323.5C 347.661,324.913 350.661,326.58 353.5,328.5C 357.97,329.486 362.637,329.819 367.5,329.5C 367.357,331.262 367.691,332.929 368.5,334.5C 336.174,335.5 303.84,335.833 271.5,335.5C 272.692,332.282 274.025,329.115 275.5,326C 274.207,325.51 272.873,325.343 271.5,325.5C 271.494,328.85 270.494,331.85 268.5,334.5C 261.532,335.497 254.532,335.83 247.5,335.5C 247.286,333.856 247.62,332.356 248.5,331C 247.207,330.51 245.873,330.343 244.5,330.5C 244.725,332.716 243.892,334.383 242,335.5C 241.333,334.833 240.667,334.167 240,333.5C 238.62,336.058 237.12,336.058 235.5,333.5C 232.775,335.429 229.775,335.929 226.5,335C 227.5,334 228.5,333 229.5,332C 232.882,331.824 236.215,331.324 239.5,330.5C 236.833,329.167 236.833,327.833 239.5,326.5C 235.878,325.675 232.211,325.175 228.5,325C 229.691,324.302 230.691,323.469 231.5,322.5C 235.842,322.261 240.176,321.927 244.5,321.5C 244.5,320.5 244.5,319.5 244.5,318.5C 240.12,317.305 235.787,317.305 231.5,318.5C 231.083,317.876 230.416,317.543 229.5,317.5C 227.936,318.769 226.269,319.936 224.5,321C 229.52,322.748 229.186,324.415 223.5,326C 235.339,327.511 235.339,329.011 223.5,330.5C 223.768,332.099 223.434,333.432 222.5,334.5C 222.5,333.5 222.5,332.5 222.5,331.5C 221.936,325.426 218.603,321.592 212.5,320C 209.183,319.502 205.85,319.335 202.5,319.5C 208.215,311.772 215.882,309.272 225.5,312C 224.271,313.529 222.771,314.696 221,315.5C 220.409,316.483 220.743,317.15 222,317.5C 224.005,315.495 226.005,313.495 228,311.5C 228.333,311.833 228.667,312.167 229,312.5C 229.49,311.207 229.657,309.873 229.5,308.5C 218.449,308.789 207.449,308.455 196.5,307.5C 196.5,300.5 196.5,293.5 196.5,286.5 Z"/></g>
<g><path style="opacity:1" fill="#e0e8f4" d="M 196.5,307.5 C 207.449,308.455 218.449,308.789 229.5,308.5C 229.657,309.873 229.49,311.207 229,312.5C 228.667,312.167 228.333,311.833 228,311.5C 226.005,313.495 224.005,315.495 222,317.5C 220.743,317.15 220.409,316.483 221,315.5C 222.771,314.696 224.271,313.529 225.5,312C 215.882,309.272 208.215,311.772 202.5,319.5C 196.977,319.178 192.477,321.178 189,325.5C 188.503,327.81 188.337,330.143 188.5,332.5C 189.096,334.398 189.096,336.065 188.5,337.5C 181.962,339.436 175.962,342.436 170.5,346.5C 168.806,349.639 169.806,351.639 173.5,352.5C 174.416,352.457 175.083,352.124 175.5,351.5C 182.042,348.918 187.375,344.918 191.5,339.5C 200.566,343.662 209.566,343.495 218.5,339C 220.041,337.629 221.375,336.129 222.5,334.5C 223.434,333.432 223.768,332.099 223.5,330.5C 235.339,329.011 235.339,327.511 223.5,326C 229.186,324.415 229.52,322.748 224.5,321C 226.269,319.936 227.936,318.769 229.5,317.5C 230.416,317.543 231.083,317.876 231.5,318.5C 230.314,319.705 230.314,321.039 231.5,322.5C 230.691,323.469 229.691,324.302 228.5,325C 232.211,325.175 235.878,325.675 239.5,326.5C 236.833,327.833 236.833,329.167 239.5,330.5C 236.215,331.324 232.882,331.824 229.5,332C 228.5,333 227.5,334 226.5,335C 229.775,335.929 232.775,335.429 235.5,333.5C 237.12,336.058 238.62,336.058 240,333.5C 240.667,334.167 241.333,334.833 242,335.5C 243.892,334.383 244.725,332.716 244.5,330.5C 245.873,330.343 247.207,330.51 248.5,331C 247.62,332.356 247.286,333.856 247.5,335.5C 254.532,335.83 261.532,335.497 268.5,334.5C 270.494,331.85 271.494,328.85 271.5,325.5C 272.873,325.343 274.207,325.51 275.5,326C 274.025,329.115 272.692,332.282 271.5,335.5C 273.948,336.473 276.615,336.806 279.5,336.5C 279.863,338.911 278.863,340.411 276.5,341C 276.833,341.333 277.167,341.667 277.5,342C 276.355,345.122 275.355,348.289 274.5,351.5C 270.551,351.693 270.551,352.193 274.5,353C 294.814,354.076 315.147,354.576 335.5,354.5C 351.848,354.499 367.848,353.833 383.5,352.5C 383.5,351.5 383.5,350.5 383.5,349.5C 383.785,347.712 383.452,346.045 382.5,344.5C 378.892,342.492 378.558,339.992 381.5,337C 394.789,335.494 408.123,335.994 421.5,338.5C 424.777,337.746 428.11,337.246 431.5,337C 432.736,335.915 434.069,335.082 435.5,334.5C 436.289,334.783 436.956,335.283 437.5,336C 443.196,336.83 448.863,336.663 454.5,335.5C 451.658,334.996 450.325,333.329 450.5,330.5C 456.206,330.829 461.872,330.495 467.5,329.5C 464.317,326.485 461.317,323.318 458.5,320C 456.783,318.441 454.783,317.608 452.5,317.5C 452.5,316.167 452.5,314.833 452.5,313.5C 449.129,312.447 445.629,311.781 442,311.5C 433.553,311.808 425.053,311.975 416.5,312C 417.888,312.889 417.722,313.389 416,313.5C 413.154,312.317 410.154,311.651 407,311.5C 403.965,311.609 401.131,312.276 398.5,313.5C 395.869,312.276 393.035,311.609 390,311.5C 386.965,311.609 384.131,312.276 381.5,313.5C 378.869,312.276 376.035,311.609 373,311.5C 369.965,311.609 367.131,312.276 364.5,313.5C 361.869,312.276 359.035,311.609 356,311.5C 352.846,311.651 349.846,312.317 347,313.5C 344.154,312.317 341.154,311.651 338,311.5C 334.965,311.609 332.131,312.276 329.5,313.5C 326.869,312.276 324.035,311.609 321,311.5C 317.965,311.609 315.131,312.276 312.5,313.5C 307.4,311.621 302.067,310.954 296.5,311.5C 296.5,310.5 296.5,309.5 296.5,308.5C 351.542,308.825 406.542,308.492 461.5,307.5C 475.003,321.83 489.67,334.997 505.5,347C 509.01,350.343 512.343,353.843 515.5,357.5C 391.5,357.5 267.5,357.5 143.5,357.5C 145.415,354.577 147.749,351.91 150.5,349.5C 166.169,335.83 181.502,321.83 196.5,307.5 Z"/></g>
<g><path style="opacity:1" fill="#7e86a6" d="M 354.5,315.5 C 354.5,318.5 354.5,321.5 354.5,324.5C 354.5,325.833 354.5,327.167 354.5,328.5C 375.833,328.5 397.167,328.5 418.5,328.5C 401.675,329.497 384.675,329.83 367.5,329.5C 362.637,329.819 357.97,329.486 353.5,328.5C 353.5,324.5 353.5,320.5 353.5,316.5C 353.5,315.833 353.833,315.5 354.5,315.5 Z"/></g>
<g><path style="opacity:1" fill="#8fadd5" d="M 202.5,319.5 C 205.85,319.335 209.183,319.502 212.5,320C 218.603,321.592 221.936,325.426 222.5,331.5C 218.388,337.957 212.388,340.624 204.5,339.5C 197.875,339.849 192.542,337.516 188.5,332.5C 188.337,330.143 188.503,327.81 189,325.5C 192.477,321.178 196.977,319.178 202.5,319.5 Z"/></g>
<g><path style="opacity:1" fill="#9accf2" d="M 219.5,329.5 C 219.321,331.606 218.321,333.272 216.5,334.5C 209.217,338.197 201.883,338.364 194.5,335C 191.627,333.439 190.961,331.272 192.5,328.5C 196.328,325.412 200.828,324.078 206,324.5C 211.317,324.08 215.817,325.746 219.5,329.5 Z"/></g>
<g><path style="opacity:1" fill="#2a2a54" d="M 354.5,324.5 C 375.833,324.5 397.167,324.5 418.5,324.5C 418.5,325.833 418.5,327.167 418.5,328.5C 397.167,328.5 375.833,328.5 354.5,328.5C 354.5,327.167 354.5,325.833 354.5,324.5 Z"/></g>
<g><path style="opacity:1" fill="#54608c" d="M 219.5,329.5 C 215.817,325.746 211.317,324.08 206,324.5C 200.828,324.078 196.328,325.412 192.5,328.5C 191.355,327.207 191.689,326.041 193.5,325C 201.456,320.458 209.456,320.458 217.5,325C 219.037,326.11 219.703,327.61 219.5,329.5 Z"/></g>
<g><path style="opacity:1" fill="#0e1e34" d="M 344.5,320.5 C 344.5,321.5 344.5,322.5 344.5,323.5C 341.833,322.5 341.833,321.5 344.5,320.5 Z"/></g>
<g><path style="opacity:1" fill="#e9507f" d="M 421.5,315.5 C 426.844,315.334 432.177,315.501 437.5,316C 438.809,320.136 438.809,324.302 437.5,328.5C 432.208,329.495 426.875,329.828 421.5,329.5C 421.5,324.833 421.5,320.167 421.5,315.5 Z"/></g>
<g><path style="opacity:1" fill="#45446d" d="M 354.5,315.5 C 355.5,315.5 356.5,315.5 357.5,315.5C 357.866,316.695 358.699,317.361 360,317.5C 361.766,316.767 363.599,316.433 365.5,316.5C 365.5,317.5 365.5,318.5 365.5,319.5C 381.503,319.333 397.503,319.5 413.5,320C 414.849,320.772 415.682,321.939 416,323.5C 416.002,320.949 416.836,318.949 418.5,317.5C 418.5,319.833 418.5,322.167 418.5,324.5C 397.167,324.5 375.833,324.5 354.5,324.5C 354.5,321.5 354.5,318.5 354.5,315.5 Z"/></g>
<g><path style="opacity:1" fill="#f9fcfb" d="M 353.5,316.5 C 353.5,320.5 353.5,324.5 353.5,328.5C 350.661,326.58 347.661,324.913 344.5,323.5C 344.5,322.5 344.5,321.5 344.5,320.5C 346.487,319.836 348.154,318.669 349.5,317C 350.793,316.51 352.127,316.343 353.5,316.5 Z"/></g>
<g><path style="opacity:1" fill="#502e21" d="M 284.5,317.5 C 287.85,317.335 291.183,317.502 294.5,318C 296.957,319.512 296.957,320.846 294.5,322C 284.494,321.928 274.494,321.428 264.5,320.5C 269.029,319.51 273.696,318.51 278.5,317.5C 280.029,317.529 281.196,318.196 282,319.5C 282.995,318.934 283.828,318.267 284.5,317.5 Z"/></g>
<g><path style="opacity:1" fill="#513325" d="M 231.5,322.5 C 230.314,321.039 230.314,319.705 231.5,318.5C 235.787,317.305 240.12,317.305 244.5,318.5C 244.5,319.5 244.5,320.5 244.5,321.5C 240.176,321.927 235.842,322.261 231.5,322.5 Z"/></g>
<g><path style="opacity:1" fill="#515079" d="M 357.5,315.5 C 377.833,315.5 398.167,315.5 418.5,315.5C 418.5,316.167 418.5,316.833 418.5,317.5C 416.836,318.949 416.002,320.949 416,323.5C 415.682,321.939 414.849,320.772 413.5,320C 397.503,319.5 381.503,319.333 365.5,319.5C 365.5,318.5 365.5,317.5 365.5,316.5C 363.599,316.433 361.766,316.767 360,317.5C 358.699,317.361 357.866,316.695 357.5,315.5 Z"/></g>
<g><path style="opacity:1" fill="#d7e3f2" d="M 418.5,315.5 C 420.442,320.056 421.108,325.056 420.5,330.5C 424.884,330.174 429.217,330.508 433.5,331.5C 434.193,332.518 434.859,333.518 435.5,334.5C 434.069,335.082 432.736,335.915 431.5,337C 428.11,337.246 424.777,337.746 421.5,338.5C 408.123,335.994 394.789,335.494 381.5,337C 378.558,339.992 378.892,342.492 382.5,344.5C 383.452,346.045 383.785,347.712 383.5,349.5C 381.506,346.302 379.173,343.135 376.5,340C 344.495,339.167 312.495,339.333 280.5,340.5C 278.262,344.303 276.596,348.303 275.5,352.5C 311.5,352.5 347.5,352.5 383.5,352.5C 367.848,353.833 351.848,354.499 335.5,354.5C 315.147,354.576 294.814,354.076 274.5,353C 270.551,352.193 270.551,351.693 274.5,351.5C 275.355,348.289 276.355,345.122 277.5,342C 277.167,341.667 276.833,341.333 276.5,341C 278.863,340.411 279.863,338.911 279.5,336.5C 276.615,336.806 273.948,336.473 271.5,335.5C 303.84,335.833 336.174,335.5 368.5,334.5C 367.691,332.929 367.357,331.262 367.5,329.5C 384.675,329.83 401.675,329.497 418.5,328.5C 418.5,327.167 418.5,325.833 418.5,324.5C 418.5,322.167 418.5,319.833 418.5,317.5C 418.5,316.833 418.5,316.167 418.5,315.5 Z"/></g>
<g><path style="opacity:1" fill="#c2d3e9" d="M 383.5,349.5 C 383.5,350.5 383.5,351.5 383.5,352.5C 347.5,352.5 311.5,352.5 275.5,352.5C 276.596,348.303 278.262,344.303 280.5,340.5C 312.495,339.333 344.495,339.167 376.5,340C 379.173,343.135 381.506,346.302 383.5,349.5 Z"/></g>
<g><path style="opacity:1" fill="#606688" d="M 222.5,331.5 C 222.5,332.5 222.5,333.5 222.5,334.5C 221.375,336.129 220.041,337.629 218.5,339C 209.566,343.495 200.566,343.662 191.5,339.5C 189.821,339.715 188.821,339.048 188.5,337.5C 189.096,336.065 189.096,334.398 188.5,332.5C 192.542,337.516 197.875,339.849 204.5,339.5C 212.388,340.624 218.388,337.957 222.5,331.5 Z"/></g>
<g><path style="opacity:1" fill="#90aed8" d="M 188.5,337.5 C 188.821,339.048 189.821,339.715 191.5,339.5C 187.375,344.918 182.042,348.918 175.5,351.5C 175.5,348.167 173.833,346.5 170.5,346.5C 175.962,342.436 181.962,339.436 188.5,337.5 Z"/></g>
<g><path style="opacity:1" fill="#515478" d="M 170.5,346.5 C 173.833,346.5 175.5,348.167 175.5,351.5C 175.083,352.124 174.416,352.457 173.5,352.5C 169.806,351.639 168.806,349.639 170.5,346.5 Z"/></g>
<g><path style="opacity:1" fill="#aebcdd" d="M 143.5,357.5 C 267.5,357.5 391.5,357.5 515.5,357.5C 515.5,357.833 515.5,358.167 515.5,358.5C 414.833,358.5 314.167,358.5 213.5,358.5C 207.833,358.5 202.167,358.5 196.5,358.5C 178.833,358.5 161.167,358.5 143.5,358.5C 143.5,359.5 143.5,360.5 143.5,361.5C 142.167,360.167 142.167,358.833 143.5,357.5 Z"/></g>
<g><path style="opacity:1" fill="#2b437e" d="M 196.5,358.5 C 195.909,359.151 195.243,359.818 194.5,360.5C 177.513,361.499 160.513,361.833 143.5,361.5C 143.5,360.5 143.5,359.5 143.5,358.5C 161.167,358.5 178.833,358.5 196.5,358.5 Z"/></g>
<g><path style="opacity:1" fill="#2c437e" d="M 213.5,358.5 C 314.167,358.5 414.833,358.5 515.5,358.5C 515.737,359.791 515.404,360.791 514.5,361.5C 413.831,361.833 313.164,361.5 212.5,360.5C 212.863,359.817 213.196,359.15 213.5,358.5 Z"/></g>
<g><path style="opacity:1" fill="#3a4b74" d="M 196.5,358.5 C 202.167,358.5 207.833,358.5 213.5,358.5C 213.196,359.15 212.863,359.817 212.5,360.5C 313.164,361.5 413.831,361.833 514.5,361.5C 390.833,362.833 267.167,362.833 143.5,361.5C 160.513,361.833 177.513,361.499 194.5,360.5C 195.243,359.818 195.909,359.151 196.5,358.5 Z"/></g>
</svg>
