<?xml version="1.0" encoding="UTF-8"?>
<!DOCTYPE svg PUBLIC "-//W3C//DTD SVG 1.1//EN" "http://www.w3.org/Graphics/SVG/1.1/DTD/svg11.dtd">
<svg xmlns="http://www.w3.org/2000/svg" version="1.1" width="32px" height="32px" style="shape-rendering:geometricPrecision; text-rendering:geometricPrecision; image-rendering:optimizeQuality; fill-rule:evenodd; clip-rule:evenodd" xmlns:xlink="http://www.w3.org/1999/xlink">
<g><path style="opacity:0.802" fill="#161515" d="M 9.5,-0.5 C 13.5,-0.5 17.5,-0.5 21.5,-0.5C 25.8333,1.83333 29.1667,5.16667 31.5,9.5C 31.5,13.5 31.5,17.5 31.5,21.5C 29.0759,27.2574 24.7426,30.2574 18.5,30.5C 18.7261,27.7508 18.3928,25.0841 17.5,22.5C 21.9405,21.8929 24.6072,19.3929 25.5,15C 24.1638,12.322 23.3304,9.48866 23,6.5C 21.8061,7.43026 20.4728,8.09693 19,8.5C 16.6667,7.16667 14.3333,7.16667 12,8.5C 10.5272,8.09693 9.19386,7.43026 8,6.5C 7.26296,9.91743 6.59629,13.2508 6,16.5C 7.23589,20.0396 9.73589,22.0396 13.5,22.5C 12.2451,24.7802 10.2451,25.9468 7.5,26C 9.13414,26.4935 10.8008,26.6602 12.5,26.5C 12.5,27.8333 12.5,29.1667 12.5,30.5C 6.25741,30.2574 1.92408,27.2574 -0.5,21.5C -0.5,17.5 -0.5,13.5 -0.5,9.5C 1.83333,5.16667 5.16667,1.83333 9.5,-0.5 Z"/></g>
</svg>
