<?xml version="1.0" encoding="UTF-8"?>
<!DOCTYPE svg PUBLIC "-//W3C//DTD SVG 1.1//EN" "http://www.w3.org/Graphics/SVG/1.1/DTD/svg11.dtd">
<svg xmlns="http://www.w3.org/2000/svg" version="1.1" width="64px" height="64px" style="shape-rendering:geometricPrecision; text-rendering:geometricPrecision; image-rendering:optimizeQuality; fill-rule:evenodd; clip-rule:evenodd" xmlns:xlink="http://www.w3.org/1999/xlink">
<g><path style="opacity:0.894" fill="#161515" d="M 23.5,-0.5 C 28.8333,-0.5 34.1667,-0.5 39.5,-0.5C 51.8333,3.16667 59.8333,11.1667 63.5,23.5C 63.5,28.8333 63.5,34.1667 63.5,39.5C 60.2605,49.2488 53.9272,56.4154 44.5,61C 42.5594,61.7429 40.7261,61.5762 39,60.5C 38.6667,56.1667 38.3333,51.8333 38,47.5C 37.3076,46.9747 36.8076,46.3081 36.5,45.5C 44.1009,44.643 48.9342,40.643 51,33.5C 49.9083,26.9333 49.075,20.2667 48.5,13.5C 45.1251,13.767 41.9584,14.767 39,16.5C 34,15.1667 29,15.1667 24,16.5C 21.0416,14.767 17.8749,13.767 14.5,13.5C 13.925,20.2667 13.0917,26.9333 12,33.5C 14.0658,40.643 18.8991,44.643 26.5,45.5C 25.0499,46.8498 24.3832,48.5165 24.5,50.5C 18.7791,51.7592 14.4458,49.9259 11.5,45C 10.8333,44.3333 10.1667,44.3333 9.5,45C 11.7433,47.4878 13.7433,50.1544 15.5,53C 18.3926,54.1488 21.3926,54.6488 24.5,54.5C 25.921,60.1132 23.921,62.2799 18.5,61C 9.07282,56.4154 2.73948,49.2488 -0.5,39.5C -0.5,34.1667 -0.5,28.8333 -0.5,23.5C 3.16667,11.1667 11.1667,3.16667 23.5,-0.5 Z"/></g>
</svg>
