<?xml version="1.0" encoding="UTF-8"?>
<!DOCTYPE svg PUBLIC "-//W3C//DTD SVG 1.1//EN" "http://www.w3.org/Graphics/SVG/1.1/DTD/svg11.dtd">
<svg xmlns="http://www.w3.org/2000/svg" version="1.1" width="920px" height="415px" style="shape-rendering:geometricPrecision; text-rendering:geometricPrecision; image-rendering:optimizeQuality; fill-rule:evenodd; clip-rule:evenodd" xmlns:xlink="http://www.w3.org/1999/xlink">
<g><path style="opacity:1" fill="#fefefe" d="M -0.5,-0.5 C 306.167,-0.5 612.833,-0.5 919.5,-0.5C 919.5,137.833 919.5,276.167 919.5,414.5C 612.833,414.5 306.167,414.5 -0.5,414.5C -0.5,276.167 -0.5,137.833 -0.5,-0.5 Z"/></g>
<g><path style="opacity:1" fill="#252b3a" d="M 568.5,136.5 C 568.5,143.167 568.5,149.833 568.5,156.5C 568.828,182.074 568.495,207.574 567.5,233C 526.167,233.667 484.833,233.667 443.5,233C 442.514,223.25 442.181,213.416 442.5,203.5C 444.067,200.033 445.901,196.7 448,193.5C 448.169,205.007 448.669,216.341 449.5,227.5C 486.902,228.832 524.402,228.832 562,227.5C 562.667,164.833 562.667,102.167 562,39.5C 554.587,38.5192 547.087,38.1858 539.5,38.5C 539.731,41.7845 538.397,44.2845 535.5,46C 515.5,46.6667 495.5,46.6667 475.5,46C 472.528,44.8586 470.861,42.6919 470.5,39.5C 463.276,38.1879 456.109,38.1879 449,39.5C 448.5,71.1649 448.333,102.832 448.5,134.5C 446.515,131.202 444.515,127.869 442.5,124.5C 442.171,94.2597 442.505,64.093 443.5,34C 484.833,33.3333 526.167,33.3333 567.5,34C 568.496,68.0936 568.829,102.26 568.5,136.5 Z"/></g>
<g><path style="opacity:1" fill="#fcfcfc" d="M 449.5,227.5 C 449.5,215.5 449.5,203.5 449.5,191.5C 457.556,182.264 459.723,171.598 456,159.5C 454.198,150.929 451.698,142.595 448.5,134.5C 448.333,102.832 448.5,71.1649 449,39.5C 456.109,38.1879 463.276,38.1879 470.5,39.5C 470.861,42.6919 472.528,44.8586 475.5,46C 495.5,46.6667 515.5,46.6667 535.5,46C 538.397,44.2845 539.731,41.7845 539.5,38.5C 547.087,38.1858 554.587,38.5192 562,39.5C 562.667,102.167 562.667,164.833 562,227.5C 524.402,228.832 486.902,228.832 449.5,227.5 Z"/></g>
<g><path style="opacity:1" fill="#21211e" d="M 643.5,79.5 C 642.751,78.469 642.085,77.3024 641.5,76C 639.166,75.6608 636.832,75.8275 634.5,76.5C 629.722,76.2214 627.055,73.7214 626.5,69C 621.824,69.6969 617.157,69.5303 612.5,68.5C 610.61,68.7035 609.11,68.0368 608,66.5C 607.545,63.2188 606.711,60.0522 605.5,57C 606.444,52.6682 608.944,51.5015 613,53.5C 614.255,51.4062 616.088,50.4062 618.5,50.5C 621.761,50.903 624.928,51.5697 628,52.5C 631.521,48.2632 634.355,48.5965 636.5,53.5C 636.392,54.4419 636.059,55.2753 635.5,56C 640.947,55.7606 642.947,58.0939 641.5,63C 644.709,68.0973 645.375,73.5973 643.5,79.5 Z"/></g>
<g><path style="opacity:1" fill="#dadfe2" d="M 468.5,61.5 C 483.837,61.3334 499.17,61.5001 514.5,62C 515.416,62.3742 516.25,62.8742 517,63.5C 517.667,79.5 517.667,95.5 517,111.5C 516.5,112 516,112.5 515.5,113C 499.926,114.635 484.259,114.968 468.5,114C 467.667,113.167 466.833,112.333 466,111.5C 465.333,95.8333 465.333,80.1667 466,64.5C 467.045,63.6266 467.878,62.6266 468.5,61.5 Z"/></g>
<g><path style="opacity:1" fill="#dbdfe3" d="M 527.5,61.5 C 532.511,61.3341 537.511,61.5007 542.5,62C 543.308,62.3076 543.975,62.8076 544.5,63.5C 550.228,80.2636 544.561,86.7636 527.5,83C 526.667,82.1667 525.833,81.3333 525,80.5C 524.333,75.1667 524.333,69.8333 525,64.5C 526.045,63.6266 526.878,62.6266 527.5,61.5 Z"/></g>
<g><path style="opacity:1" fill="#20201e" d="M 427.5,83.5 C 420.383,82.827 413.55,83.827 407,86.5C 404.44,82.5818 401.94,82.5818 399.5,86.5C 399.928,89.2426 401.095,91.5759 403,93.5C 403.499,97.4862 403.666,101.486 403.5,105.5C 401.167,105.5 398.833,105.5 396.5,105.5C 396.496,85.5441 395.829,85.5441 394.5,105.5C 393.335,97.5208 393.168,89.5208 394,81.5C 398.428,66.5317 407.595,62.3651 421.5,69C 425.934,72.7977 427.934,77.631 427.5,83.5 Z"/></g>
<g><path style="opacity:1" fill="#45cbfb" d="M 472.5,65.5 C 479.534,73.5349 487.201,80.8683 495.5,87.5C 495.5,87.8333 495.5,88.1667 495.5,88.5C 487.807,95.861 480.14,103.194 472.5,110.5C 471.883,110.389 471.383,110.056 471,109.5C 470.333,95.1667 470.333,80.8333 471,66.5C 471.383,65.944 471.883,65.6107 472.5,65.5 Z"/></g>
<g><path style="opacity:1" fill="#777776" d="M 625.5,65.5 C 625.56,64.9569 625.893,64.6236 626.5,64.5C 631.618,69.1106 631.285,69.4439 625.5,65.5 Z"/></g>
<g><path style="opacity:1" fill="#4ffc50" d="M 472.5,65.5 C 482.825,70.3278 492.825,75.6612 502.5,81.5C 500.167,83.5 497.833,85.5 495.5,87.5C 487.201,80.8683 479.534,73.5349 472.5,65.5 Z"/></g>
<g><path style="opacity:1" fill="#7a594b" d="M 612.5,68.5 C 617.157,69.5303 621.824,69.6969 626.5,69C 627.055,73.7214 629.722,76.2214 634.5,76.5C 636.832,75.8275 639.166,75.6608 641.5,76C 642.085,77.3024 642.751,78.469 643.5,79.5C 642.538,82.7568 641.038,85.7568 639,88.5C 638.322,92.2211 638.489,95.8878 639.5,99.5C 632.041,110.462 625.375,110.128 619.5,98.5C 619.611,97.8826 619.944,97.3826 620.5,97C 616.942,95.1083 614.442,92.2749 613,88.5C 612.5,81.8417 612.334,75.175 612.5,68.5 Z"/></g>
<g><path style="opacity:1" fill="#714c3c" d="M 335.5,84.5 C 333.353,88.1383 330.186,90.4717 326,91.5C 322.203,90.3935 318.37,89.8935 314.5,90C 313.88,92.4728 313.214,94.9728 312.5,97.5C 311.155,96.6533 310.155,95.4866 309.5,94C 304.917,93.0663 303.417,94.8996 305,99.5C 305.667,101.5 307,102.833 309,103.5C 309.494,105.134 309.66,106.801 309.5,108.5C 304.107,102.856 301.107,96.0222 300.5,88C 301.226,80.8957 304.892,75.8957 311.5,73C 320.405,71.3728 327.905,73.8728 334,80.5C 334.791,81.745 335.291,83.0783 335.5,84.5 Z"/></g>
<g><path style="opacity:1" fill="#fed40e" d="M 502.5,81.5 C 506.8,82.6479 510.466,84.8145 513.5,88C 510.136,90.6817 506.47,92.8484 502.5,94.5C 500.167,92.5 497.833,90.5 495.5,88.5C 495.5,88.1667 495.5,87.8333 495.5,87.5C 497.833,85.5 500.167,83.5 502.5,81.5 Z"/></g>
<g><path style="opacity:1" fill="#eecda7" d="M 427.5,83.5 C 427.422,90.7003 426.755,97.7003 425.5,104.5C 423.167,105.167 420.833,105.833 418.5,106.5C 413.078,105.534 408.578,102.867 405,98.5C 404.503,100.81 404.337,103.143 404.5,105.5C 404.167,105.5 403.833,105.5 403.5,105.5C 403.666,101.486 403.499,97.4862 403,93.5C 401.095,91.5759 399.928,89.2426 399.5,86.5C 401.94,82.5818 404.44,82.5818 407,86.5C 413.55,83.827 420.383,82.827 427.5,83.5 Z"/></g>
<g><path style="opacity:1" fill="#f6cbb7" d="M 335.5,84.5 C 336.124,84.9169 336.457,85.5836 336.5,86.5C 335.915,93.8666 335.082,101.2 334,108.5C 331.209,111.767 328.709,115.1 326.5,118.5C 324.638,126.765 319.972,129.098 312.5,125.5C 310.566,123.276 308.899,120.942 307.5,118.5C 309.299,115.495 309.966,112.162 309.5,108.5C 309.66,106.801 309.494,105.134 309,103.5C 307,102.833 305.667,101.5 305,99.5C 303.417,94.8996 304.917,93.0663 309.5,94C 310.155,95.4866 311.155,96.6533 312.5,97.5C 313.214,94.9728 313.88,92.4728 314.5,90C 318.37,89.8935 322.203,90.3935 326,91.5C 330.186,90.4717 333.353,88.1383 335.5,84.5 Z"/></g>
<g><path style="opacity:1" fill="#fa3c39" d="M 495.5,88.5 C 497.833,90.5 500.167,92.5 502.5,94.5C 492.825,100.339 482.825,105.672 472.5,110.5C 480.14,103.194 487.807,95.861 495.5,88.5 Z"/></g>
<g><path style="opacity:1" fill="#dbdfe3" d="M 527.5,92.5 C 532.511,92.3341 537.511,92.5007 542.5,93C 543.308,93.3076 543.975,93.8076 544.5,94.5C 550.228,111.264 544.561,117.764 527.5,114C 526.667,113.167 525.833,112.333 525,111.5C 524.333,106.167 524.333,100.833 525,95.5C 526.045,94.6266 526.878,93.6266 527.5,92.5 Z"/></g>
<g><path style="opacity:1" fill="#222837" d="M 619.5,98.5 C 625.375,110.128 632.041,110.462 639.5,99.5C 645.109,102.304 650.776,105.138 656.5,108C 662.91,113.32 666.243,120.153 666.5,128.5C 666.5,133.833 666.5,139.167 666.5,144.5C 659.813,144.331 653.146,143.831 646.5,143C 645.67,140.198 644.837,137.365 644,134.5C 644.432,140.341 645.266,146.175 646.5,152C 646.167,153.5 645.833,155 645.5,156.5C 632.452,159.679 619.452,163.012 606.5,166.5C 605.584,166.457 604.917,166.124 604.5,165.5C 604.638,160.586 603.972,155.919 602.5,151.5C 602.331,145.477 601.831,139.477 601,133.5C 600.591,139.51 600.758,145.51 601.5,151.5C 600.833,151.5 600.5,151.833 600.5,152.5C 598.833,150.5 597.167,148.5 595.5,146.5C 594.974,144.77 593.974,143.436 592.5,142.5C 590.5,139.5 588.5,136.5 586.5,133.5C 591.027,115.642 602.027,103.975 619.5,98.5 Z"/></g>
<g><path style="opacity:1" fill="#fbd9b1" d="M 418.5,106.5 C 418.824,111.861 421.491,115.194 426.5,116.5C 422.262,123.973 417.762,131.306 413,138.5C 408.88,129.929 405.047,121.263 401.5,112.5C 402.496,112.586 403.329,112.252 404,111.5C 404.495,109.527 404.662,107.527 404.5,105.5C 404.337,103.143 404.503,100.81 405,98.5C 408.578,102.867 413.078,105.534 418.5,106.5 Z"/></g>
<g><path style="opacity:1" fill="#24231f" d="M 425.5,104.5 C 423.473,104.662 421.473,104.495 419.5,104C 422,102.833 423.833,101 425,98.5C 425.495,100.473 425.662,102.473 425.5,104.5 Z"/></g>
<g><path style="opacity:1" fill="#fcd532" d="M 401.5,112.5 C 405.047,121.263 408.88,129.929 413,138.5C 417.762,131.306 422.262,123.973 426.5,116.5C 432.675,117.588 438.009,120.254 442.5,124.5C 444.515,127.869 446.515,131.202 448.5,134.5C 451.698,142.595 454.198,150.929 456,159.5C 459.723,171.598 457.556,182.264 449.5,191.5C 445.888,192.076 442.888,191.076 440.5,188.5C 439.701,181.246 439.201,173.912 439,166.5C 437.471,165.271 436.304,163.771 435.5,162C 434.184,161.472 433.517,161.972 433.5,163.5C 431.063,164.738 430.063,166.405 430.5,168.5C 429.226,170.993 428.56,173.659 428.5,176.5C 424.5,176.5 420.5,176.5 416.5,176.5C 417.136,173.894 417.136,171.394 416.5,169C 407.482,168.832 398.482,168.332 389.5,167.5C 388.097,164.125 386.597,160.791 385,157.5C 384.501,161.486 384.334,165.486 384.5,169.5C 378.167,169.5 371.833,169.5 365.5,169.5C 363.626,148.269 370.292,130.436 385.5,116C 390.524,113.495 395.858,112.328 401.5,112.5 Z"/></g>
<g><path style="opacity:1" fill="#bdbbbb" d="M 307.5,118.5 C 308.899,120.942 310.566,123.276 312.5,125.5C 319.972,129.098 324.638,126.765 326.5,118.5C 347.966,126.039 358.633,141.372 358.5,164.5C 358.5,166.5 358.5,168.5 358.5,170.5C 355.552,170.223 352.719,170.556 350,171.5C 348.314,177.253 346.814,182.919 345.5,188.5C 343.565,189.15 341.565,189.483 339.5,189.5C 339.5,191.833 339.5,194.167 339.5,196.5C 338.167,196.5 336.833,196.5 335.5,196.5C 320.734,193.913 305.734,192.08 290.5,191C 288.481,190.55 286.648,189.717 285,188.5C 284.768,189.737 284.268,190.737 283.5,191.5C 283.66,189.801 283.494,188.134 283,186.5C 281.111,184.517 279.778,182.184 279,179.5C 278.135,167.457 278.468,155.457 280,143.5C 281.237,138.527 283.404,134.027 286.5,130C 293.485,126.067 300.485,122.234 307.5,118.5 Z"/></g>
<g><path style="opacity:1" fill="#dadfe3" d="M 467.5,123.5 C 492.836,123.333 518.169,123.5 543.5,124C 544,124.5 544.5,125 545,125.5C 545.667,141.833 545.667,158.167 545,174.5C 544.25,175.126 543.416,175.626 542.5,176C 517.833,176.667 493.167,176.667 468.5,176C 467.667,175.167 466.833,174.333 466,173.5C 465.333,157.5 465.333,141.5 466,125.5C 466.717,124.956 467.217,124.289 467.5,123.5 Z"/></g>
<g><path style="opacity:1" fill="#806052" d="M 586.5,133.5 C 588.5,136.5 590.5,139.5 592.5,142.5C 588.575,142.57 584.909,141.903 581.5,140.5C 582.811,137.865 584.478,135.531 586.5,133.5 Z"/></g>
<g><path style="opacity:1" fill="#8b8f96" d="M 602.5,151.5 C 602.167,151.5 601.833,151.5 601.5,151.5C 600.758,145.51 600.591,139.51 601,133.5C 601.831,139.477 602.331,145.477 602.5,151.5 Z"/></g>
<g><path style="opacity:1" fill="#805f50" d="M 568.5,136.5 C 569.833,137.5 571.167,138.5 572.5,139.5C 577.326,148.298 580.992,157.632 583.5,167.5C 581.598,168.511 579.598,168.678 577.5,168C 574.36,164.188 571.36,160.355 568.5,156.5C 568.5,149.833 568.5,143.167 568.5,136.5 Z"/></g>
<g><path style="opacity:1" fill="#e3e2e1" d="M 572.5,139.5 C 575.43,140.299 578.43,140.632 581.5,140.5C 584.909,141.903 588.575,142.57 592.5,142.5C 593.974,143.436 594.974,144.77 595.5,146.5C 595.46,149.425 596.293,152.091 598,154.5C 598.995,153.934 599.828,153.267 600.5,152.5C 600.5,151.833 600.833,151.5 601.5,151.5C 601.833,151.5 602.167,151.5 602.5,151.5C 603.972,155.919 604.638,160.586 604.5,165.5C 602.549,164.284 601.049,162.618 600,160.5C 599.781,161.938 599.281,163.271 598.5,164.5C 596.929,162.585 594.929,161.585 592.5,161.5C 592.335,164.518 592.502,167.518 593,170.5C 596.75,173.139 600.917,174.472 605.5,174.5C 605.5,174.833 605.5,175.167 605.5,175.5C 604.305,175.678 603.138,176.011 602,176.5C 596.963,174.874 591.796,173.707 586.5,173C 585.771,170.942 584.771,169.109 583.5,167.5C 580.992,157.632 577.326,148.298 572.5,139.5 Z"/></g>
<g><path style="opacity:1" fill="#7d5c4e" d="M 666.5,128.5 C 667.63,140.077 667.13,151.743 665,163.5C 662.889,167.446 659.722,170.113 655.5,171.5C 638.827,172.417 622.161,173.417 605.5,174.5C 600.917,174.472 596.75,173.139 593,170.5C 592.502,167.518 592.335,164.518 592.5,161.5C 594.929,161.585 596.929,162.585 598.5,164.5C 599.281,163.271 599.781,161.938 600,160.5C 601.049,162.618 602.549,164.284 604.5,165.5C 604.917,166.124 605.584,166.457 606.5,166.5C 619.452,163.012 632.452,159.679 645.5,156.5C 645.833,155 646.167,153.5 646.5,152C 645.266,146.175 644.432,140.341 644,134.5C 644.837,137.365 645.67,140.198 646.5,143C 653.146,143.831 659.813,144.331 666.5,144.5C 666.5,139.167 666.5,133.833 666.5,128.5 Z"/></g>
<g><path style="opacity:1" fill="#886b5f" d="M 595.5,146.5 C 597.167,148.5 598.833,150.5 600.5,152.5C 599.828,153.267 598.995,153.934 598,154.5C 596.293,152.091 595.46,149.425 595.5,146.5 Z"/></g>
<g><path style="opacity:1" fill="#71706f" d="M 301.5,149.5 C 302.097,149.735 302.43,150.235 302.5,151C 300.849,157.07 299.683,163.237 299,169.5C 298.466,162.668 299.299,156.001 301.5,149.5 Z"/></g>
<g><path style="opacity:1" fill="#fdfdfd" d="M 568.5,156.5 C 571.36,160.355 574.36,164.188 577.5,168C 579.598,168.678 581.598,168.511 583.5,167.5C 584.771,169.109 585.771,170.942 586.5,173C 591.796,173.707 596.963,174.874 602,176.5C 603.138,176.011 604.305,175.678 605.5,175.5C 605.5,177.5 605.5,179.5 605.5,181.5C 600.644,235.819 596.977,290.152 594.5,344.5C 594.586,345.496 594.252,346.329 593.5,347C 591.942,347.21 590.609,347.71 589.5,348.5C 589.167,348.5 588.833,348.5 588.5,348.5C 537.5,348.5 486.5,348.5 435.5,348.5C 435.5,346.833 435.5,345.167 435.5,343.5C 436.833,343.5 438.167,343.5 439.5,343.5C 439.214,298.155 439.547,252.821 440.5,207.5C 440.66,205.847 441.326,204.514 442.5,203.5C 442.181,213.416 442.514,223.25 443.5,233C 484.833,233.667 526.167,233.667 567.5,233C 568.495,207.574 568.828,182.074 568.5,156.5 Z"/></g>
<g><path style="opacity:1" fill="#fcfcf6" d="M 440.5,188.5 C 440.66,190.199 440.494,191.866 440,193.5C 439.329,194.252 438.496,194.586 437.5,194.5C 435.696,190.891 433.862,187.224 432,183.5C 431.097,182.299 429.931,181.465 428.5,181C 429.413,179.586 429.413,178.086 428.5,176.5C 428.56,173.659 429.226,170.993 430.5,168.5C 431.89,167.101 432.89,165.434 433.5,163.5C 433.517,161.972 434.184,161.472 435.5,162C 436.304,163.771 437.471,165.271 439,166.5C 439.201,173.912 439.701,181.246 440.5,188.5 Z"/></g>
<g><path style="opacity:1" fill="#af9c55" d="M 433.5,163.5 C 432.89,165.434 431.89,167.101 430.5,168.5C 430.063,166.405 431.063,164.738 433.5,163.5 Z"/></g>
<g><path style="opacity:1" fill="#e5e6e5" d="M 416.5,176.5 C 414.226,187.997 411.06,199.331 407,210.5C 401.733,211.145 396.567,211.812 391.5,212.5C 374.154,213.038 356.821,213.538 339.5,214C 334.38,211.94 329.38,209.607 324.5,207C 323.117,205.729 322.117,204.229 321.5,202.5C 328.321,201.671 335.321,201.171 342.5,201C 343.337,199.989 343.67,198.822 343.5,197.5C 344.417,194.583 345.084,191.583 345.5,188.5C 346.814,182.919 348.314,177.253 350,171.5C 352.719,170.556 355.552,170.223 358.5,170.5C 358.5,168.5 358.5,166.5 358.5,164.5C 359.461,166.265 359.795,168.265 359.5,170.5C 361.735,170.795 363.735,170.461 365.5,169.5C 371.833,169.5 378.167,169.5 384.5,169.5C 384.334,165.486 384.501,161.486 385,157.5C 386.597,160.791 388.097,164.125 389.5,167.5C 398.482,168.332 407.482,168.832 416.5,169C 417.136,171.394 417.136,173.894 416.5,176.5 Z"/></g>
<g><path style="opacity:1" fill="#282c3a" d="M 655.5,171.5 C 655.5,175.833 655.5,180.167 655.5,184.5C 638.742,184.116 622.075,183.116 605.5,181.5C 605.5,179.5 605.5,177.5 605.5,175.5C 605.5,175.167 605.5,174.833 605.5,174.5C 622.161,173.417 638.827,172.417 655.5,171.5 Z"/></g>
<g><path style="opacity:1" fill="#706f6e" d="M 303.5,177.5 C 303.917,176.876 304.584,176.543 305.5,176.5C 314.255,178.696 322.921,181.196 331.5,184C 322.155,182.169 312.822,180.003 303.5,177.5 Z"/></g>
<g><path style="opacity:1" fill="#e3e3e3" d="M 605.5,181.5 C 622.075,183.116 638.742,184.116 655.5,184.5C 656.913,201.464 657.58,218.464 657.5,235.5C 657.071,272.335 656.404,309.001 655.5,345.5C 651.833,345.5 648.167,345.5 644.5,345.5C 643.07,343.845 642.236,341.845 642,339.5C 637.667,305.5 633.333,271.5 629,237.5C 628.998,234.949 628.164,232.949 626.5,231.5C 626.654,223.748 625.487,216.081 623,208.5C 621.167,231.166 619.333,253.833 617.5,276.5C 617.511,278.045 617.844,279.378 618.5,280.5C 614.304,301.012 610.97,321.679 608.5,342.5C 607.167,342.5 605.833,342.5 604.5,342.5C 600.821,342.06 597.488,342.727 594.5,344.5C 596.977,290.152 600.644,235.819 605.5,181.5 Z"/></g>
<g><path style="opacity:1" fill="#d8f7ef" d="M 468.5,185.5 C 473.511,185.334 478.511,185.501 483.5,186C 484.416,186.374 485.25,186.874 486,187.5C 486.667,193.167 486.667,198.833 486,204.5C 485.167,205.333 484.333,206.167 483.5,207C 467.095,210.927 461.261,204.76 466,188.5C 467.045,187.627 467.878,186.627 468.5,185.5 Z"/></g>
<g><path style="opacity:1" fill="#d8f7ef" d="M 497.5,185.5 C 502.844,185.334 508.177,185.501 513.5,186C 514.333,186.833 515.167,187.667 516,188.5C 516.667,193.5 516.667,198.5 516,203.5C 515.626,204.416 515.126,205.25 514.5,206C 497.225,211.393 491.058,205.226 496,187.5C 496.717,186.956 497.217,186.289 497.5,185.5 Z"/></g>
<g><path style="opacity:1" fill="#40d9b2" d="M 527.5,185.5 C 532.511,185.334 537.511,185.501 542.5,186C 543.308,186.308 543.975,186.808 544.5,187.5C 550.228,204.264 544.561,210.764 527.5,207C 526.667,206.167 525.833,205.333 525,204.5C 524.333,199.167 524.333,193.833 525,188.5C 526.045,187.627 526.878,186.627 527.5,185.5 Z"/></g>
<g><path style="opacity:1" fill="#8d8c8c" d="M 335.5,196.5 C 318.163,196.696 300.83,197.029 283.5,197.5C 283.5,195.5 283.5,193.5 283.5,191.5C 284.268,190.737 284.768,189.737 285,188.5C 286.648,189.717 288.481,190.55 290.5,191C 305.734,192.08 320.734,193.913 335.5,196.5 Z"/></g>
<g><path style="opacity:1" fill="#f5cebb" d="M 345.5,188.5 C 345.084,191.583 344.417,194.583 343.5,197.5C 342.041,197.567 340.708,197.234 339.5,196.5C 339.5,194.167 339.5,191.833 339.5,189.5C 341.565,189.483 343.565,189.15 345.5,188.5 Z"/></g>
<g><path style="opacity:1" fill="#e8cfb0" d="M 440.5,188.5 C 442.888,191.076 445.888,192.076 449.5,191.5C 449.5,203.5 449.5,215.5 449.5,227.5C 448.669,216.341 448.169,205.007 448,193.5C 445.901,196.7 444.067,200.033 442.5,203.5C 441.326,204.514 440.66,205.847 440.5,207.5C 438.774,209.942 437.274,212.609 436,215.5C 432.505,213.378 430.838,210.378 431,206.5C 431.333,207.167 431.667,207.833 432,208.5C 432.977,206.26 433.477,203.927 433.5,201.5C 431.801,201.66 430.134,201.494 428.5,201C 431.567,198.812 434.567,196.645 437.5,194.5C 438.496,194.586 439.329,194.252 440,193.5C 440.494,191.866 440.66,190.199 440.5,188.5 Z"/></g>
<g><path style="opacity:1" fill="#3ed8b1" d="M 416.5,176.5 C 420.5,176.5 424.5,176.5 428.5,176.5C 429.413,178.086 429.413,179.586 428.5,181C 429.931,181.465 431.097,182.299 432,183.5C 433.862,187.224 435.696,190.891 437.5,194.5C 434.567,196.645 431.567,198.812 428.5,201C 430.134,201.494 431.801,201.66 433.5,201.5C 433.477,203.927 432.977,206.26 432,208.5C 431.667,207.833 431.333,207.167 431,206.5C 430.838,210.378 432.505,213.378 436,215.5C 437.274,212.609 438.774,209.942 440.5,207.5C 439.547,252.821 439.214,298.155 439.5,343.5C 438.167,343.5 436.833,343.5 435.5,343.5C 432.833,343.5 430.167,343.5 427.5,343.5C 422.353,303.019 417.519,262.352 413,221.5C 400.787,261.712 388.287,301.712 375.5,341.5C 372.669,340.921 370.336,339.588 368.5,337.5C 370.166,311.504 371.833,285.504 373.5,259.5C 378.714,247.402 384.214,235.402 390,223.5C 391.237,219.94 391.737,216.273 391.5,212.5C 396.567,211.812 401.733,211.145 407,210.5C 411.06,199.331 414.226,187.997 416.5,176.5 Z"/></g>
<g><path style="opacity:1" fill="#393e4c" d="M 335.5,196.5 C 336.833,196.5 338.167,196.5 339.5,196.5C 340.708,197.234 342.041,197.567 343.5,197.5C 343.67,198.822 343.337,199.989 342.5,201C 335.321,201.171 328.321,201.671 321.5,202.5C 319.901,203.799 319.401,205.465 320,207.5C 325.394,215.011 331.227,222.011 337.5,228.5C 338.437,231.269 339.604,233.936 341,236.5C 341.667,239.5 341.667,242.5 341,245.5C 335.904,274.051 330.404,302.385 324.5,330.5C 320.5,330.5 316.5,330.5 312.5,330.5C 312.5,325.167 312.5,319.833 312.5,314.5C 312.547,292.489 312.714,270.489 313,248.5C 304.61,240.939 296.443,233.272 288.5,225.5C 282.704,216.932 281.037,207.598 283.5,197.5C 300.83,197.029 318.163,196.696 335.5,196.5 Z"/></g>
<g><path style="opacity:1" fill="#232938" d="M 321.5,202.5 C 322.117,204.229 323.117,205.729 324.5,207C 329.38,209.607 334.38,211.94 339.5,214C 356.821,213.538 374.154,213.038 391.5,212.5C 391.737,216.273 391.237,219.94 390,223.5C 384.214,235.402 378.714,247.402 373.5,259.5C 370.593,264.311 367.926,269.311 365.5,274.5C 364.818,273.757 364.151,273.091 363.5,272.5C 361.539,270.037 359.372,267.703 357,265.5C 356.51,264.207 356.343,262.873 356.5,261.5C 358.448,249.761 360.781,238.094 363.5,226.5C 358.481,225.785 353.481,226.118 348.5,227.5C 344.865,228.114 341.198,228.448 337.5,228.5C 331.227,222.011 325.394,215.011 320,207.5C 319.401,205.465 319.901,203.799 321.5,202.5 Z"/></g>
<g><path style="opacity:1" fill="#c6c6c6" d="M 626.5,231.5 C 623.727,247.807 621.06,264.14 618.5,280.5C 617.844,279.378 617.511,278.045 617.5,276.5C 619.333,253.833 621.167,231.166 623,208.5C 625.487,216.081 626.654,223.748 626.5,231.5 Z"/></g>
<g><path style="opacity:1" fill="#232938" d="M 479.5,215.5 C 498.5,215.5 517.5,215.5 536.5,215.5C 536.5,216.5 536.5,217.5 536.5,218.5C 517.5,218.5 498.5,218.5 479.5,218.5C 479.5,217.5 479.5,216.5 479.5,215.5 Z"/></g>
<g><path style="opacity:1" fill="#a8aab0" d="M 299.5,220.5 C 298.883,220.611 298.383,220.944 298,221.5C 297.598,220.128 297.098,218.795 296.5,217.5C 297.247,217.264 298.08,216.93 299,216.5C 299.333,214.833 299.667,213.167 300,211.5C 300.495,214.531 300.329,217.531 299.5,220.5 Z"/></g>
<g><path style="opacity:1" fill="#8a8d95" d="M 299.5,220.5 C 303.298,223.796 306.964,227.296 310.5,231C 309.833,231.667 309.167,231.667 308.5,231C 304.893,227.902 301.893,224.402 299.5,220.5 Z"/></g>
<g><path style="opacity:1" fill="#fbfdfc" d="M 427.5,343.5 C 427.5,345.167 427.5,346.833 427.5,348.5C 410.167,348.5 392.833,348.5 375.5,348.5C 375.5,346.167 375.5,343.833 375.5,341.5C 388.287,301.712 400.787,261.712 413,221.5C 417.519,262.352 422.353,303.019 427.5,343.5 Z"/></g>
<g><path style="opacity:1" fill="#c3f2e6" d="M 288.5,225.5 C 296.443,233.272 304.61,240.939 313,248.5C 312.714,270.489 312.547,292.489 312.5,314.5C 311.836,317.146 311.502,319.979 311.5,323C 311.519,326.252 312.186,329.085 313.5,331.5C 313.5,331.833 313.5,332.167 313.5,332.5C 312.527,334.948 312.194,337.615 312.5,340.5C 311.207,342.364 311.207,344.364 312.5,346.5C 319.373,350.406 326.706,351.906 334.5,351C 336.066,350.392 337.4,349.558 338.5,348.5C 340.085,347.998 340.585,346.998 340,345.5C 335.763,341.964 331.263,338.798 326.5,336C 329.06,331.423 328.06,330.589 323.5,333.5C 322.662,333.158 322.328,332.492 322.5,331.5C 323.492,331.672 324.158,331.338 324.5,330.5C 330.404,302.385 335.904,274.051 341,245.5C 341.667,242.5 341.667,239.5 341,236.5C 339.604,233.936 338.437,231.269 337.5,228.5C 341.198,228.448 344.865,228.114 348.5,227.5C 346.542,241.924 345.876,256.59 346.5,271.5C 344.286,273.239 344.286,275.239 346.5,277.5C 346.169,304.672 346.502,331.672 347.5,358.5C 347.5,360.5 347.5,362.5 347.5,364.5C 346.513,369.305 346.179,374.305 346.5,379.5C 314.833,379.5 283.167,379.5 251.5,379.5C 251.5,369.167 251.5,358.833 251.5,348.5C 251.5,347.833 251.5,347.167 251.5,346.5C 251.5,306.167 251.5,265.833 251.5,225.5C 263.833,225.5 276.167,225.5 288.5,225.5 Z"/></g>
<g><path style="opacity:1" fill="#f7f9f9" d="M 356.5,261.5 C 355.566,262.568 355.232,263.901 355.5,265.5C 352.672,267.748 349.672,269.748 346.5,271.5C 345.876,256.59 346.542,241.924 348.5,227.5C 353.481,226.118 358.481,225.785 363.5,226.5C 360.781,238.094 358.448,249.761 356.5,261.5 Z"/></g>
<g><path style="opacity:1" fill="#fdfdfd" d="M 626.5,231.5 C 628.164,232.949 628.998,234.949 629,237.5C 633.333,271.5 637.667,305.5 642,339.5C 642.236,341.845 643.07,343.845 644.5,345.5C 644.5,346.167 644.167,346.5 643.5,346.5C 642.5,346.5 641.5,346.5 640.5,346.5C 628.58,347.479 616.58,347.812 604.5,347.5C 604.5,345.833 604.5,344.167 604.5,342.5C 605.833,342.5 607.167,342.5 608.5,342.5C 610.97,321.679 614.304,301.012 618.5,280.5C 621.06,264.14 623.727,247.807 626.5,231.5 Z"/></g>
<g><path style="opacity:1" fill="#8ae8d0" d="M 261.5,237.5 C 268.833,237.5 276.167,237.5 283.5,237.5C 283.5,244.833 283.5,252.167 283.5,259.5C 276.167,259.5 268.833,259.5 261.5,259.5C 261.5,252.167 261.5,244.833 261.5,237.5 Z"/></g>
<g><path style="opacity:1" fill="#fbfcfc" d="M 373.5,259.5 C 371.833,285.504 370.166,311.504 368.5,337.5C 367.707,341.702 366.874,346.035 366,350.5C 363.678,353.395 360.845,355.395 357.5,356.5C 354.097,356.851 350.763,357.518 347.5,358.5C 346.502,331.672 346.169,304.672 346.5,277.5C 351.469,283.312 356.303,289.312 361,295.5C 365.188,299.998 367.688,299.331 368.5,293.5C 367.763,287.857 365.763,282.69 362.5,278C 366.093,277.336 366.093,276.169 362.5,274.5C 362.328,273.508 362.662,272.842 363.5,272.5C 364.151,273.091 364.818,273.757 365.5,274.5C 367.926,269.311 370.593,264.311 373.5,259.5 Z"/></g>
<g><path style="opacity:1" fill="#f0cbba" d="M 356.5,261.5 C 356.343,262.873 356.51,264.207 357,265.5C 359.372,267.703 361.539,270.037 363.5,272.5C 362.662,272.842 362.328,273.508 362.5,274.5C 360.208,274.756 358.041,274.423 356,273.5C 355.503,270.854 355.336,268.187 355.5,265.5C 355.232,263.901 355.566,262.568 356.5,261.5 Z"/></g>
<g><path style="opacity:1" fill="#898988" d="M 649.5,192.5 C 651.415,242.657 652.248,292.99 652,343.5C 651.036,297.827 649.87,252.161 648.5,206.5C 645.911,204.713 646.077,204.379 649,205.5C 649.499,201.179 649.666,196.846 649.5,192.5 Z"/></g>
<g><path style="opacity:1" fill="#4577e5" d="M 355.5,265.5 C 355.336,268.187 355.503,270.854 356,273.5C 358.041,274.423 360.208,274.756 362.5,274.5C 366.093,276.169 366.093,277.336 362.5,278C 365.763,282.69 367.763,287.857 368.5,293.5C 367.688,299.331 365.188,299.998 361,295.5C 356.303,289.312 351.469,283.312 346.5,277.5C 344.286,275.239 344.286,273.239 346.5,271.5C 349.672,269.748 352.672,267.748 355.5,265.5 Z"/></g>
<g><path style="opacity:1" fill="#999ba3" d="M 317.5,238.5 C 317.897,237.475 318.563,237.308 319.5,238C 322.507,240.166 324.507,242.999 325.5,246.5C 322.391,273.47 319.558,300.47 317,327.5C 318.532,301.141 320.699,274.808 323.5,248.5C 323.617,243.94 321.617,240.606 317.5,238.5 Z"/></g>
<g><path style="opacity:1" fill="#92a6a3" d="M 312.5,314.5 C 312.5,319.833 312.5,325.167 312.5,330.5C 316.5,330.5 320.5,330.5 324.5,330.5C 324.158,331.338 323.492,331.672 322.5,331.5C 319.5,331.5 316.5,331.5 313.5,331.5C 312.186,329.085 311.519,326.252 311.5,323C 311.502,319.979 311.836,317.146 312.5,314.5 Z"/></g>
<g><path style="opacity:1" fill="#f5cfbe" d="M 313.5,331.5 C 316.5,331.5 319.5,331.5 322.5,331.5C 322.328,332.492 322.662,333.158 323.5,333.5C 323.703,335.044 324.37,336.378 325.5,337.5C 323.81,340.024 321.643,342.024 319,343.5C 316.628,340.09 314.795,336.423 313.5,332.5C 313.5,332.167 313.5,331.833 313.5,331.5 Z"/></g>
<g><path style="opacity:1" fill="#4579ec" d="M 338.5,348.5 C 329.519,349.936 321.185,348.103 313.5,343C 312.748,342.329 312.414,341.496 312.5,340.5C 312.194,337.615 312.527,334.948 313.5,332.5C 314.795,336.423 316.628,340.09 319,343.5C 321.643,342.024 323.81,340.024 325.5,337.5C 324.37,336.378 323.703,335.044 323.5,333.5C 328.06,330.589 329.06,331.423 326.5,336C 331.263,338.798 335.763,341.964 340,345.5C 340.585,346.998 340.085,347.998 338.5,348.5 Z"/></g>
<g><path style="opacity:1" fill="#f4d4b0" d="M 368.5,337.5 C 370.336,339.588 372.669,340.921 375.5,341.5C 375.5,343.833 375.5,346.167 375.5,348.5C 374.842,350.639 373.842,352.639 372.5,354.5C 371.104,357.05 368.938,358.717 366,359.5C 364.566,359.07 363.399,358.236 362.5,357C 360.866,356.506 359.199,356.34 357.5,356.5C 360.845,355.395 363.678,353.395 366,350.5C 366.874,346.035 367.707,341.702 368.5,337.5 Z"/></g>
<g><path style="opacity:1" fill="#446ec6" d="M 312.5,340.5 C 312.414,341.496 312.748,342.329 313.5,343C 321.185,348.103 329.519,349.936 338.5,348.5C 337.4,349.558 336.066,350.392 334.5,351C 326.706,351.906 319.373,350.406 312.5,346.5C 311.207,344.364 311.207,342.364 312.5,340.5 Z"/></g>
<g><path style="opacity:1" fill="#f4d6b2" d="M 427.5,343.5 C 430.167,343.5 432.833,343.5 435.5,343.5C 435.5,345.167 435.5,346.833 435.5,348.5C 435.357,350.262 435.691,351.929 436.5,353.5C 438.521,354.855 440.188,356.521 441.5,358.5C 438.843,358.162 436.51,358.829 434.5,360.5C 432.247,359.747 430.413,358.414 429,356.5C 428.51,357.793 428.343,359.127 428.5,360.5C 427.517,356.702 427.183,352.702 427.5,348.5C 427.5,346.833 427.5,345.167 427.5,343.5 Z"/></g>
<g><path style="opacity:1" fill="#d3d3d2" d="M 251.5,346.5 C 251.5,347.167 251.5,347.833 251.5,348.5C 107.5,347.833 107.5,347.167 251.5,346.5 Z"/></g>
<g><path style="opacity:1" fill="#d3d3d2" d="M 655.5,346.5 C 815.5,347.167 815.5,347.833 655.5,348.5C 655.5,347.833 655.5,347.167 655.5,346.5 Z"/></g>
<g><path style="opacity:1" fill="#b6b6b5" d="M 640.5,346.5 C 640.5,347.167 640.5,347.833 640.5,348.5C 628.5,348.5 616.5,348.5 604.5,348.5C 604.5,348.167 604.5,347.833 604.5,347.5C 616.58,347.812 628.58,347.479 640.5,346.5 Z"/></g>
<g><path style="opacity:1" fill="#272d3b" d="M 588.5,348.5 C 588.833,348.5 589.167,348.5 589.5,348.5C 592.785,348.893 595.618,350.226 598,352.5C 600.257,351.91 601.924,350.577 603,348.5C 603.499,352.821 603.666,357.154 603.5,361.5C 593.964,362.536 584.297,363.37 574.5,364C 572.675,362.534 572.175,360.701 573,358.5C 578.306,355.43 583.806,352.764 589.5,350.5C 589.137,349.817 588.804,349.15 588.5,348.5 Z"/></g>
<g><path style="opacity:1" fill="#7d6358" d="M 604.5,342.5 C 604.5,344.167 604.5,345.833 604.5,347.5C 604.5,347.833 604.5,348.167 604.5,348.5C 604.818,353.032 604.485,357.366 603.5,361.5C 603.666,357.154 603.499,352.821 603,348.5C 601.924,350.577 600.257,351.91 598,352.5C 595.618,350.226 592.785,348.893 589.5,348.5C 590.609,347.71 591.942,347.21 593.5,347C 594.252,346.329 594.586,345.496 594.5,344.5C 597.488,342.727 600.821,342.06 604.5,342.5 Z"/></g>
<g><path style="opacity:1" fill="#252b39" d="M 640.5,346.5 C 641.5,346.5 642.5,346.5 643.5,346.5C 644.871,348.867 646.871,350.533 649.5,351.5C 651.563,349.758 653.563,348.091 655.5,346.5C 655.5,347.167 655.5,347.833 655.5,348.5C 654.518,351.962 654.185,355.629 654.5,359.5C 653.209,359.263 652.209,359.596 651.5,360.5C 644.304,360.795 637.138,361.462 630,362.5C 624.228,362.774 622.728,360.607 625.5,356C 631.079,353.211 636.079,350.711 640.5,348.5C 640.5,347.833 640.5,347.167 640.5,346.5 Z"/></g>
<g><path style="opacity:1" fill="#6f5348" d="M 644.5,345.5 C 648.167,345.5 651.833,345.5 655.5,345.5C 655.5,345.833 655.5,346.167 655.5,346.5C 653.563,348.091 651.563,349.758 649.5,351.5C 646.871,350.533 644.871,348.867 643.5,346.5C 644.167,346.5 644.5,346.167 644.5,345.5 Z"/></g>
<g><path style="opacity:1" fill="#2a303e" d="M 372.5,354.5 C 372.806,357.945 372.806,361.611 372.5,365.5C 364.169,365.116 355.836,364.782 347.5,364.5C 347.5,362.5 347.5,360.5 347.5,358.5C 350.763,357.518 354.097,356.851 357.5,356.5C 359.199,356.34 360.866,356.506 362.5,357C 363.399,358.236 364.566,359.07 366,359.5C 368.938,358.717 371.104,357.05 372.5,354.5 Z"/></g>
<g><path style="opacity:1" fill="#696d77" d="M 655.5,348.5 C 655.5,352.5 655.5,356.5 655.5,360.5C 654.167,360.5 652.833,360.5 651.5,360.5C 652.209,359.596 653.209,359.263 654.5,359.5C 654.185,355.629 654.518,351.962 655.5,348.5 Z"/></g>
<g><path style="opacity:1" fill="#2a2f3d" d="M 441.5,358.5 C 446.324,359.752 447.324,362.252 444.5,366C 437.615,368.092 432.281,366.259 428.5,360.5C 428.343,359.127 428.51,357.793 429,356.5C 430.413,358.414 432.247,359.747 434.5,360.5C 436.51,358.829 438.843,358.162 441.5,358.5 Z"/></g>
<g><path style="opacity:1" fill="#def8f2" d="M 347.5,364.5 C 347.5,369.833 347.5,375.167 347.5,380.5C 315.329,380.832 283.329,380.498 251.5,379.5C 283.167,379.5 314.833,379.5 346.5,379.5C 346.179,374.305 346.513,369.305 347.5,364.5 Z"/></g>
</svg>
