<?xml version="1.0" encoding="UTF-8"?>
<!DOCTYPE svg PUBLIC "-//W3C//DTD SVG 1.1//EN" "http://www.w3.org/Graphics/SVG/1.1/DTD/svg11.dtd">
<svg xmlns="http://www.w3.org/2000/svg" version="1.1" width="744px" height="335px" style="shape-rendering:geometricPrecision; text-rendering:geometricPrecision; image-rendering:optimizeQuality; fill-rule:evenodd; clip-rule:evenodd" xmlns:xlink="http://www.w3.org/1999/xlink">
<g><path style="opacity:0.907" fill="#7c8089" d="M 459.5,27.5 C 459.5,27.8333 459.5,28.1667 459.5,28.5C 425.906,27.5074 392.24,27.1741 358.5,27.5C 358.5,52.1667 358.5,76.8333 358.5,101.5C 357.596,100.791 357.263,99.791 357.5,98.5C 357.167,74.4907 357.5,50.4907 358.5,26.5C 391.792,25.3407 425.125,25.174 458.5,26C 459.056,26.3826 459.389,26.8826 459.5,27.5 Z"/></g>
<g><path style="opacity:0.999" fill="#282d3c" d="M 459.5,28.5 C 459.5,55.8333 459.5,83.1667 459.5,110.5C 459.5,115.833 459.5,121.167 459.5,126.5C 459.827,147.076 459.493,167.576 458.5,188C 425.168,188.5 391.835,188.667 358.5,188.5C 358.334,179.494 358.5,170.494 359,161.5C 359.847,159.807 360.68,158.14 361.5,156.5C 362.167,165.5 362.833,174.5 363.5,183.5C 393.662,184.498 423.995,184.831 454.5,184.5C 454.5,133.5 454.5,82.5 454.5,31.5C 448.69,30.5104 442.69,30.1771 436.5,30.5C 436.5,31.5 436.5,32.5 436.5,33.5C 436.084,35.7525 434.751,37.2525 432.5,38C 416.328,38.8281 400.328,38.6614 384.5,37.5C 384.027,36.0937 383.027,35.427 381.5,35.5C 380.662,35.1583 380.328,34.4916 380.5,33.5C 380.5,32.5 380.5,31.5 380.5,30.5C 374.642,30.1778 368.975,30.5111 363.5,31.5C 362.833,56.8333 362.167,82.1667 361.5,107.5C 360.529,105.517 359.529,103.517 358.5,101.5C 358.5,76.8333 358.5,52.1667 358.5,27.5C 392.24,27.1741 425.906,27.5074 459.5,28.5 Z"/></g>
<g><path style="opacity:0.122" fill="#e5e5e5" d="M 459.5,27.5 C 460.175,55.0689 460.841,82.7356 461.5,110.5C 460.833,110.5 460.167,110.5 459.5,110.5C 459.5,83.1667 459.5,55.8333 459.5,28.5C 459.5,28.1667 459.5,27.8333 459.5,27.5 Z"/></g>
<g><path style="opacity:0.429" fill="#a7a9af" d="M 363.5,31.5 C 368.975,30.5111 374.642,30.1778 380.5,30.5C 380.5,31.5 380.5,32.5 380.5,33.5C 375.13,31.6213 369.463,30.9546 363.5,31.5 Z"/></g>
<g><path style="opacity:0.425" fill="#9c9ea5" d="M 454.5,31.5 C 454.167,31.5 453.833,31.5 453.5,31.5C 447.537,30.9546 441.87,31.6213 436.5,33.5C 436.5,32.5 436.5,31.5 436.5,30.5C 442.69,30.1771 448.69,30.5104 454.5,31.5 Z"/></g>
<g><path style="opacity:0.035" fill="#f5f6f7" d="M 453.5,31.5 C 453.833,31.5 454.167,31.5 454.5,31.5C 454.5,82.5 454.5,133.5 454.5,184.5C 423.995,184.831 393.662,184.498 363.5,183.5C 393.5,183.5 423.5,183.5 453.5,183.5C 453.5,132.833 453.5,82.1667 453.5,31.5 Z"/></g>
<g><path style="opacity:0.53" fill="#8a8c93" d="M 363.5,31.5 C 363.5,57.8333 363.5,84.1667 363.5,110.5C 362.599,109.71 361.932,108.71 361.5,107.5C 362.167,82.1667 362.833,56.8333 363.5,31.5 Z"/></g>
<g><path style="opacity:0.396" fill="#a8aab4" d="M 381.5,35.5 C 383.027,35.427 384.027,36.0937 384.5,37.5C 382.973,37.573 381.973,36.9063 381.5,35.5 Z"/></g>
<g><path style="opacity:0.392" fill="#a3a3a2" d="M 513.5,40.5 C 511.278,40.178 509.444,40.8446 508,42.5C 504.27,41.5399 500.437,41.2065 496.5,41.5C 497.374,40.4749 498.541,39.8082 500,39.5C 504.65,40.1088 509.15,40.4421 513.5,40.5 Z"/></g>
<g><path style="opacity:1" fill="#232321" d="M 513.5,40.5 C 514.167,40.5 514.5,40.8333 514.5,41.5C 514.67,42.8221 514.337,43.9887 513.5,45C 514.793,45.49 516.127,45.6567 517.5,45.5C 518.812,46.1451 519.812,47.1451 520.5,48.5C 519.193,49.865 519.193,51.1984 520.5,52.5C 520.815,56.3714 520.482,60.0381 519.5,63.5C 519.582,61.7483 518.749,60.7483 517,60.5C 511.68,62.8849 508.18,61.3849 506.5,56C 502.848,55.5014 499.182,55.3347 495.5,55.5C 494.833,55.5 494.167,55.5 493.5,55.5C 492.415,52.8959 491.082,50.5626 489.5,48.5C 488.314,47.0387 488.314,45.7054 489.5,44.5C 491.732,43.1311 494.066,42.1311 496.5,41.5C 500.437,41.2065 504.27,41.5399 508,42.5C 509.444,40.8446 511.278,40.178 513.5,40.5 Z"/></g>
<g><path style="opacity:0.357" fill="#b7b7b7" d="M 496.5,41.5 C 494.066,42.1311 491.732,43.1311 489.5,44.5C 489.414,43.5041 489.748,42.6708 490.5,42C 492.473,41.5045 494.473,41.3379 496.5,41.5 Z"/></g>
<g><path style="opacity:0.129" fill="#d4d4d3" d="M 514.5,41.5 C 515.341,42.9264 516.341,44.2597 517.5,45.5C 516.127,45.6567 514.793,45.49 513.5,45C 514.337,43.9887 514.67,42.8221 514.5,41.5 Z"/></g>
<g><path style="opacity:0.988" fill="#dde1e4" d="M 379.5,48.5 C 387.653,49.6285 395.819,49.6285 404,48.5C 408.835,48.3292 413.502,48.9958 418,50.5C 420.601,63.4058 420.935,76.4058 419,89.5C 418.626,90.4162 418.126,91.2496 417.5,92C 414.925,92.958 412.259,93.458 409.5,93.5C 399.971,93.2645 390.471,93.2645 381,93.5C 379.527,93.0969 378.194,92.4303 377,91.5C 375.853,79.2165 375.02,66.8832 374.5,54.5C 375.497,51.845 377.164,49.845 379.5,48.5 Z"/></g>
<g><path style="opacity:0.999" fill="#dfe3e7" d="M 429.5,48.5 C 440.426,47.1395 444.593,51.8062 442,62.5C 441.727,64.3289 440.893,65.8289 439.5,67C 424.587,71.4201 419.42,66.2534 424,51.5C 425.719,50.1312 427.552,49.1312 429.5,48.5 Z"/></g>
<g><path style="opacity:0.404" fill="#a7a7a6" d="M 489.5,48.5 C 491.082,50.5626 492.415,52.8959 493.5,55.5C 492.504,55.5858 491.671,55.2524 491,54.5C 490.685,52.4144 490.185,50.4144 489.5,48.5 Z"/></g>
<g><path style="opacity:1" fill="#232320" d="M 339.5,54.5 C 339.973,55.9063 340.973,56.573 342.5,56.5C 342.427,58.0269 343.094,59.0269 344.5,59.5C 344.833,62.1667 345.167,64.8333 345.5,67.5C 339.838,67.1801 334.338,67.8468 329,69.5C 326.144,66.5646 324.311,67.0646 323.5,71C 323.468,72.9711 324.302,74.4711 326,75.5C 326.498,78.4816 326.665,81.4816 326.5,84.5C 324.5,84.5 322.5,84.5 320.5,84.5C 320.332,68.5138 319.832,68.5138 319,84.5C 318.063,76.3586 318.563,68.3586 320.5,60.5C 320.328,59.5084 320.662,58.8417 321.5,58.5C 323.167,57.5 324.5,56.1667 325.5,54.5C 327.462,52.9827 329.795,52.3161 332.5,52.5C 335.205,52.3161 337.538,52.9827 339.5,54.5 Z"/></g>
<g><path style="opacity:0.027" fill="#cdcdcc" d="M 339.5,54.5 C 341.027,54.427 342.027,55.0937 342.5,56.5C 340.973,56.573 339.973,55.9063 339.5,54.5 Z"/></g>
<g><path style="opacity:1" fill="#47caf8" d="M 382.5,52.5 C 388.092,58.7582 394.092,64.7582 400.5,70.5C 400.5,70.8333 400.5,71.1667 400.5,71.5C 394.833,76.5 389.5,81.8333 384.5,87.5C 383.417,87.5394 382.417,87.8728 381.5,88.5C 380.334,76.8476 380.167,65.1809 381,53.5C 381.383,52.944 381.883,52.6107 382.5,52.5 Z"/></g>
<g><path style="opacity:0.549" fill="#a6a6a5" d="M 325.5,54.5 C 324.5,56.1667 323.167,57.5 321.5,58.5C 321.833,56.1667 323.167,54.8333 325.5,54.5 Z"/></g>
<g><path style="opacity:1" fill="#7c5b4d" d="M 495.5,55.5 C 499.182,55.3347 502.848,55.5014 506.5,56C 508.18,61.3849 511.68,62.8849 517,60.5C 518.749,60.7483 519.582,61.7483 519.5,63.5C 518.539,65.2646 518.205,67.2646 518.5,69.5C 515.983,73.204 515.983,76.8707 518.5,80.5C 515.899,81.2796 513.899,82.9463 512.5,85.5C 507.065,87.8995 503.565,86.2329 502,80.5C 501.329,79.7476 500.496,79.4142 499.5,79.5C 499.267,77.9382 498.6,76.6049 497.5,75.5C 495.676,69.0124 495.009,62.3457 495.5,55.5 Z"/></g>
<g><path style="opacity:0.173" fill="#e6dddb" d="M 252.5,58.5 C 257.119,56.9536 261.452,57.6203 265.5,60.5C 261.296,59.0898 256.963,58.4231 252.5,58.5 Z"/></g>
<g><path style="opacity:0.282" fill="#c4c4c4" d="M 342.5,56.5 C 343.906,56.9731 344.573,57.9731 344.5,59.5C 343.094,59.0269 342.427,58.0269 342.5,56.5 Z"/></g>
<g><path style="opacity:1" fill="#50fc50" d="M 382.5,52.5 C 390.566,56.8639 398.566,61.1972 406.5,65.5C 404.5,67.1667 402.5,68.8333 400.5,70.5C 394.092,64.7582 388.092,58.7582 382.5,52.5 Z"/></g>
<g><path style="opacity:1" fill="#765141" d="M 252.5,58.5 C 256.963,58.4231 261.296,59.0898 265.5,60.5C 268.5,61.5 270.5,63.5 271.5,66.5C 270.532,69.0439 268.865,71.2105 266.5,73C 262.141,73.5343 257.808,73.3676 253.5,72.5C 253.799,74.604 253.466,76.604 252.5,78.5C 251.278,76.0217 249.278,75.0217 246.5,75.5C 245.891,79.0053 247.058,81.672 250,83.5C 250.765,85.0657 250.598,86.3991 249.5,87.5C 246.818,85.4697 245.151,82.803 244.5,79.5C 244.073,75.1756 243.739,70.8422 243.5,66.5C 245.018,62.2302 248.018,59.5635 252.5,58.5 Z"/></g>
<g><path style="opacity:1" fill="#9c938e" d="M 520.5,52.5 C 521.645,56.3112 521.812,60.3112 521,64.5C 520.626,66.4913 519.793,68.158 518.5,69.5C 518.205,67.2646 518.539,65.2646 519.5,63.5C 520.482,60.0381 520.815,56.3714 520.5,52.5 Z"/></g>
<g><path style="opacity:1" fill="#fcd319" d="M 406.5,65.5 C 409.634,66.9009 412.634,68.5675 415.5,70.5C 415.023,71.4776 414.357,72.3109 413.5,73C 410.936,74.3961 408.269,75.5627 405.5,76.5C 404.167,74.5 402.5,72.8333 400.5,71.5C 400.5,71.1667 400.5,70.8333 400.5,70.5C 402.5,68.8333 404.5,67.1667 406.5,65.5 Z"/></g>
<g><path style="opacity:0.422" fill="#c5b6af" d="M 243.5,66.5 C 243.739,70.8422 244.073,75.1756 244.5,79.5C 242.473,75.2632 242.139,70.9298 243.5,66.5 Z"/></g>
<g><path style="opacity:1" fill="#f7cebb" d="M 271.5,66.5 C 273.319,74.6611 272.486,82.6611 269,90.5C 267.59,91.7875 266.09,92.9542 264.5,94C 265.056,94.3826 265.389,94.8826 265.5,95.5C 263.395,96.9875 261.728,98.9875 260.5,101.5C 253.541,103.555 249.874,100.889 249.5,93.5C 249.5,91.5 249.5,89.5 249.5,87.5C 250.598,86.3991 250.765,85.0657 250,83.5C 247.058,81.672 245.891,79.0053 246.5,75.5C 249.278,75.0217 251.278,76.0217 252.5,78.5C 253.466,76.604 253.799,74.604 253.5,72.5C 257.808,73.3676 262.141,73.5343 266.5,73C 268.865,71.2105 270.532,69.0439 271.5,66.5 Z"/></g>
<g><path style="opacity:0.247" fill="#d2c6c1" d="M 493.5,55.5 C 494.167,55.5 494.833,55.5 495.5,55.5C 495.009,62.3457 495.676,69.0124 497.5,75.5C 496.21,74.9423 495.377,73.9423 495,72.5C 494.788,66.7521 494.288,61.0855 493.5,55.5 Z"/></g>
<g><path style="opacity:1" fill="#fd3836" d="M 400.5,71.5 C 402.5,72.8333 404.167,74.5 405.5,76.5C 398.631,80.4344 391.631,84.1011 384.5,87.5C 389.5,81.8333 394.833,76.5 400.5,71.5 Z"/></g>
<g><path style="opacity:0.742" fill="#929290" d="M 320.5,60.5 C 318.563,68.3586 318.063,76.3586 319,84.5C 319.832,68.5138 320.332,68.5138 320.5,84.5C 322.5,84.5 324.5,84.5 326.5,84.5C 326.5,85.1667 326.167,85.5 325.5,85.5C 322.518,85.8273 319.685,85.8273 317,85.5C 316.888,78.8337 317.221,72.1671 318,65.5C 318.374,63.5087 319.207,61.842 320.5,60.5 Z"/></g>
<g><path style="opacity:1" fill="#e0e4e7" d="M 426.5,73.5 C 439.364,70.7295 444.53,75.7295 442,88.5C 441.535,89.9308 440.701,91.0975 439.5,92C 424.849,96.3461 419.349,91.1794 423,76.5C 424.145,75.3636 425.312,74.3636 426.5,73.5 Z"/></g>
<g><path style="opacity:0.843" fill="#8a8d95" d="M 499.5,79.5 C 497.967,81.2451 495.967,82.2451 493.5,82.5C 495.033,80.7549 497.033,79.7549 499.5,79.5 Z"/></g>
<g><path style="opacity:1" fill="#242a39" d="M 499.5,79.5 C 500.496,79.4142 501.329,79.7476 502,80.5C 503.565,86.2329 507.065,87.8995 512.5,85.5C 513.899,82.9463 515.899,81.2796 518.5,80.5C 522.813,81.9899 526.813,83.9899 530.5,86.5C 531.785,88.4516 533.451,90.1182 535.5,91.5C 536.338,91.8417 536.672,92.5084 536.5,93.5C 536.259,95.8984 536.926,97.8984 538.5,99.5C 539.451,100.919 539.784,102.585 539.5,104.5C 539.818,109.032 539.485,113.366 538.5,117.5C 533.27,116.346 527.936,115.68 522.5,115.5C 522.942,119.154 523.276,122.821 523.5,126.5C 512.269,128.766 501.102,131.432 490,134.5C 488.97,134.164 488.47,133.497 488.5,132.5C 488.5,132.167 488.5,131.833 488.5,131.5C 488.184,123.784 487.35,116.118 486,108.5C 485.888,113.238 485.722,117.904 485.5,122.5C 484.16,121.133 482.827,119.8 481.5,118.5C 481.573,116.973 480.906,115.973 479.5,115.5C 476.948,112.613 475.282,109.28 474.5,105.5C 474.893,103.716 475.559,102.05 476.5,100.5C 478.294,98.2034 480.294,96.0367 482.5,94C 482.167,93.6667 481.833,93.3333 481.5,93C 482.823,92.1841 483.489,91.0174 483.5,89.5C 486.125,86.1848 489.458,83.8514 493.5,82.5C 495.967,82.2451 497.967,81.2451 499.5,79.5 Z"/></g>
<g><path style="opacity:0.981" fill="#f7d7b1" d="M 344.5,59.5 C 345.991,62.1864 346.657,65.1864 346.5,68.5C 345.865,74.1516 345.532,79.8182 345.5,85.5C 343.5,85.5 341.5,85.5 339.5,85.5C 339.343,86.8734 339.51,88.2068 340,89.5C 342.531,91.9033 345.364,93.5699 348.5,94.5C 346.856,94.2865 345.356,94.6198 344,95.5C 340.667,100.833 337.333,106.167 334,111.5C 330.73,104.513 327.563,97.5126 324.5,90.5C 325.451,89.0813 325.784,87.4147 325.5,85.5C 326.167,85.5 326.5,85.1667 326.5,84.5C 326.665,81.4816 326.498,78.4816 326,75.5C 324.302,74.4711 323.468,72.9711 323.5,71C 324.311,67.0646 326.144,66.5646 329,69.5C 334.338,67.8468 339.838,67.1801 345.5,67.5C 345.167,64.8333 344.833,62.1667 344.5,59.5 Z"/></g>
<g><path style="opacity:0.965" fill="#423f3b" d="M 343.5,78.5 C 344.461,80.2646 344.795,82.2646 344.5,84.5C 342.473,84.6621 340.473,84.4955 338.5,84C 341.056,82.9455 342.723,81.1122 343.5,78.5 Z"/></g>
<g><path style="opacity:0.553" fill="#a3a5ac" d="M 530.5,86.5 C 533.189,87.1894 534.856,88.856 535.5,91.5C 533.451,90.1182 531.785,88.4516 530.5,86.5 Z"/></g>
<g><path style="opacity:0.851" fill="#ffeb9e" d="M 321.5,90.5 C 319.095,91.7682 316.428,92.4349 313.5,92.5C 315.838,90.9605 318.505,90.2938 321.5,90.5 Z"/></g>
<g><path style="opacity:1" fill="#fdd533" d="M 321.5,90.5 C 322.5,90.5 323.5,90.5 324.5,90.5C 327.563,97.5126 330.73,104.513 334,111.5C 337.333,106.167 340.667,100.833 344,95.5C 345.356,94.6198 346.856,94.2865 348.5,94.5C 351.878,95.0231 354.878,96.3565 357.5,98.5C 357.263,99.791 357.596,100.791 358.5,101.5C 359.529,103.517 360.529,105.517 361.5,107.5C 361.932,108.71 362.599,109.71 363.5,110.5C 364.11,111.391 364.443,112.391 364.5,113.5C 364.528,116.916 365.528,119.916 367.5,122.5C 367.5,122.833 367.5,123.167 367.5,123.5C 368.49,130.797 369.156,138.13 369.5,145.5C 368.486,147.574 367.486,149.574 366.5,151.5C 365.167,152.167 364.167,153.167 363.5,154.5C 363.167,154.5 362.833,154.5 362.5,154.5C 359.547,154.85 357.213,153.85 355.5,151.5C 355.822,145.642 355.489,139.975 354.5,134.5C 353.094,134.027 352.427,133.027 352.5,131.5C 351.207,130.355 350.041,130.689 349,132.5C 347.542,134.96 345.709,137.127 343.5,139C 344.577,139.47 345.577,139.303 346.5,138.5C 346.5,139.833 346.5,141.167 346.5,142.5C 343.167,142.5 339.833,142.5 336.5,142.5C 337.333,140.248 337.333,138.081 336.5,136C 329.174,135.5 321.841,135.334 314.5,135.5C 314.598,133.447 313.931,131.78 312.5,130.5C 312.5,130.167 312.5,129.833 312.5,129.5C 312.013,128.527 311.513,127.527 311,126.5C 310.502,129.817 310.335,133.15 310.5,136.5C 305.5,136.5 300.5,136.5 295.5,136.5C 295.5,133.833 295.5,131.167 295.5,128.5C 296.492,123.293 297.492,117.96 298.5,112.5C 299.127,108.58 300.793,105.247 303.5,102.5C 304.906,102.027 305.573,101.027 305.5,99.5C 307.833,97.8333 309.833,95.8333 311.5,93.5C 311.842,92.6618 312.508,92.3284 313.5,92.5C 316.428,92.4349 319.095,91.7682 321.5,90.5 Z"/></g>
<g><path style="opacity:1" fill="#747882" d="M 483.5,89.5 C 483.489,91.0174 482.823,92.1841 481.5,93C 481.833,93.3333 482.167,93.6667 482.5,94C 480.294,96.0367 478.294,98.2034 476.5,100.5C 478.087,96.3171 480.421,92.6505 483.5,89.5 Z"/></g>
<g><path style="opacity:1" fill="#bebcbc" d="M 249.5,93.5 C 249.874,100.889 253.541,103.555 260.5,101.5C 261.728,98.9875 263.395,96.9875 265.5,95.5C 276.933,98.8564 284.266,106.19 287.5,117.5C 288.227,124.158 288.893,130.825 289.5,137.5C 287.208,137.244 285.041,137.577 283,138.5C 281.262,143.024 280.095,147.69 279.5,152.5C 277.833,152.5 276.167,152.5 274.5,152.5C 274.5,154.5 274.5,156.5 274.5,158.5C 272.5,158.5 270.5,158.5 268.5,158.5C 255.866,157.017 243.199,155.017 230.5,152.5C 229.526,154.743 229.192,157.076 229.5,159.5C 229.167,159.5 228.833,159.5 228.5,159.5C 229.244,154.298 228.077,149.631 225,145.5C 224.135,135.448 224.469,125.448 226,115.5C 226.903,111.195 228.737,107.361 231.5,104C 237.744,100.768 243.744,97.2683 249.5,93.5 Z"/></g>
<g><path style="opacity:0.525" fill="#fff1be" d="M 311.5,93.5 C 309.833,95.8333 307.833,97.8333 305.5,99.5C 306.5,96.5 308.5,94.5 311.5,93.5 Z"/></g>
<g><path style="opacity:0.596" fill="#9698a0" d="M 536.5,93.5 C 538.074,95.1016 538.741,97.1016 538.5,99.5C 536.926,97.8984 536.259,95.8984 536.5,93.5 Z"/></g>
<g><path style="opacity:1" fill="#dce0e4" d="M 378.5,98.5 C 399.19,98.1773 419.857,98.6773 440.5,100C 441.231,111.607 441.897,123.274 442.5,135C 442.668,138.541 441.334,141.208 438.5,143C 433.833,143.167 429.167,143.333 424.5,143.5C 411.533,142.227 398.699,142.227 386,143.5C 383.26,142.718 380.426,142.218 377.5,142C 377,141.5 376.5,141 376,140.5C 375.333,127.5 375.333,114.5 376,101.5C 377.045,100.627 377.878,99.6266 378.5,98.5 Z"/></g>
<g><path style="opacity:0.412" fill="#fff1b9" d="M 305.5,99.5 C 305.573,101.027 304.906,102.027 303.5,102.5C 303.427,100.973 304.094,99.9731 305.5,99.5 Z"/></g>
<g><path style="opacity:1" fill="#866658" d="M 459.5,110.5 C 460.167,110.5 460.833,110.5 461.5,110.5C 466.368,118.079 469.701,126.413 471.5,135.5C 466.211,136.611 462.877,134.278 461.5,128.5C 461.167,127.5 460.5,126.833 459.5,126.5C 459.5,121.167 459.5,115.833 459.5,110.5 Z"/></g>
<g><path style="opacity:0.992" fill="#87695d" d="M 474.5,105.5 C 475.282,109.28 476.948,112.613 479.5,115.5C 476.391,115.345 473.391,114.678 470.5,113.5C 471.127,112.583 471.461,111.583 471.5,110.5C 472.11,108.566 473.11,106.899 474.5,105.5 Z"/></g>
<g><path style="opacity:0.749" fill="#ffefad" d="M 298.5,112.5 C 297.492,117.96 296.492,123.293 295.5,128.5C 295.5,128.167 295.5,127.833 295.5,127.5C 295.124,122.106 296.124,117.106 298.5,112.5 Z"/></g>
<g><path style="opacity:0.126" fill="#e2e1e0" d="M 461.5,110.5 C 465.076,113.969 468.409,113.969 471.5,110.5C 471.461,111.583 471.127,112.583 470.5,113.5C 473.391,114.678 476.391,115.345 479.5,115.5C 480.906,115.973 481.573,116.973 481.5,118.5C 481.621,121.105 482.621,123.105 484.5,124.5C 483.777,126.164 484.11,127.831 485.5,129.5C 484.842,130.398 484.176,131.398 483.5,132.5C 482.15,131.05 480.484,130.383 478.5,130.5C 478.22,137.88 481.887,141.213 489.5,140.5C 489.5,141.167 489.5,141.833 489.5,142.5C 484.453,141.993 479.453,141.16 474.5,140C 473.601,138.348 472.601,136.848 471.5,135.5C 469.701,126.413 466.368,118.079 461.5,110.5 Z M 473.5,120.5 C 476.407,121.614 476.907,123.281 475,125.5C 473.731,124.095 473.231,122.429 473.5,120.5 Z"/></g>
<g><path style="opacity:0.78" fill="#ffeda5" d="M 364.5,113.5 C 366.072,116.215 367.072,119.215 367.5,122.5C 365.528,119.916 364.528,116.916 364.5,113.5 Z"/></g>
<g><path style="opacity:1" fill="#7d5c4e" d="M 538.5,117.5 C 538.665,121.182 538.499,124.848 538,128.5C 536.587,130.652 535.754,132.986 535.5,135.5C 535.027,136.906 534.027,137.573 532.5,137.5C 531.391,137.557 530.391,137.89 529.5,138.5C 516.169,139.193 502.836,139.86 489.5,140.5C 481.887,141.213 478.22,137.88 478.5,130.5C 480.484,130.383 482.15,131.05 483.5,132.5C 484.176,131.398 484.842,130.398 485.5,129.5C 486.167,129.5 486.5,129.833 486.5,130.5C 486.328,131.492 486.662,132.158 487.5,132.5C 487.833,132.5 488.167,132.5 488.5,132.5C 488.47,133.497 488.97,134.164 490,134.5C 501.102,131.432 512.269,128.766 523.5,126.5C 523.276,122.821 522.942,119.154 522.5,115.5C 527.936,115.68 533.27,116.346 538.5,117.5 Z"/></g>
<g><path style="opacity:0.643" fill="#8d898c" d="M 488.5,131.5 C 487.833,131.5 487.5,131.833 487.5,132.5C 486.662,132.158 486.328,131.492 486.5,130.5C 487.764,128.228 487.598,125.895 486,123.5C 485.617,124.056 485.117,124.389 484.5,124.5C 482.621,123.105 481.621,121.105 481.5,118.5C 482.827,119.8 484.16,121.133 485.5,122.5C 485.722,117.904 485.888,113.238 486,108.5C 487.35,116.118 488.184,123.784 488.5,131.5 Z"/></g>
<g><path style="opacity:1" fill="#c2b2ac" d="M 539.5,104.5 C 540.717,113.029 540.551,121.696 539,130.5C 538.303,132.584 537.136,134.251 535.5,135.5C 535.754,132.986 536.587,130.652 538,128.5C 538.499,124.848 538.665,121.182 538.5,117.5C 539.485,113.366 539.818,109.032 539.5,104.5 Z"/></g>
<g><path style="opacity:0.804" fill="#ffea99" d="M 367.5,123.5 C 370.265,130.682 370.932,138.015 369.5,145.5C 369.156,138.13 368.49,130.797 367.5,123.5 Z"/></g>
<g><path style="opacity:1" fill="#f2e3ac" d="M 312.5,129.5 C 311.596,130.209 311.263,131.209 311.5,132.5C 311.5,134.167 311.5,135.833 311.5,137.5C 305.974,137.821 300.64,137.488 295.5,136.5C 300.5,136.5 305.5,136.5 310.5,136.5C 310.335,133.15 310.502,129.817 311,126.5C 311.513,127.527 312.013,128.527 312.5,129.5 Z"/></g>
<g><path style="opacity:0.995" fill="#e5e5e4" d="M 287.5,117.5 C 289.509,122.856 290.676,128.523 291,134.5C 291.71,135.973 292.876,136.64 294.5,136.5C 294.19,133.287 294.523,130.287 295.5,127.5C 295.5,127.833 295.5,128.167 295.5,128.5C 295.5,131.167 295.5,133.833 295.5,136.5C 300.64,137.488 305.974,137.821 311.5,137.5C 311.5,135.833 311.5,134.167 311.5,132.5C 312.338,132.158 312.672,131.492 312.5,130.5C 313.931,131.78 314.598,133.447 314.5,135.5C 321.841,135.334 329.174,135.5 336.5,136C 337.333,138.081 337.333,140.248 336.5,142.5C 333.856,151.402 331.356,160.402 329,169.5C 324.732,170.14 320.565,170.807 316.5,171.5C 301.841,172.355 287.174,172.522 272.5,172C 267.93,170.226 263.93,167.726 260.5,164.5C 265.735,162.55 271.402,161.883 277.5,162.5C 277.532,160.381 276.532,159.048 274.5,158.5C 274.5,156.5 274.5,154.5 274.5,152.5C 276.167,152.5 277.833,152.5 279.5,152.5C 280.095,147.69 281.262,143.024 283,138.5C 285.041,137.577 287.208,137.244 289.5,137.5C 288.893,130.825 288.227,124.158 287.5,117.5 Z M 271.5,166.5 C 273.225,166.843 273.725,167.843 273,169.5C 271.961,168.756 271.461,167.756 271.5,166.5 Z"/></g>
<g><path style="opacity:0.871" fill="#d4be70" d="M 352.5,131.5 C 350.588,133.657 348.921,135.991 347.5,138.5C 347.167,138.5 346.833,138.5 346.5,138.5C 345.577,139.303 344.577,139.47 343.5,139C 345.709,137.127 347.542,134.96 349,132.5C 350.041,130.689 351.207,130.355 352.5,131.5 Z"/></g>
<g><path style="opacity:1" fill="#252937" d="M 529.5,138.5 C 529.5,141.833 529.5,145.167 529.5,148.5C 526.5,148.5 523.5,148.5 520.5,148.5C 518.5,148.5 516.5,148.5 514.5,148.5C 506.743,146.731 498.743,146.065 490.5,146.5C 490.167,146.5 489.833,146.5 489.5,146.5C 489.5,145.167 489.5,143.833 489.5,142.5C 489.5,141.833 489.5,141.167 489.5,140.5C 502.836,139.86 516.169,139.193 529.5,138.5 Z"/></g>
<g><path style="opacity:0.121" fill="#d3d4d6" d="M 459.5,126.5 C 460.5,126.833 461.167,127.5 461.5,128.5C 460.828,148.569 460.161,168.736 459.5,189C 425.664,189.831 391.998,189.664 358.5,188.5C 391.835,188.667 425.168,188.5 458.5,188C 459.493,167.576 459.827,147.076 459.5,126.5 Z"/></g>
<g><path style="opacity:1" fill="#878585" d="M 245.5,143.5 C 246.946,142.387 248.613,142.22 250.5,143C 257.183,145.002 263.85,147.002 270.5,149C 268.833,149.667 267.167,149.667 265.5,149C 258.971,146.596 252.305,144.762 245.5,143.5 Z"/></g>
<g><path style="opacity:0.502" fill="#fff2c0" d="M 354.5,134.5 C 355.489,139.975 355.822,145.642 355.5,151.5C 354.566,150.228 353.899,148.728 353.5,147C 354.404,142.889 354.737,138.722 354.5,134.5 Z"/></g>
<g><path style="opacity:0.608" fill="#9c9ea4" d="M 532.5,137.5 C 531.196,141.36 530.529,145.36 530.5,149.5C 526.958,149.813 523.625,149.479 520.5,148.5C 523.5,148.5 526.5,148.5 529.5,148.5C 529.5,145.167 529.5,141.833 529.5,138.5C 530.391,137.89 531.391,137.557 532.5,137.5 Z"/></g>
<g><path style="opacity:1" fill="#5e626c" d="M 490.5,146.5 C 498.743,146.065 506.743,146.731 514.5,148.5C 506.325,148.159 498.325,147.492 490.5,146.5 Z"/></g>
<g><path style="opacity:0.997" fill="#e5e5e5" d="M 489.5,146.5 C 489.833,146.5 490.167,146.5 490.5,146.5C 498.325,147.492 506.325,148.159 514.5,148.5C 516.5,148.5 518.5,148.5 520.5,148.5C 523.625,149.479 526.958,149.813 530.5,149.5C 531.983,164.402 532.649,179.402 532.5,194.5C 532.172,222.906 531.505,251.24 530.5,279.5C 530.167,279.5 529.833,279.5 529.5,279.5C 526.604,278.225 523.604,278.225 520.5,279.5C 519.5,279.5 518.5,279.5 517.5,279.5C 517.918,278.778 518.584,278.278 519.5,278C 515.246,249.223 511.079,220.39 507,191.5C 505.875,196.646 504.709,201.646 503.5,206.5C 504.183,198.402 505.516,190.402 507.5,182.5C 506.226,177.858 505.06,173.191 504,168.5C 501.693,182.752 501.027,197.086 502,211.5C 502.21,209.942 502.71,208.609 503.5,207.5C 499.955,229.144 496.455,250.811 493,272.5C 492.591,274.991 491.424,276.991 489.5,278.5C 500.087,280.136 500.087,281.136 489.5,281.5C 489.815,285.371 489.482,289.038 488.5,292.5C 488.5,287.167 488.5,281.833 488.5,276.5C 485.467,276.132 482.8,276.798 480.5,278.5C 479.939,275.718 479.606,272.884 479.5,270C 481.796,234.152 484.296,198.319 487,162.5C 487.513,157.07 488.347,151.736 489.5,146.5 Z"/></g>
<g><path style="opacity:1" fill="#45d9b2" d="M 346.5,138.5 C 346.833,138.5 347.167,138.5 347.5,138.5C 347.338,140.527 347.505,142.527 348,144.5C 349.86,148.22 351.693,151.886 353.5,155.5C 353.719,156.675 353.386,157.675 352.5,158.5C 350.336,159.414 348.336,160.581 346.5,162C 347.793,162.49 349.127,162.657 350.5,162.5C 349.671,165.469 349.505,168.469 350,171.5C 352.245,172.795 353.745,172.128 354.5,169.5C 355.498,205.329 355.832,241.329 355.5,277.5C 354.5,277.5 353.5,277.5 352.5,277.5C 350.5,277.5 348.5,277.5 346.5,277.5C 345.508,277.672 344.842,277.338 344.5,276.5C 344.5,274.833 344.5,273.167 344.5,271.5C 344.771,266.566 344.104,261.9 342.5,257.5C 341.535,250.883 340.868,244.216 340.5,237.5C 340.582,229.55 339.582,221.884 337.5,214.5C 336.728,210.548 336.395,206.548 336.5,202.5C 336.811,197.234 336.145,192.234 334.5,187.5C 334.5,187.167 334.5,186.833 334.5,186.5C 334.663,184.143 334.497,181.81 334,179.5C 332.991,181.025 332.491,182.692 332.5,184.5C 325.866,207.393 318.866,230.06 311.5,252.5C 310.076,254.515 309.41,256.848 309.5,259.5C 308.626,264 307.293,268.333 305.5,272.5C 304.833,273.5 304.167,274.5 303.5,275.5C 301.716,275.107 300.05,274.441 298.5,273.5C 297.659,271.621 297.325,269.621 297.5,267.5C 297.569,262.146 297.902,256.813 298.5,251.5C 300.239,244.412 300.906,237.079 300.5,229.5C 300.899,223.64 300.899,217.974 300.5,212.5C 305.031,201.767 309.864,191.1 315,180.5C 316.149,177.607 316.649,174.607 316.5,171.5C 320.565,170.807 324.732,170.14 329,169.5C 331.356,160.402 333.856,151.402 336.5,142.5C 339.833,142.5 343.167,142.5 346.5,142.5C 346.5,141.167 346.5,139.833 346.5,138.5 Z"/></g>
<g><path style="opacity:0.999" fill="#def8f1" d="M 379.5,148.5 C 392.787,146.049 397.62,151.382 394,164.5C 392.585,167.705 390.085,169.372 386.5,169.5C 383.187,168.882 380.021,167.882 377,166.5C 375.445,161.618 375.112,156.618 376,151.5C 377.145,150.364 378.312,149.364 379.5,148.5 Z"/></g>
<g><path style="opacity:0.999" fill="#dff8f2" d="M 403.5,148.5 C 417.009,146.17 421.842,151.504 418,164.5C 417.535,165.931 416.701,167.097 415.5,168C 401.259,171.421 396.092,165.921 400,151.5C 401.145,150.364 402.312,149.364 403.5,148.5 Z"/></g>
<g><path style="opacity:1" fill="#87e6cb" d="M 440.5,165.5 C 440.826,161.116 440.492,156.783 439.5,152.5C 434.833,151.167 430.167,151.167 425.5,152.5C 424.508,156.783 424.174,161.116 424.5,165.5C 423.352,161.019 423.185,156.352 424,151.5C 424.5,151 425,150.5 425.5,150C 430.751,149.196 435.918,149.363 441,150.5C 443.133,155.727 442.967,160.727 440.5,165.5 Z"/></g>
<g><path style="opacity:1" fill="#42d9b2" d="M 440.5,165.5 C 440.389,166.117 440.056,166.617 439.5,167C 434.833,167.667 430.167,167.667 425.5,167C 424.944,166.617 424.611,166.117 424.5,165.5C 424.174,161.116 424.508,156.783 425.5,152.5C 430.167,151.167 434.833,151.167 439.5,152.5C 440.492,156.783 440.826,161.116 440.5,165.5 Z"/></g>
<g><path style="opacity:1" fill="#888888" d="M 268.5,158.5 C 255.503,158.928 242.503,159.262 229.5,159.5C 229.192,157.076 229.526,154.743 230.5,152.5C 243.199,155.017 255.866,157.017 268.5,158.5 Z"/></g>
<g><path style="opacity:0.934" fill="#ead2b3" d="M 355.5,151.5 C 357.213,153.85 359.547,154.85 362.5,154.5C 362.167,155.167 361.833,155.833 361.5,156.5C 360.68,158.14 359.847,159.807 359,161.5C 358.5,170.494 358.334,179.494 358.5,188.5C 357.833,181.167 357.167,173.833 356.5,166.5C 355.599,167.29 354.932,168.29 354.5,169.5C 353.745,172.128 352.245,172.795 350,171.5C 349.505,168.469 349.671,165.469 350.5,162.5C 349.127,162.657 347.793,162.49 346.5,162C 348.336,160.581 350.336,159.414 352.5,158.5C 353.386,157.675 353.719,156.675 353.5,155.5C 355.104,154.713 355.771,153.38 355.5,151.5 Z"/></g>
<g><path style="opacity:0.027" fill="#fff9e4" d="M 366.5,151.5 C 366.5,153.5 365.5,154.5 363.5,154.5C 364.167,153.167 365.167,152.167 366.5,151.5 Z"/></g>
<g><path style="opacity:1" fill="#393e4c" d="M 268.5,158.5 C 270.5,158.5 272.5,158.5 274.5,158.5C 276.532,159.048 277.532,160.381 277.5,162.5C 271.402,161.883 265.735,162.55 260.5,164.5C 259.883,164.389 259.383,164.056 259,163.5C 258.333,164.833 258.333,166.167 259,167.5C 263.364,173.354 267.864,179.021 272.5,184.5C 273.412,186.595 274.579,188.595 276,190.5C 276.667,193.5 276.667,196.5 276,199.5C 270.743,222.05 266.243,244.716 262.5,267.5C 259.5,267.5 256.5,267.5 253.5,267.5C 252.571,245.328 252.404,222.995 253,200.5C 246.33,194.662 239.83,188.662 233.5,182.5C 233.573,180.973 232.906,179.973 231.5,179.5C 230.326,178.486 229.66,177.153 229.5,175.5C 228.658,170.213 228.324,164.88 228.5,159.5C 228.833,159.5 229.167,159.5 229.5,159.5C 242.503,159.262 255.503,158.928 268.5,158.5 Z"/></g>
<g><path style="opacity:0.506" fill="#c1c2c8" d="M 228.5,159.5 C 228.324,164.88 228.658,170.213 229.5,175.5C 228.778,175.082 228.278,174.416 228,173.5C 227.185,168.648 227.352,163.981 228.5,159.5 Z"/></g>
<g><path style="opacity:0.999" fill="#272d3b" d="M 260.5,164.5 C 263.93,167.726 267.93,170.226 272.5,172C 287.174,172.522 301.841,172.355 316.5,171.5C 316.649,174.607 316.149,177.607 315,180.5C 309.864,191.1 305.031,201.767 300.5,212.5C 299.439,215.622 298.105,218.622 296.5,221.5C 295.833,221.5 295.167,221.5 294.5,221.5C 293.287,218.775 291.454,216.441 289,214.5C 288.503,211.854 288.336,209.187 288.5,206.5C 289.474,199.309 290.807,192.309 292.5,185.5C 293.404,184.791 293.737,183.791 293.5,182.5C 286.443,182.621 279.443,183.288 272.5,184.5C 267.864,179.021 263.364,173.354 259,167.5C 258.333,166.167 258.333,164.833 259,163.5C 259.383,164.056 259.883,164.389 260.5,164.5 Z"/></g>
<g><path style="opacity:1" fill="#acacac" d="M 524.5,154.5 C 525.832,162.974 526.498,171.807 526.5,181C 527.414,213.164 527.581,245.331 527,277.5C 526.269,240.484 525.102,203.484 523.5,166.5C 521.216,165.418 520.05,163.752 520,161.5C 521.019,162.687 522.186,163.687 523.5,164.5C 524.487,161.232 524.82,157.898 524.5,154.5 Z"/></g>
<g><path style="opacity:0.522" fill="#8a8d95" d="M 362.5,154.5 C 362.833,154.5 363.167,154.5 363.5,154.5C 363.5,164.167 363.5,173.833 363.5,183.5C 362.833,174.5 362.167,165.5 361.5,156.5C 361.833,155.833 362.167,155.167 362.5,154.5 Z"/></g>
<g><path style="opacity:0.997" fill="#c5c5c5" d="M 503.5,206.5 C 503.5,206.833 503.5,207.167 503.5,207.5C 502.71,208.609 502.21,209.942 502,211.5C 501.027,197.086 501.693,182.752 504,168.5C 505.06,173.191 506.226,177.858 507.5,182.5C 505.516,190.402 504.183,198.402 503.5,206.5 Z"/></g>
<g><path style="opacity:0.806" fill="#616570" d="M 433.5,173.5 C 433.5,174.5 433.5,175.5 433.5,176.5C 418.167,176.5 402.833,176.5 387.5,176.5C 387.33,175.178 387.663,174.011 388.5,173C 403.672,172.172 418.672,172.339 433.5,173.5 Z"/></g>
<g><path style="opacity:0.067" fill="#eeefef" d="M 433.5,173.5 C 434.434,174.568 434.768,175.901 434.5,177.5C 418.658,177.83 402.991,177.496 387.5,176.5C 402.833,176.5 418.167,176.5 433.5,176.5C 433.5,175.5 433.5,174.5 433.5,173.5 Z"/></g>
<g><path style="opacity:1" fill="#777a84" d="M 256.5,191.5 C 249.181,187.162 243.515,181.829 239.5,175.5C 239.846,174.304 240.346,174.304 241,175.5C 241.202,173.744 241.702,172.078 242.5,170.5C 242.757,173.603 243.257,176.603 244,179.5C 248.337,183.401 252.504,187.401 256.5,191.5 Z"/></g>
<g><path style="opacity:0.131" fill="#f2fcfb" d="M 231.5,179.5 C 232.906,179.973 233.573,180.973 233.5,182.5C 223.5,182.5 213.5,182.5 203.5,182.5C 203.5,214.833 203.5,247.167 203.5,279.5C 203.167,279.5 202.833,279.5 202.5,279.5C 202.5,246.833 202.5,214.167 202.5,181.5C 210.174,181.666 217.841,181.5 225.5,181C 227.708,180.809 229.708,180.309 231.5,179.5 Z"/></g>
<g><path style="opacity:0.998" fill="#c4f2e6" d="M 233.5,182.5 C 239.83,188.662 246.33,194.662 253,200.5C 252.404,222.995 252.571,245.328 253.5,267.5C 253.5,267.833 253.5,268.167 253.5,268.5C 252.357,271.976 252.19,275.642 253,279.5C 259.112,283.493 265.612,284.327 272.5,282C 273.91,281.632 274.91,280.799 275.5,279.5C 272.943,276.785 269.943,274.618 266.5,273C 264.475,271.806 264.141,270.306 265.5,268.5C 264.675,267.614 263.675,267.281 262.5,267.5C 266.243,244.716 270.743,222.05 276,199.5C 276.667,196.5 276.667,193.5 276,190.5C 274.579,188.595 273.412,186.595 272.5,184.5C 279.443,183.288 286.443,182.621 293.5,182.5C 293.737,183.791 293.404,184.791 292.5,185.5C 291.848,184.275 290.681,183.608 289,183.5C 286.502,183.917 284.002,184.251 281.5,184.5C 280.505,195.654 280.172,206.988 280.5,218.5C 280.047,219.458 279.381,220.292 278.5,221C 279.305,222.113 279.972,223.279 280.5,224.5C 280.5,246.167 280.5,267.833 280.5,289.5C 280.216,291.415 280.549,293.081 281.5,294.5C 281.797,298.767 281.464,302.934 280.5,307C 254.833,307.667 229.167,307.667 203.5,307C 202.819,298.501 202.153,290.001 201.5,281.5C 202.833,281.5 203.5,280.833 203.5,279.5C 203.5,247.167 203.5,214.833 203.5,182.5C 213.5,182.5 223.5,182.5 233.5,182.5 Z"/></g>
<g><path style="opacity:0.063" fill="#e9fbf7" d="M 334.5,186.5 C 333.833,185.833 333.167,185.167 332.5,184.5C 332.491,182.692 332.991,181.025 334,179.5C 334.497,181.81 334.663,184.143 334.5,186.5 Z"/></g>
<g><path style="opacity:0.213" fill="#f7fdfc" d="M 281.5,184.5 C 282.427,195.699 282.761,206.699 282.5,217.5C 282.158,218.338 281.492,218.672 280.5,218.5C 280.172,206.988 280.505,195.654 281.5,184.5 Z"/></g>
<g><path style="opacity:1" fill="#8ae8d0" d="M 211.5,191.5 C 217.5,191.5 223.5,191.5 229.5,191.5C 229.5,197.5 229.5,203.5 229.5,209.5C 223.5,209.5 217.5,209.5 211.5,209.5C 211.5,203.5 211.5,197.5 211.5,191.5 Z"/></g>
<g><path style="opacity:0.553" fill="#b3f0df" d="M 334.5,187.5 C 336.145,192.234 336.811,197.234 336.5,202.5C 335.275,197.71 334.608,192.71 334.5,187.5 Z"/></g>
<g><path style="opacity:0.19" fill="#d4f5ee" d="M 356.5,166.5 C 356.5,203.5 356.5,240.5 356.5,277.5C 356.167,277.5 355.833,277.5 355.5,277.5C 355.832,241.329 355.498,205.329 354.5,169.5C 354.932,168.29 355.599,167.29 356.5,166.5 Z"/></g>
<g><path style="opacity:0.142" fill="#ecccbe" d="M 288.5,206.5 C 288.336,209.187 288.503,211.854 289,214.5C 291.454,216.441 293.287,218.775 294.5,221.5C 292.167,221.5 289.833,221.5 287.5,221.5C 287.802,218.941 287.468,216.607 286.5,214.5C 286.802,211.627 287.469,208.961 288.5,206.5 Z"/></g>
<g><path style="opacity:1" fill="#4d79e3" d="M 286.5,214.5 C 287.468,216.607 287.802,218.941 287.5,221.5C 289.833,221.5 292.167,221.5 294.5,221.5C 292.862,223.955 293.195,225.955 295.5,227.5C 295.5,227.833 295.5,228.167 295.5,228.5C 296.761,232.374 297.428,236.374 297.5,240.5C 296.167,240.5 294.833,240.5 293.5,240.5C 289.82,236.817 286.486,232.817 283.5,228.5C 283.262,226.596 282.262,225.262 280.5,224.5C 279.972,223.279 279.305,222.113 278.5,221C 279.381,220.292 280.047,219.458 280.5,218.5C 281.492,218.672 282.158,218.338 282.5,217.5C 283.436,216.026 284.77,215.026 286.5,214.5 Z"/></g>
<g><path style="opacity:0.49" fill="#bbf2e2" d="M 337.5,214.5 C 339.582,221.884 340.582,229.55 340.5,237.5C 339.001,230.036 338.001,222.369 337.5,214.5 Z"/></g>
<g><path style="opacity:0.545" fill="#c5d3f8" d="M 294.5,221.5 C 295.167,221.5 295.833,221.5 296.5,221.5C 296.576,223.304 296.243,225.304 295.5,227.5C 293.195,225.955 292.862,223.955 294.5,221.5 Z"/></g>
<g><path style="opacity:1" fill="#7a7e87" d="M 256.5,191.5 C 260.001,192.836 262.334,195.336 263.5,199C 261.083,220.837 258.583,242.671 256,264.5C 257.302,243.148 259.135,221.814 261.5,200.5C 261.333,199.167 261.167,197.833 261,196.5C 259.293,194.963 257.793,193.296 256.5,191.5 Z"/></g>
<g><path style="opacity:0.78" fill="#9fb5f2" d="M 295.5,228.5 C 297.267,230.792 298.267,233.458 298.5,236.5C 298.5,237.5 298.5,238.5 298.5,239.5C 298.209,240.649 297.376,241.316 296,241.5C 294.93,241.472 294.097,241.139 293.5,240.5C 294.833,240.5 296.167,240.5 297.5,240.5C 297.428,236.374 296.761,232.374 295.5,228.5 Z"/></g>
<g><path style="opacity:0.104" fill="#edf2f1" d="M 280.5,224.5 C 282.262,225.262 283.262,226.596 283.5,228.5C 282.35,227.15 281.683,227.316 281.5,229C 281.42,245.434 281.587,261.934 282,278.5C 286.45,279.8 290.95,279.8 295.5,278.5C 296.104,274.697 296.77,271.031 297.5,267.5C 297.325,269.621 297.659,271.621 298.5,273.5C 297.675,276.372 296.841,279.372 296,282.5C 294.549,284.464 292.716,285.797 290.5,286.5C 291.706,285.12 291.373,283.953 289.5,283C 287.167,282.333 284.833,282.333 282.5,283C 281.24,284.814 281.24,286.647 282.5,288.5C 284.071,287.691 285.738,287.357 287.5,287.5C 285.485,288.924 283.152,289.59 280.5,289.5C 280.5,267.833 280.5,246.167 280.5,224.5 Z"/></g>
<g><path style="opacity:0.831" fill="#b8f0e1" d="M 300.5,229.5 C 300.906,237.079 300.239,244.412 298.5,251.5C 298.885,247.293 298.885,243.293 298.5,239.5C 298.5,238.5 298.5,237.5 298.5,236.5C 299.167,234.167 299.833,231.833 300.5,229.5 Z"/></g>
<g><path style="opacity:0.008" fill="#d9f7ef" d="M 311.5,252.5 C 311.59,255.152 310.924,257.485 309.5,259.5C 309.41,256.848 310.076,254.515 311.5,252.5 Z"/></g>
<g><path style="opacity:0.459" fill="#bef2e4" d="M 342.5,257.5 C 344.104,261.9 344.771,266.566 344.5,271.5C 343.199,267.057 342.532,262.391 342.5,257.5 Z"/></g>
<g><path style="opacity:1" fill="#f4d0bf" d="M 253.5,267.5 C 256.5,267.5 259.5,267.5 262.5,267.5C 261.185,269.135 261.185,270.801 262.5,272.5C 261.46,274.375 259.96,275.708 258,276.5C 256.038,274.137 254.538,271.47 253.5,268.5C 253.5,268.167 253.5,267.833 253.5,267.5 Z"/></g>
<g><path style="opacity:1" fill="#4979e5" d="M 262.5,267.5 C 263.675,267.281 264.675,267.614 265.5,268.5C 264.141,270.306 264.475,271.806 266.5,273C 269.943,274.618 272.943,276.785 275.5,279.5C 274.91,280.799 273.91,281.632 272.5,282C 265.612,284.327 259.112,283.493 253,279.5C 252.19,275.642 252.357,271.976 253.5,268.5C 254.538,271.47 256.038,274.137 258,276.5C 259.96,275.708 261.46,274.375 262.5,272.5C 261.185,270.801 261.185,269.135 262.5,267.5 Z"/></g>
<g><path style="opacity:0.978" fill="#f5d5b1" d="M 298.5,273.5 C 300.05,274.441 301.716,275.107 303.5,275.5C 303.874,279.653 302.874,283.32 300.5,286.5C 299.751,288.246 298.417,289.246 296.5,289.5C 293.978,288.238 291.311,287.571 288.5,287.5C 288.842,286.662 289.508,286.328 290.5,286.5C 292.716,285.797 294.549,284.464 296,282.5C 296.841,279.372 297.675,276.372 298.5,273.5 Z"/></g>
<g><path style="opacity:0.957" fill="#f7d8b3" d="M 346.5,277.5 C 348.5,277.5 350.5,277.5 352.5,277.5C 352.194,280.385 352.527,283.052 353.5,285.5C 355.389,286.604 357.055,287.937 358.5,289.5C 358.167,289.5 357.833,289.5 357.5,289.5C 355.266,289.38 353.099,289.713 351,290.5C 349.697,290.022 348.531,289.355 347.5,288.5C 346.577,284.936 346.244,281.269 346.5,277.5 Z"/></g>
<g><path style="opacity:1" fill="#74594d" d="M 529.5,279.5 C 526.552,284.809 523.552,284.809 520.5,279.5C 523.604,278.225 526.604,278.225 529.5,279.5 Z"/></g>
<g><path style="opacity:0.665" fill="#d0d0d0" d="M 202.5,279.5 C 202.833,279.5 203.167,279.5 203.5,279.5C 203.5,280.833 202.833,281.5 201.5,281.5C 172.826,281.833 144.159,281.5 115.5,280.5C 144.492,279.5 173.492,279.167 202.5,279.5 Z"/></g>
<g><path style="opacity:0.779" fill="#e1e0de" d="M 305.5,272.5 C 305.261,274.467 305.594,276.301 306.5,278C 317.146,279.21 327.813,279.543 338.5,279C 340.811,278.764 342.811,277.931 344.5,276.5C 344.842,277.338 345.508,277.672 346.5,277.5C 346.244,281.269 346.577,284.936 347.5,288.5C 346.596,289.209 346.263,290.209 346.5,291.5C 345.686,289.369 345.186,287.036 345,284.5C 344.25,283.874 343.416,283.374 342.5,283C 329.54,281.863 316.54,281.696 303.5,282.5C 303.149,286.684 302.482,290.684 301.5,294.5C 301.806,291.615 301.473,288.948 300.5,286.5C 302.874,283.32 303.874,279.653 303.5,275.5C 304.167,274.5 304.833,273.5 305.5,272.5 Z"/></g>
<g><path style="opacity:0.648" fill="#d4d4d4" d="M 352.5,277.5 C 353.5,277.5 354.5,277.5 355.5,277.5C 355.833,277.5 356.167,277.5 356.5,277.5C 358.482,277.995 360.482,278.495 362.5,279C 401.904,279.827 441.238,279.66 480.5,278.5C 479.817,280.176 478.483,280.843 476.5,280.5C 476.5,281.5 476.5,282.5 476.5,283.5C 476.167,283.5 475.833,283.5 475.5,283.5C 457.346,282.167 438.846,281.5 420,281.5C 397.824,281.566 375.657,281.899 353.5,282.5C 353.5,283.5 353.5,284.5 353.5,285.5C 352.527,283.052 352.194,280.385 352.5,277.5 Z"/></g>
<g><path style="opacity:1" fill="#6f5951" d="M 488.5,292.5 C 487.167,292.5 485.833,292.5 484.5,292.5C 485.209,291.596 486.209,291.263 487.5,291.5C 487.665,288.482 487.498,285.482 487,282.5C 483.918,285.197 481.085,284.864 478.5,281.5C 477.818,282.243 477.151,282.909 476.5,283.5C 476.5,282.5 476.5,281.5 476.5,280.5C 478.483,280.843 479.817,280.176 480.5,278.5C 482.8,276.798 485.467,276.132 488.5,276.5C 488.5,281.833 488.5,287.167 488.5,292.5 Z"/></g>
<g><path style="opacity:0.294" fill="#cccccd" d="M 517.5,279.5 C 518.914,281.598 518.248,282.598 515.5,282.5C 510.684,281.674 505.684,281.174 500.5,281C 505.981,279.551 511.648,279.051 517.5,279.5 Z"/></g>
<g><path style="opacity:0.622" fill="#cecece" d="M 529.5,279.5 C 529.833,279.5 530.167,279.5 530.5,279.5C 659.833,280.167 659.833,280.833 530.5,281.5C 530.5,284.833 530.5,288.167 530.5,291.5C 523.487,291.968 516.487,292.635 509.5,293.5C 507.955,293.489 506.622,293.156 505.5,292.5C 513.471,291.504 521.471,290.837 529.5,290.5C 529.5,286.833 529.5,283.167 529.5,279.5 Z"/></g>
<g><path style="opacity:0.999" fill="#2a303e" d="M 517.5,279.5 C 518.5,279.5 519.5,279.5 520.5,279.5C 523.552,284.809 526.552,284.809 529.5,279.5C 529.5,283.167 529.5,286.833 529.5,290.5C 521.471,290.837 513.471,291.504 505.5,292.5C 502.861,290.162 503.194,287.995 506.5,286C 509.309,284.259 512.309,283.092 515.5,282.5C 518.248,282.598 518.914,281.598 517.5,279.5 Z"/></g>
<g><path style="opacity:1" fill="#353a48" d="M 484.5,292.5 C 477.59,293.809 470.59,294.309 463.5,294C 461.986,292.561 461.653,291.061 462.5,289.5C 464.4,287.384 466.733,286.051 469.5,285.5C 471.898,285.741 473.898,285.074 475.5,283.5C 475.833,283.5 476.167,283.5 476.5,283.5C 477.151,282.909 477.818,282.243 478.5,281.5C 481.085,284.864 483.918,285.197 487,282.5C 487.498,285.482 487.665,288.482 487.5,291.5C 486.209,291.263 485.209,291.596 484.5,292.5 Z"/></g>
<g><path style="opacity:1" fill="#7b7f88" d="M 475.5,283.5 C 473.898,285.074 471.898,285.741 469.5,285.5C 471.102,283.926 473.102,283.259 475.5,283.5 Z"/></g>
<g><path style="opacity:1" fill="#3b3f4c" d="M 300.5,286.5 C 301.473,288.948 301.806,291.615 301.5,294.5C 294.983,295.685 288.316,295.685 281.5,294.5C 280.549,293.081 280.216,291.415 280.5,289.5C 283.152,289.59 285.485,288.924 287.5,287.5C 287.833,287.5 288.167,287.5 288.5,287.5C 291.311,287.571 293.978,288.238 296.5,289.5C 298.417,289.246 299.751,288.246 300.5,286.5 Z"/></g>
<g><path style="opacity:1" fill="#252b39" d="M 347.5,288.5 C 348.531,289.355 349.697,290.022 351,290.5C 353.099,289.713 355.266,289.38 357.5,289.5C 360.253,290.593 360.92,292.426 359.5,295C 356.518,295.498 353.518,295.665 350.5,295.5C 349.833,294.167 348.833,293.167 347.5,292.5C 346.833,292.5 346.5,292.167 346.5,291.5C 346.263,290.209 346.596,289.209 347.5,288.5 Z"/></g>
<g><path style="opacity:0.035" fill="#c4c4c5" d="M 347.5,292.5 C 348.833,293.167 349.833,294.167 350.5,295.5C 348.5,295.5 347.5,294.5 347.5,292.5 Z"/></g>
<g><path style="opacity:0.282" fill="#c9c9cd" d="M 357.5,289.5 C 357.833,289.5 358.167,289.5 358.5,289.5C 359.496,289.414 360.329,289.748 361,290.5C 361.743,292.441 361.576,294.274 360.5,296C 356.973,296.808 353.64,296.641 350.5,295.5C 353.518,295.665 356.518,295.498 359.5,295C 360.92,292.426 360.253,290.593 357.5,289.5 Z"/></g>
</svg>
