<svg xmlns="http://www.w3.org/2000/svg" width="380" height="380" preserveAspectRatio="xMidYMid meet" version="1.0" viewBox="0 0 285 285"><metadata>Created by potrace 1.14, written by Peter Selinger 2001-2017</metadata><g fill="#000" stroke="none"><path d="M1347 2545 c-26 -7 -50 -13 -52 -14 -3 -1 -13 -4 -22 -8 -10 -3 -26 -13 -35 -21 -10 -8 -18 -11 -18 -6 0 5 -4 4 -8 -2 -4 -6 -42 -30 -86 -55 -43 -24 -98 -55 -121 -69 -24 -14 -74 -43 -111 -64 -38 -21 -77 -46 -86 -54 -10 -8 -18 -12 -18 -8 0 4 -6 2 -12 -4 -23 -19 -147 -90 -157 -90 -6 0 -11 -4 -11 -10 0 -5 -6 -10 -13 -10 -21 0 -137 -89 -137 -105 0 -3 -9 -15 -20 -27 -11 -12 -20 -28 -20 -35 0 -7 -4 -13 -10 -13 -5 0 -9 -3 -8 -7 1 -5 -4 -20 -10 -35 -6 -15 -13 -38 -14 -50 -2 -13 -6 -27 -9 -33 -5 -9 -4 -890 1 -890 1 0 4 -12 6 -27 3 -15 11 -39 19 -55 8 -15 15 -33 15 -39 0 -7 20 -38 45 -70 25 -31 45 -54 45 -49 0 4 8 -1 17 -12 10 -11 72 -51 138 -90 66 -39 140 -83 165 -97 25 -15 61 -34 80 -44 19 -9 37 -20 38 -24 2 -5 10 -8 18 -8 8 0 14 -4 14 -10 0 -5 5 -10 11 -10 7 0 45 -20 87 -45 41 -25 78 -45 83 -45 5 0 9 -5 9 -12 0 -6 3 -8 7 -5 3 4 11 3 17 -2 66 -53 172 -87 266 -83 100 4 110 5 110 14 0 4 9 8 20 8 11 0 20 4 20 8 0 4 10 8 22 9 11 1 24 6 27 11 3 5 31 22 61 39 30 16 72 39 92 52 20 12 40 22 44 21 4 -1 10 2 13 7 3 5 33 25 66 44 33 18 74 42 90 51 17 10 52 30 79 44 27 14 56 32 64 40 7 8 20 14 28 14 8 0 14 5 14 11 0 5 4 8 9 5 5 -3 14 1 21 9 7 8 19 15 26 15 8 0 14 5 14 12 0 6 3 9 6 5 7 -7 104 59 121 82 6 9 25 31 42 50 16 18 30 36 29 40 -1 3 6 22 15 43 31 69 34 117 32 559 -2 390 -4 449 -19 489 -41 109 -107 186 -196 233 -30 15 -50 27 -45 27 5 0 -17 13 -49 30 -32 16 -64 34 -72 41 -8 6 -14 8 -14 3 0 -4 -10 2 -22 13 -13 11 -38 26 -55 34 -18 8 -33 18 -33 22 0 5 -4 6 -9 3 -5 -3 -12 1 -15 10 -4 9 -9 14 -13 10 -3 -3 -13 0 -22 7 -16 14 -205 124 -276 161 -22 12 -42 24 -45 27 -3 4 -27 14 -53 23 -64 21 -170 27 -230 11z m163 -168 c8 -7 33 -21 55 -32 22 -11 54 -30 71 -42 17 -13 35 -23 40 -23 5 0 21 -10 35 -23 50 -43 55 -66 53 -275 -1 -191 0 -193 22 -198 15 -4 40 5 77 29 62 40 77 70 77 152 0 28 0 60 0 72 0 60 22 79 65 54 17 -10 46 -27 65 -37 19 -10 37 -21 40 -24 9 -9 44 -30 67 -40 49 -21 46 -61 -7 -87 -14 -7 -52 -29 -85 -48 -33 -20 -67 -39 -75 -42 -8 -4 -24 -15 -34 -25 -10 -9 -23 -15 -27 -12 -4 2 -10 0 -14 -5 -3 -5 -18 -16 -33 -24 -24 -13 -61 -34 -197 -113 -22 -13 -52 -29 -67 -35 -16 -6 -28 -15 -28 -20 0 -5 -4 -9 -10 -9 -5 0 -31 -13 -57 -29 -27 -16 -61 -33 -76 -37 -31 -7 -107 13 -107 28 0 5 -4 7 -9 4 -5 -4 -11 -3 -13 1 -1 5 -61 41 -133 82 -71 41 -163 94 -202 118 -40 23 -75 43 -78 43 -2 0 -34 18 -70 40 -36 22 -70 40 -75 40 -6 0 -10 5 -10 10 0 6 -5 10 -10 10 -22 0 -90 51 -90 68 0 18 57 62 80 62 7 0 11 3 7 6 -3 4 17 18 46 32 29 14 58 32 65 39 21 20 72 17 73 -4 0 -10 1 -58 3 -108 3 -105 12 -124 79 -166 56 -34 83 -37 92 -8 9 27 9 294 1 308 -4 6 -4 11 1 11 4 0 7 20 6 45 0 26 3 45 10 45 6 0 8 3 4 6 -3 4 0 12 7 20 14 13 185 118 241 146 32 17 100 14 125 -5z m-866 -641 c127 -70 161 -90 168 -100 4 -6 8 -7 8 -3 0 5 13 -1 29 -12 16 -12 34 -21 39 -21 6 0 12 -3 14 -7 2 -5 19 -16 38 -25 19 -10 53 -28 75 -41 22 -14 90 -53 150 -87 61 -35 118 -70 128 -78 9 -8 17 -11 17 -6 0 5 10 -7 22 -26 21 -34 21 -42 22 -463 0 -456 1 -451 -47 -441 -11 2 -37 15 -58 29 -21 14 -63 38 -93 55 -81 43 -100 54 -106 60 -3 3 -26 17 -52 30 -27 14 -48 29 -48 33 0 5 -4 5 -10 2 -5 -3 -10 -1 -10 4 0 6 -4 11 -9 11 -9 0 -159 85 -218 124 -32 20 -45 56 -21 56 6 0 8 3 5 7 -6 5 32 30 93 59 8 5 42 24 75 43 33 20 74 43 90 53 17 10 50 29 75 42 55 30 90 61 92 84 2 31 4 37 10 47 3 6 2 19 -2 29 -3 11 -3 37 0 58 4 21 4 40 0 43 -4 2 -6 15 -5 29 3 27 -48 96 -71 96 -8 0 -14 5 -14 11 0 5 -4 7 -10 4 -5 -3 -10 -2 -10 3 0 5 -12 12 -26 15 -34 6 -41 -14 -42 -128 -2 -92 -21 -155 -49 -155 -7 0 -13 -4 -13 -9 0 -5 -8 -11 -17 -15 -10 -3 -27 -11 -38 -18 -75 -49 -128 -78 -140 -78 -8 0 -15 -4 -15 -9 0 -5 -21 -19 -47 -31 -81 -38 -78 -54 -78 366 0 353 3 392 29 394 4 0 36 -15 70 -34z m1676 26 c13 -6 16 -57 16 -384 1 -349 0 -378 -16 -383 -20 -6 -49 4 -105 40 -22 13 -58 35 -80 47 -22 12 -49 28 -60 35 -11 7 -33 19 -50 27 -16 8 -41 26 -54 40 -23 24 -25 37 -30 142 -5 85 -10 117 -21 124 -9 5 -19 5 -27 -2 -7 -6 -13 -7 -13 -2 0 5 -4 5 -8 -1 -4 -5 -20 -17 -36 -25 -58 -30 -70 -60 -72 -173 -2 -146 8 -165 126 -228 25 -13 47 -26 50 -29 3 -3 19 -12 35 -20 17 -8 35 -19 40 -23 10 -9 105 -63 162 -93 65 -35 51 -55 -92 -137 -144 -82 -159 -91 -166 -100 -3 -5 -8 -8 -10 -7 -8 4 -59 -23 -59 -31 0 -4 -9 -11 -21 -14 -11 -4 -54 -27 -95 -51 -41 -24 -79 -44 -84 -44 -6 0 -10 -4 -10 -8 0 -9 -70 -42 -88 -42 -6 0 -14 10 -18 22 -4 12 -6 208 -6 436 1 393 2 415 21 445 11 18 36 41 55 51 20 11 36 22 36 26 0 4 6 7 13 7 6 0 46 20 87 45 113 68 291 168 300 168 5 0 10 4 12 8 2 4 32 24 68 44 119 65 145 80 155 89 10 10 23 11 45 1z" transform="translate(0.000000,285.000000) scale(0.100000,-0.100000)"/></g></svg>