<?xml version="1.0" standalone="no"?>
<!DOCTYPE svg PUBLIC "-//W3C//DTD SVG 20010904//EN"
 "http://www.w3.org/TR/2001/REC-SVG-20010904/DTD/svg10.dtd">
<svg version="1.0" xmlns="http://www.w3.org/2000/svg"
 width="512.000000pt" height="512.000000pt" viewBox="0 0 512.000000 512.000000"
 preserveAspectRatio="xMidYMid meet">
<metadata>
Created by potrace 1.14, written by Peter Selinger 2001-2017
</metadata>
<g transform="translate(0.000000,512.000000) scale(0.100000,-0.100000)"
fill="#000000" stroke="none">
<path d="M2352 4850 c-34 -22 -62 -44 -62 -49 0 -5 -15 -14 -32 -20 -18 -6
-55 -26 -83 -45 -80 -53 -158 -102 -190 -120 -16 -9 -65 -38 -108 -64 -220
-133 -435 -261 -457 -272 -14 -7 -43 -27 -65 -45 -22 -18 -47 -34 -55 -37 -22
-8 -270 -157 -385 -231 -88 -57 -181 -113 -261 -155 -22 -12 -24 -20 -25 -80
0 -37 -2 -355 -3 -707 -2 -352 -4 -651 -4 -665 0 -14 3 -198 6 -410 8 -438 0
-410 94 -343 27 20 64 43 81 53 18 9 138 81 267 160 129 79 260 157 290 173
30 16 64 37 75 46 20 17 252 161 260 161 2 0 46 27 98 59 52 33 110 66 129 74
19 8 64 36 99 62 35 26 91 61 124 77 81 42 125 76 125 100 0 26 -61 98 -105
123 -18 11 -64 41 -102 66 -61 42 -173 112 -228 143 -11 6 -55 35 -98 63 -87
57 -156 79 -223 69 -74 -10 -107 -29 -147 -88 -35 -50 -38 -61 -47 -158 -5
-58 -9 -189 -10 -292 l0 -187 -43 -28 c-23 -15 -49 -32 -58 -38 -9 -5 -28 -18
-43 -29 -56 -39 -55 -53 -55 615 0 335 4 620 8 632 6 15 54 50 132 97 68 40
147 88 174 105 44 28 135 85 380 235 107 66 129 79 164 95 19 8 67 38 108 66
41 27 81 49 90 47 14 -2 17 -21 19 -108 l3 -104 -33 -31 c-18 -17 -55 -42 -82
-56 -157 -83 -341 -206 -371 -247 -47 -64 -56 -199 -18 -272 23 -44 94 -120
113 -120 15 0 358 -205 367 -220 3 -5 29 -16 58 -26 28 -9 57 -20 62 -24 6 -5
43 -16 83 -26 64 -15 75 -16 87 -3 13 12 15 153 15 999 0 542 0 993 0 1003 0
30 -52 20 -118 -23z"/>
<path d="M2656 3883 l0 -998 45 1 c56 0 252 82 317 131 24 18 63 44 85 57 23
13 67 38 97 55 30 18 76 41 103 53 26 11 47 27 47 34 0 7 9 18 21 24 11 7 32
37 46 68 33 73 34 158 4 201 -12 16 -21 34 -21 39 0 16 -123 102 -237 166 -57
31 -103 61 -103 65 0 5 -13 14 -29 21 -16 6 -32 18 -35 26 -3 8 -16 14 -29 14
-50 0 -61 30 -62 161 -1 105 1 121 16 130 13 7 25 3 47 -16 16 -13 50 -33 75
-44 24 -11 48 -24 51 -30 4 -6 48 -31 98 -56 51 -25 106 -56 123 -70 35 -26
109 -71 195 -118 69 -37 187 -112 247 -155 24 -18 57 -38 71 -43 47 -18 172
-100 182 -120 7 -12 10 -207 9 -561 0 -299 0 -585 1 -635 1 -83 -1 -93 -17
-94 -30 -2 -47 2 -63 16 -8 7 -39 25 -68 40 -29 15 -58 37 -64 49 -8 14 -14
121 -19 306 -3 157 -7 286 -8 288 0 1 -27 27 -58 57 -68 65 -105 79 -185 72
-47 -4 -75 -15 -143 -56 -47 -28 -88 -51 -91 -51 -3 0 -24 -13 -47 -28 -23
-16 -69 -46 -102 -67 -33 -22 -73 -50 -88 -62 -16 -13 -35 -23 -43 -23 -21 0
-98 -66 -139 -119 -26 -32 -32 -47 -24 -57 5 -7 48 -34 95 -61 47 -26 106 -61
131 -78 56 -37 166 -99 213 -121 19 -9 39 -23 43 -31 5 -8 18 -19 30 -24 12
-5 51 -27 87 -49 36 -21 90 -53 120 -69 69 -39 115 -67 173 -108 25 -17 56
-34 69 -38 12 -4 59 -31 103 -60 44 -29 94 -60 110 -69 17 -10 57 -35 90 -56
33 -22 76 -47 95 -57 19 -9 62 -35 95 -57 33 -23 77 -50 98 -61 33 -16 40 -17
48 -4 5 8 8 166 8 364 -1 193 -1 364 -1 380 0 789 -5 1425 -10 1430 -10 11
-178 112 -233 141 -27 14 -61 37 -75 49 -14 13 -54 39 -90 58 -36 19 -103 58
-150 87 -47 30 -110 68 -140 86 -109 65 -126 75 -226 137 -56 34 -123 75 -150
91 -199 120 -306 187 -349 219 -27 20 -65 44 -84 52 -62 28 -192 108 -205 127
-14 20 -64 48 -86 48 -13 0 -15 -117 -14 -997z"/>
<path d="M1395 4860 c3 -5 8 -10 11 -10 2 0 4 5 4 10 0 6 -5 10 -11 10 -5 0
-7 -4 -4 -10z"/>
<path d="M1395 3190 c-3 -5 -1 -10 4 -10 6 0 11 5 11 10 0 6 -2 10 -4 10 -3 0
-8 -4 -11 -10z"/>
<path d="M3775 3190 c-3 -5 -1 -10 4 -10 6 0 11 5 11 10 0 6 -2 10 -4 10 -3 0
-8 -4 -11 -10z"/>
<path d="M2280 2369 c-41 -22 -84 -49 -95 -59 -17 -16 -269 -172 -375 -233
-19 -11 -58 -35 -87 -54 -28 -18 -54 -33 -58 -33 -5 0 -19 -9 -91 -57 -17 -12
-65 -39 -106 -61 -40 -22 -103 -60 -140 -86 -36 -25 -69 -46 -72 -46 -6 0
-187 -110 -246 -150 -14 -9 -47 -27 -75 -40 -99 -48 -187 -116 -183 -143 3
-22 1 -21 363 -240 127 -76 247 -152 267 -168 20 -16 41 -29 47 -29 11 0 358
-209 421 -254 25 -18 70 -46 102 -63 31 -17 95 -55 143 -85 47 -29 105 -64
128 -77 23 -13 103 -62 178 -108 79 -48 147 -83 162 -83 26 0 91 34 172 90 23
16 95 58 160 95 66 37 134 77 150 89 40 29 120 76 170 99 22 10 49 27 60 37
19 18 293 190 302 190 2 0 34 20 71 44 37 24 83 52 104 62 20 11 128 76 240
145 111 69 244 150 295 180 50 30 94 60 97 67 8 18 -11 52 -29 52 -8 0 -29 13
-47 28 -18 16 -71 50 -118 76 -86 48 -200 115 -255 150 -16 11 -59 38 -95 61
-36 23 -139 86 -230 139 -91 54 -219 131 -285 171 -66 40 -153 93 -194 116
-40 23 -88 55 -106 70 -18 16 -39 29 -47 29 -8 0 -35 15 -59 33 -51 38 -147
87 -170 87 -19 0 -33 -30 -56 -116 -12 -47 -16 -135 -20 -424 l-5 -365 34 -49
c18 -28 55 -65 82 -83 44 -30 55 -33 122 -33 71 0 75 1 156 53 46 29 108 66
138 81 30 16 98 57 151 92 99 66 115 72 152 52 47 -25 127 -89 127 -102 0 -12
-113 -89 -237 -162 -18 -10 -106 -64 -195 -119 -90 -55 -176 -107 -193 -116
-16 -8 -81 -48 -143 -87 -62 -40 -115 -72 -118 -72 -4 0 -38 -21 -77 -47 -88
-58 -113 -60 -192 -9 -161 102 -276 172 -335 206 -36 20 -144 85 -240 144
-182 113 -188 117 -292 179 -129 77 -130 83 -37 147 97 66 92 68 264 -51 17
-11 64 -40 105 -63 41 -24 109 -63 150 -87 66 -39 81 -44 135 -44 71 0 135 32
184 92 61 74 61 75 61 390 0 241 -3 304 -19 388 -33 174 -45 205 -80 205 -9 0
-50 -19 -91 -41z"/>
<path d="M2980 2354 c0 -8 5 -12 10 -9 6 4 8 11 5 16 -9 14 -15 11 -15 -7z"/>
</g>
</svg>
